%TF.GenerationSoftware,KiCad,Pcbnew,7.0.11-7.0.11~ubuntu22.04.1*%
%TF.CreationDate,2025-09-05T11:13:46+03:00*%
%TF.ProjectId,MOD-ESP32-C5_Rev_A,4d4f442d-4553-4503-9332-2d43355f5265,A*%
%TF.SameCoordinates,PX5a995c0PY9896800*%
%TF.FileFunction,Paste,Top*%
%TF.FilePolarity,Positive*%
%FSLAX46Y46*%
G04 Gerber Fmt 4.6, Leading zero omitted, Abs format (unit mm)*
G04 Created by KiCad (PCBNEW 7.0.11-7.0.11~ubuntu22.04.1) date 2025-09-05 11:13:46*
%MOMM*%
%LPD*%
G01*
G04 APERTURE LIST*
%ADD10R,0.800000X0.800000*%
%ADD11R,0.500000X0.550000*%
%ADD12C,1.000000*%
%ADD13R,1.600000X1.000000*%
%ADD14R,1.300000X1.300000*%
%ADD15R,3.200000X2.100000*%
%ADD16R,3.000000X2.100000*%
%ADD17R,2.200000X1.100000*%
%ADD18R,2.000000X1.100000*%
%ADD19R,1.130000X0.280000*%
%ADD20R,1.130000X0.230000*%
%ADD21R,1.000000X2.200000*%
%ADD22R,2.400000X2.900000*%
G04 APERTURE END LIST*
D10*
%TO.C,LED1*%
X2762000Y13500000D03*
X1238000Y13500000D03*
%TD*%
D11*
%TO.C,R4*%
X8008000Y12750000D03*
X6992000Y12750000D03*
%TD*%
D10*
%TO.C,LED2*%
X2762000Y16500000D03*
X1238000Y16500000D03*
%TD*%
D12*
%TO.C,FID3*%
X18000000Y2000000D03*
%TD*%
D11*
%TO.C,R3*%
X2508000Y18000000D03*
X1492000Y18000000D03*
%TD*%
%TO.C,R2*%
X6992000Y7750000D03*
X8008000Y7750000D03*
%TD*%
%TO.C,R8*%
X6992000Y5250000D03*
X8008000Y5250000D03*
%TD*%
%TO.C,C3*%
X5008000Y18000000D03*
X3992000Y18000000D03*
%TD*%
D13*
%TO.C,U1*%
X1250000Y38510000D03*
X1250000Y37240000D03*
X1250000Y35970000D03*
X1250000Y34700000D03*
X1250000Y33430000D03*
X1250000Y32160000D03*
X1250000Y30890000D03*
X1250000Y29620000D03*
X1250000Y28350000D03*
X1250000Y27080000D03*
X1250000Y25810000D03*
X1250000Y24540000D03*
X1250000Y23270000D03*
X1250000Y22000000D03*
D14*
X9130000Y31620000D03*
X9130000Y29920000D03*
X9130000Y28220000D03*
X10830000Y31620000D03*
X10830000Y29920000D03*
X10830000Y28220000D03*
X12530000Y31620000D03*
X12530000Y29920000D03*
X12530000Y28220000D03*
D13*
X18750000Y38510000D03*
X18750000Y37240000D03*
X18750000Y35970000D03*
X18750000Y34700000D03*
X18750000Y33430000D03*
X18750000Y32160000D03*
X18750000Y30890000D03*
X18750000Y29620000D03*
X18750000Y28350000D03*
X18750000Y27080000D03*
X18750000Y25810000D03*
X18750000Y24540000D03*
X18750000Y23270000D03*
X18750000Y22000000D03*
%TD*%
D11*
%TO.C,R6*%
X3992000Y13500000D03*
X5008000Y13500000D03*
%TD*%
%TO.C,C7*%
X5008000Y5250000D03*
X3992000Y5250000D03*
%TD*%
%TO.C,R1*%
X6992000Y16500000D03*
X8008000Y16500000D03*
%TD*%
%TO.C,TVS2*%
X8008000Y14000000D03*
X6992000Y14000000D03*
%TD*%
%TO.C,TVS1*%
X8008000Y10250000D03*
X6992000Y10250000D03*
%TD*%
%TO.C,C4*%
X8008000Y15250000D03*
X6992000Y15250000D03*
%TD*%
D15*
%TO.C,USB-PGM1*%
X11970000Y16427600D03*
X11970000Y6572400D03*
D16*
X16150000Y16427600D03*
X16150000Y6572400D03*
D17*
X11970000Y16427600D03*
X11970000Y6572400D03*
D18*
X16150000Y16427600D03*
X16150000Y6572400D03*
D19*
X11068000Y8175000D03*
X11068000Y8975000D03*
D20*
X11068000Y10250000D03*
X11068000Y11250000D03*
X11068000Y11750000D03*
X11068000Y12750000D03*
D19*
X11068000Y14025000D03*
X11068000Y14825000D03*
X11068000Y14575000D03*
X11068000Y13775000D03*
D20*
X11068000Y13250000D03*
X11068000Y12250000D03*
X11068000Y10750000D03*
X11068000Y9750000D03*
D19*
X11068000Y9225000D03*
X11068000Y8425000D03*
%TD*%
D11*
%TO.C,C6*%
X2758000Y5250000D03*
X1742000Y5250000D03*
%TD*%
%TO.C,R5*%
X6992000Y11500000D03*
X8008000Y11500000D03*
%TD*%
D21*
%TO.C,VR1*%
X1750000Y7150000D03*
D22*
X3250000Y10000000D03*
D21*
X3250000Y7150000D03*
X4750000Y7150000D03*
%TD*%
D11*
%TO.C,R7*%
X3992000Y16500000D03*
X5008000Y16500000D03*
%TD*%
%TO.C,C5*%
X8008000Y9000000D03*
X6992000Y9000000D03*
%TD*%
%TO.C,R9*%
X8008000Y6500000D03*
X6992000Y6500000D03*
%TD*%
M02*
