M48
; DRILL file {KiCad 7.0.11-7.0.11~ubuntu22.04.1} date  5.09.2025 (пт) 11:14:01
; FORMAT={-:-/ absolute / metric / decimal}
; #@! TF.CreationDate,2025-09-05T11:14:01+03:00
; #@! TF.GenerationSoftware,Kicad,Pcbnew,7.0.11-7.0.11~ubuntu22.04.1
; #@! TF.FileFunction,Plated,1,2,PTH
FMAT,2
METRIC
; #@! TA.AperFunction,Plated,PTH,ViaDrill
T1C0.400
; #@! TA.AperFunction,Plated,PTH,ComponentDrill
T2C0.400
; #@! TA.AperFunction,Plated,PTH,ComponentDrill
T3C0.600
; #@! TA.AperFunction,Plated,PTH,ComponentDrill
T4C0.800
; #@! TA.AperFunction,Plated,PTH,ComponentDrill
T5C1.200
%
G90
G05
T1
X0.781Y20.8
X0.781Y19.8
X0.8Y39.2
X0.9Y7.25
X0.9Y5.85
X0.9Y4.5
X1.75Y5.85
X1.8Y4.5
X1.95Y15.5
X1.95Y14.5
X2.5Y38.5
X2.5Y37.24
X3.0Y39.2
X3.207Y15.452
X3.25Y12.25
X3.559Y14.414
X3.7Y4.5
X3.8Y24.6
X4.0Y11.75
X4.116Y20.0
X4.117Y20.852
X4.117Y18.888
X4.25Y37.24
X4.25Y35.532
X4.25Y30.75
X4.25Y29.25
X4.75Y39.2
X4.75Y23.9
X4.75Y12.25
X4.75Y10.9
X4.75Y9.9
X4.75Y8.9
X5.25Y32.25
X5.25Y30.75
X5.25Y29.25
X5.486Y7.584
X5.5Y6.75
X5.6Y35.75
X5.6Y10.9
X5.6Y9.9
X5.6Y8.9
X5.75Y23.9
X6.4Y23.2
X6.5Y39.2
X6.5Y36.75
X6.5Y32.25
X6.5Y30.75
X6.5Y29.25
X6.5Y27.75
X6.992Y18.2
X6.992Y17.3
X6.992Y15.9
X6.992Y14.6
X6.992Y9.6
X6.992Y8.4
X7.1Y22.6
X7.25Y38.0
X7.25Y36.05
X7.75Y32.25
X7.75Y30.75
X7.75Y29.25
X7.75Y27.75
X8.187Y19.499
X8.25Y39.2
X8.25Y36.75
X8.754Y4.499
X8.8Y22.268
X9.0Y36.05
X9.1Y19.499
X9.6Y5.4
X9.7Y6.5
X10.0Y36.05
X11.0Y36.05
X11.75Y39.2
X11.75Y36.75
X12.5Y38.0
X12.5Y36.05
X12.6Y5.2
X12.7Y12.55
X12.7Y10.95
X13.365Y36.879
X13.4Y22.3
X13.5Y39.2
X13.5Y17.8
X14.2Y23.1
X14.25Y38.0
X14.335Y10.065
X14.4Y18.8
X14.4Y17.8
X14.4Y12.7
X14.4Y11.8
X14.4Y10.9
X15.0Y5.2
X15.25Y39.2
X15.35Y37.089
X15.483Y33.483
X15.566Y34.577
X16.0Y38.0
X16.25Y19.25
X16.25Y17.75
X16.4Y31.0
X16.445Y32.092
X16.668Y34.65
X16.668Y28.105
X16.864Y27.0
X17.0Y39.2
X17.0Y3.75
X17.5Y38.35
X17.5Y33.43
X18.75Y39.2
X19.0Y13.5
X19.0Y11.75
X19.0Y10.0
X19.0Y8.25
X19.0Y6.5
X19.0Y5.0
X19.0Y3.75
X19.09Y20.75
X19.09Y19.25
X19.09Y17.75
T2
X8.75Y30.77
X8.75Y29.07
X9.98Y32.0
X9.98Y31.2
X9.98Y28.65
X9.98Y27.85
X11.68Y32.0
X11.68Y31.2
X11.68Y28.65
X11.68Y27.85
X12.9Y30.77
X12.9Y29.07
T3
X7.5Y24.5
X8.75Y24.5
X10.0Y24.5
X11.25Y24.5
X12.5Y24.5
X13.75Y24.5
T5
X10.83Y29.92
T4
G00X11.52Y15.82
M15
G01X12.42Y15.82
M16
G05
G00X11.52Y7.18
M15
G01X12.42Y7.18
M16
G05
G00X15.85Y15.82
M15
G01X16.45Y15.82
M16
G05
G00X15.85Y7.18
M15
G01X16.45Y7.18
M16
G05
M30
