%TF.GenerationSoftware,KiCad,Pcbnew,7.0.11-7.0.11~ubuntu22.04.1*%
%TF.CreationDate,2025-09-05T11:13:46+03:00*%
%TF.ProjectId,MOD-ESP32-C5_Rev_A,4d4f442d-4553-4503-9332-2d43355f5265,A*%
%TF.SameCoordinates,PX5a995c0PY9896800*%
%TF.FileFunction,Legend,Bot*%
%TF.FilePolarity,Positive*%
%FSLAX46Y46*%
G04 Gerber Fmt 4.6, Leading zero omitted, Abs format (unit mm)*
G04 Created by KiCad (PCBNEW 7.0.11-7.0.11~ubuntu22.04.1) date 2025-09-05 11:13:46*
%MOMM*%
%LPD*%
G01*
G04 APERTURE LIST*
%ADD10C,0.203200*%
%ADD11C,0.254000*%
%ADD12C,0.381000*%
%ADD13C,0.222250*%
%ADD14C,0.200000*%
%ADD15C,0.150000*%
%ADD16C,0.127000*%
%ADD17C,0.700000*%
%ADD18C,0.100000*%
%ADD19C,0.500000*%
%ADD20C,0.400000*%
%ADD21C,0.300000*%
%ADD22C,0.228600*%
%ADD23C,0.370000*%
%ADD24C,0.380000*%
%ADD25C,1.000000*%
%ADD26C,0.420000*%
G04 APERTURE END LIST*
D10*
G36*
X2495293Y16800634D02*
G01*
X2510681Y16785246D01*
X2537025Y16732559D01*
X2569991Y16600695D01*
X2569991Y16432183D01*
X2537025Y16300319D01*
X2510681Y16247631D01*
X2495293Y16232244D01*
X2454084Y16211639D01*
X2424642Y16211639D01*
X2383432Y16232244D01*
X2368045Y16247631D01*
X2341699Y16300323D01*
X2308734Y16432184D01*
X2308734Y16600695D01*
X2341699Y16732556D01*
X2368044Y16785246D01*
X2383432Y16800634D01*
X2424643Y16821239D01*
X2454083Y16821239D01*
X2495293Y16800634D01*
G37*
G36*
X6140506Y15583938D02*
G01*
X441230Y15583938D01*
X441230Y16264858D01*
X557344Y16264858D01*
X564581Y16242582D01*
X568070Y16219421D01*
X606775Y16142011D01*
X618330Y16130279D01*
X625807Y16115606D01*
X664512Y16076901D01*
X679185Y16069425D01*
X690918Y16057869D01*
X768327Y16019165D01*
X791488Y16015677D01*
X813763Y16008439D01*
X1007287Y16008439D01*
X1029563Y16015678D01*
X1052723Y16019165D01*
X1130133Y16057869D01*
X1141865Y16069425D01*
X1156540Y16076902D01*
X1195244Y16115607D01*
X1223750Y16171555D01*
X1213926Y16233574D01*
X1169525Y16277974D01*
X1107506Y16287797D01*
X1051558Y16259289D01*
X1024512Y16232244D01*
X983304Y16211639D01*
X837747Y16211639D01*
X796537Y16232244D01*
X781150Y16247631D01*
X760544Y16288843D01*
X760544Y16434397D01*
X781149Y16475608D01*
X796537Y16490996D01*
X837748Y16511601D01*
X983302Y16511601D01*
X1024513Y16490996D01*
X1051558Y16463950D01*
X1077066Y16450953D01*
X1101775Y16436520D01*
X1104797Y16436823D01*
X1107506Y16435442D01*
X1135783Y16439921D01*
X1164256Y16442768D01*
X1166524Y16444790D01*
X1169525Y16445265D01*
X1189758Y16465498D01*
X1211131Y16484547D01*
X1211778Y16487518D01*
X1213926Y16489665D01*
X1218402Y16517926D01*
X1224497Y16545901D01*
X1210026Y16690610D01*
X1331439Y16690610D01*
X1336527Y16674949D01*
X1336653Y16658481D01*
X1375358Y16542367D01*
X1389268Y16523524D01*
X1399902Y16502654D01*
X1690917Y16211639D01*
X1433039Y16211639D01*
X1373320Y16192235D01*
X1336412Y16141435D01*
X1336412Y16078643D01*
X1373320Y16027843D01*
X1433039Y16008439D01*
X1936201Y16008439D01*
X1958829Y16015792D01*
X1982326Y16019513D01*
X1988122Y16025310D01*
X1995920Y16027843D01*
X2009905Y16047093D01*
X2026727Y16063914D01*
X2028009Y16072011D01*
X2032828Y16078643D01*
X2032828Y16102434D01*
X2036550Y16125933D01*
X2032828Y16133238D01*
X2032828Y16141435D01*
X2018844Y16160682D01*
X2008043Y16181881D01*
X1770247Y16419677D01*
X2105534Y16419677D01*
X2109441Y16407650D01*
X2108568Y16395035D01*
X2147273Y16240216D01*
X2153278Y16230619D01*
X2154965Y16219421D01*
X2193670Y16142011D01*
X2205225Y16130279D01*
X2212702Y16115606D01*
X2251407Y16076901D01*
X2266080Y16069425D01*
X2277813Y16057869D01*
X2355222Y16019165D01*
X2378383Y16015677D01*
X2400658Y16008439D01*
X2478068Y16008439D01*
X2500344Y16015678D01*
X2523504Y16019165D01*
X2600914Y16057869D01*
X2612647Y16069426D01*
X2627319Y16076901D01*
X2666024Y16115606D01*
X2673500Y16130279D01*
X2685056Y16142011D01*
X2723761Y16219421D01*
X2725447Y16230618D01*
X2731454Y16240217D01*
X2770158Y16395036D01*
X2769283Y16407652D01*
X2773191Y16419677D01*
X2773191Y16613201D01*
X2769283Y16625227D01*
X2770158Y16637842D01*
X2756966Y16690610D01*
X2879629Y16690610D01*
X2884717Y16674949D01*
X2884843Y16658481D01*
X2923548Y16542367D01*
X2937458Y16523524D01*
X2948092Y16502654D01*
X3239107Y16211639D01*
X2981229Y16211639D01*
X2921510Y16192235D01*
X2884602Y16141435D01*
X2884602Y16078643D01*
X2921510Y16027843D01*
X2981229Y16008439D01*
X3484391Y16008439D01*
X3507019Y16015792D01*
X3530516Y16019513D01*
X3536312Y16025310D01*
X3544110Y16027843D01*
X3558095Y16047093D01*
X3574917Y16063914D01*
X3576199Y16072011D01*
X3581018Y16078643D01*
X3581018Y16102434D01*
X3584740Y16125933D01*
X3581018Y16133238D01*
X3581018Y16141435D01*
X3567034Y16160682D01*
X3556233Y16181881D01*
X3395847Y16342267D01*
X4311706Y16342267D01*
X4314872Y16332521D01*
X4313679Y16322342D01*
X4352383Y16128818D01*
X4355574Y16123134D01*
X4355624Y16116614D01*
X4394329Y16000500D01*
X4398735Y15994531D01*
X4399841Y15987192D01*
X4438546Y15909783D01*
X4443120Y15905139D01*
X4444883Y15898863D01*
X4522292Y15782748D01*
X4530334Y15776394D01*
X4534988Y15767262D01*
X4573693Y15728558D01*
X4629641Y15700052D01*
X4691660Y15709876D01*
X4736060Y15754277D01*
X4745883Y15816296D01*
X5590214Y15816296D01*
X5600036Y15754277D01*
X5644437Y15709876D01*
X5706455Y15700052D01*
X5762404Y15728558D01*
X5801109Y15767262D01*
X5805762Y15776394D01*
X5813805Y15782748D01*
X5891213Y15898863D01*
X5892975Y15905138D01*
X5897551Y15909783D01*
X5936256Y15987192D01*
X5937361Y15994531D01*
X5941768Y16000500D01*
X5980473Y16116614D01*
X5980522Y16123134D01*
X5983714Y16128818D01*
X6022419Y16322342D01*
X6021225Y16332521D01*
X6024392Y16342267D01*
X6024392Y16497086D01*
X6021225Y16506833D01*
X6022419Y16517011D01*
X5983714Y16710535D01*
X5980522Y16716220D01*
X5980473Y16722739D01*
X5941768Y16838853D01*
X5937361Y16844823D01*
X5936256Y16852161D01*
X5897551Y16929571D01*
X5892975Y16934216D01*
X5891213Y16940492D01*
X5813804Y17056605D01*
X5805763Y17062958D01*
X5801110Y17072090D01*
X5762405Y17110795D01*
X5706457Y17139302D01*
X5644438Y17129479D01*
X5600037Y17085078D01*
X5590214Y17023059D01*
X5618721Y16967111D01*
X5650313Y16935519D01*
X5718631Y16833040D01*
X5751280Y16767743D01*
X5785700Y16664483D01*
X5821192Y16487025D01*
X5821192Y16352328D01*
X5785700Y16174871D01*
X5751280Y16071611D01*
X5718632Y16006315D01*
X5650311Y15903833D01*
X5618722Y15872244D01*
X5590214Y15816296D01*
X4745883Y15816296D01*
X4717375Y15872244D01*
X4685783Y15903836D01*
X4617465Y16006315D01*
X4584816Y16071611D01*
X4551501Y16171556D01*
X4816119Y16171556D01*
X4844625Y16115607D01*
X4883329Y16076902D01*
X4904199Y16066268D01*
X4923044Y16052357D01*
X5039159Y16013652D01*
X5055627Y16013528D01*
X5071287Y16008439D01*
X5148696Y16008439D01*
X5164357Y16013528D01*
X5180824Y16013653D01*
X5296939Y16052357D01*
X5315782Y16066268D01*
X5336652Y16076901D01*
X5414062Y16154311D01*
X5421538Y16168984D01*
X5433094Y16180716D01*
X5471799Y16258126D01*
X5473485Y16269323D01*
X5479492Y16278922D01*
X5518196Y16433741D01*
X5517321Y16446357D01*
X5521229Y16458382D01*
X5521229Y16574496D01*
X5517321Y16586522D01*
X5518196Y16599137D01*
X5479492Y16753956D01*
X5473485Y16763555D01*
X5471799Y16774752D01*
X5433094Y16852161D01*
X5421537Y16863894D01*
X5414062Y16878566D01*
X5336652Y16955976D01*
X5315782Y16966610D01*
X5296939Y16980520D01*
X5180825Y17019225D01*
X5164357Y17019351D01*
X5148696Y17024439D01*
X5071287Y17024439D01*
X5055625Y17019351D01*
X5039158Y17019225D01*
X4923043Y16980520D01*
X4904199Y16966610D01*
X4883329Y16955975D01*
X4844625Y16917270D01*
X4816119Y16861321D01*
X4825943Y16799303D01*
X4870344Y16754902D01*
X4932363Y16745080D01*
X4988311Y16773588D01*
X5010055Y16795333D01*
X5087774Y16821239D01*
X5132209Y16821239D01*
X5209927Y16795333D01*
X5258719Y16746541D01*
X5285063Y16693854D01*
X5318029Y16561990D01*
X5318029Y16470888D01*
X5285063Y16339024D01*
X5258719Y16286336D01*
X5209927Y16237545D01*
X5132210Y16211639D01*
X5087773Y16211639D01*
X5010055Y16237545D01*
X4988311Y16259289D01*
X4932363Y16287797D01*
X4870344Y16277975D01*
X4825943Y16233574D01*
X4816119Y16171556D01*
X4551501Y16171556D01*
X4550396Y16174871D01*
X4514906Y16352327D01*
X4514906Y16487027D01*
X4550396Y16664483D01*
X4584816Y16767743D01*
X4617467Y16833045D01*
X4685784Y16935520D01*
X4717376Y16967111D01*
X4745883Y17023059D01*
X4736060Y17085078D01*
X4691659Y17129479D01*
X4629640Y17139302D01*
X4573692Y17110795D01*
X4534987Y17072090D01*
X4530334Y17062959D01*
X4522292Y17056605D01*
X4444884Y16940491D01*
X4443121Y16934217D01*
X4438546Y16929571D01*
X4399841Y16852161D01*
X4398735Y16844823D01*
X4394329Y16838853D01*
X4355624Y16722739D01*
X4355574Y16716220D01*
X4352383Y16710535D01*
X4313679Y16517011D01*
X4314872Y16506833D01*
X4311706Y16497086D01*
X4311706Y16342267D01*
X3395847Y16342267D01*
X3108735Y16629379D01*
X3082829Y16707098D01*
X3082829Y16744035D01*
X3103434Y16785246D01*
X3118822Y16800634D01*
X3160033Y16821239D01*
X3305587Y16821239D01*
X3346798Y16800634D01*
X3373843Y16773588D01*
X3429791Y16745080D01*
X3491810Y16754903D01*
X3536211Y16799303D01*
X3546035Y16861322D01*
X3517529Y16917270D01*
X3478825Y16955975D01*
X3464151Y16963452D01*
X3452419Y16975008D01*
X3375009Y17013713D01*
X3351848Y17017202D01*
X3329572Y17024439D01*
X3136048Y17024439D01*
X3113774Y17017202D01*
X3090611Y17013713D01*
X3013202Y16975008D01*
X3001469Y16963452D01*
X2986797Y16955976D01*
X2948092Y16917271D01*
X2940616Y16902599D01*
X2929060Y16890866D01*
X2890355Y16813457D01*
X2886866Y16790294D01*
X2879629Y16768020D01*
X2879629Y16690610D01*
X2756966Y16690610D01*
X2731454Y16792661D01*
X2725447Y16802260D01*
X2723761Y16813457D01*
X2685056Y16890866D01*
X2673499Y16902599D01*
X2666024Y16917271D01*
X2627319Y16955976D01*
X2612646Y16963452D01*
X2600914Y16975008D01*
X2523505Y17013713D01*
X2500341Y17017202D01*
X2478068Y17024439D01*
X2400658Y17024439D01*
X2378384Y17017202D01*
X2355221Y17013713D01*
X2277812Y16975008D01*
X2266079Y16963452D01*
X2251407Y16955976D01*
X2212702Y16917271D01*
X2205226Y16902599D01*
X2193670Y16890866D01*
X2154965Y16813457D01*
X2153278Y16802260D01*
X2147273Y16792662D01*
X2108568Y16637843D01*
X2109441Y16625229D01*
X2105534Y16613201D01*
X2105534Y16419677D01*
X1770247Y16419677D01*
X1560545Y16629379D01*
X1534639Y16707098D01*
X1534639Y16744035D01*
X1555244Y16785246D01*
X1570632Y16800634D01*
X1611843Y16821239D01*
X1757397Y16821239D01*
X1798608Y16800634D01*
X1825653Y16773588D01*
X1881601Y16745080D01*
X1943620Y16754903D01*
X1988021Y16799303D01*
X1997845Y16861322D01*
X1969339Y16917270D01*
X1930635Y16955975D01*
X1915961Y16963452D01*
X1904229Y16975008D01*
X1826819Y17013713D01*
X1803658Y17017202D01*
X1781382Y17024439D01*
X1587858Y17024439D01*
X1565584Y17017202D01*
X1542421Y17013713D01*
X1465012Y16975008D01*
X1453279Y16963452D01*
X1438607Y16955976D01*
X1399902Y16917271D01*
X1392426Y16902599D01*
X1380870Y16890866D01*
X1342165Y16813457D01*
X1338676Y16790294D01*
X1331439Y16768020D01*
X1331439Y16690610D01*
X1210026Y16690610D01*
X1185793Y16932948D01*
X1181324Y16943124D01*
X1181324Y16954235D01*
X1168984Y16971219D01*
X1160543Y16990440D01*
X1150947Y16996045D01*
X1144416Y17005035D01*
X1124448Y17011523D01*
X1106323Y17022110D01*
X1095266Y17021005D01*
X1084697Y17024439D01*
X697649Y17024439D01*
X637930Y17005035D01*
X601022Y16954235D01*
X601022Y16891443D01*
X637930Y16840643D01*
X697649Y16821239D01*
X992750Y16821239D01*
X1003393Y16714801D01*
X813763Y16714801D01*
X791489Y16707564D01*
X768326Y16704075D01*
X690917Y16665370D01*
X679184Y16653814D01*
X664512Y16646338D01*
X625807Y16607633D01*
X618331Y16592961D01*
X606775Y16581228D01*
X568070Y16503819D01*
X564581Y16480656D01*
X557344Y16458382D01*
X557344Y16264858D01*
X441230Y16264858D01*
X441230Y17255416D01*
X6140506Y17255416D01*
X6140506Y15583938D01*
G37*
G36*
X15156888Y9611639D02*
G01*
X15050243Y9611639D01*
X15009033Y9632244D01*
X14993646Y9647631D01*
X14973040Y9688843D01*
X14973040Y9873101D01*
X14993646Y9914313D01*
X15009033Y9929701D01*
X15050243Y9950305D01*
X15156888Y9950305D01*
X15156888Y9611639D01*
G37*
G36*
X3664283Y9929701D02*
G01*
X3679671Y9914313D01*
X3700276Y9873103D01*
X3700276Y9688842D01*
X3679671Y9647632D01*
X3664283Y9632244D01*
X3623074Y9611639D01*
X3554927Y9611639D01*
X3513717Y9632244D01*
X3498330Y9647631D01*
X3477724Y9688843D01*
X3477724Y9873101D01*
X3498330Y9914313D01*
X3513717Y9929701D01*
X3554927Y9950305D01*
X3623074Y9950305D01*
X3664283Y9929701D01*
G37*
G36*
X6125844Y9937473D02*
G01*
X6138677Y9911808D01*
X6138677Y9904905D01*
X5969998Y9938641D01*
X5993328Y9950305D01*
X6100180Y9950305D01*
X6125844Y9937473D01*
G37*
G36*
X8734607Y9929701D02*
G01*
X8749995Y9914313D01*
X8770600Y9873103D01*
X8770600Y9688842D01*
X8749995Y9647632D01*
X8734607Y9632244D01*
X8693398Y9611639D01*
X8625251Y9611639D01*
X8584041Y9632244D01*
X8568654Y9647631D01*
X8548048Y9688843D01*
X8548048Y9873101D01*
X8568654Y9914313D01*
X8584041Y9929701D01*
X8625251Y9950305D01*
X8693398Y9950305D01*
X8734607Y9929701D01*
G37*
G36*
X17140506Y9026364D02*
G01*
X1145846Y9026364D01*
X1145846Y10365638D01*
X1261960Y10365638D01*
X1278941Y10305185D01*
X1975627Y9260157D01*
X2024898Y9221231D01*
X2087639Y9218701D01*
X2139885Y9253532D01*
X2161681Y9312420D01*
X2144699Y9372872D01*
X2053254Y9510039D01*
X2229496Y9510039D01*
X2248900Y9450320D01*
X2299700Y9413412D01*
X2362492Y9413412D01*
X2413292Y9450320D01*
X2432696Y9510039D01*
X2432696Y9911806D01*
X2445529Y9937473D01*
X2471194Y9950305D01*
X2539341Y9950305D01*
X2565005Y9937474D01*
X2577839Y9911806D01*
X2577839Y9510039D01*
X2597243Y9450320D01*
X2648043Y9413412D01*
X2710835Y9413412D01*
X2761635Y9450320D01*
X2781039Y9510039D01*
X2781039Y9911806D01*
X2793872Y9937473D01*
X2819537Y9950305D01*
X2887684Y9950305D01*
X2926182Y9931057D01*
X2926182Y9510039D01*
X2945586Y9450320D01*
X2996386Y9413412D01*
X3059178Y9413412D01*
X3109978Y9450320D01*
X3129382Y9510039D01*
X3129382Y9664858D01*
X3274524Y9664858D01*
X3281761Y9642582D01*
X3285250Y9619421D01*
X3323955Y9542011D01*
X3335510Y9530279D01*
X3342987Y9515606D01*
X3381692Y9476901D01*
X3396365Y9469425D01*
X3408098Y9457869D01*
X3485507Y9419165D01*
X3508668Y9415677D01*
X3530943Y9408439D01*
X3647057Y9408439D01*
X3669333Y9415678D01*
X3692493Y9419165D01*
X3769903Y9457869D01*
X3781635Y9469425D01*
X3796309Y9476901D01*
X3835014Y9515606D01*
X3842490Y9530280D01*
X3854046Y9542012D01*
X3864977Y9563874D01*
X4011048Y9563874D01*
X4021342Y9501931D01*
X4066079Y9457869D01*
X4143488Y9419165D01*
X4166649Y9415677D01*
X4188924Y9408439D01*
X4343743Y9408439D01*
X4366019Y9415678D01*
X4389179Y9419165D01*
X4466589Y9457869D01*
X4478321Y9469425D01*
X4492995Y9476901D01*
X4531700Y9515606D01*
X4539176Y9530280D01*
X4541705Y9532848D01*
X4707852Y9532848D01*
X4715157Y9518510D01*
X4717675Y9502618D01*
X4729053Y9491240D01*
X4736360Y9476900D01*
X4775065Y9438196D01*
X4789403Y9430891D01*
X4800781Y9419513D01*
X4808877Y9418231D01*
X4815510Y9413412D01*
X4823708Y9413412D01*
X4831013Y9409690D01*
X4846905Y9412208D01*
X4862800Y9409690D01*
X4870105Y9413412D01*
X4878302Y9413412D01*
X4884935Y9418232D01*
X4893032Y9419514D01*
X4904408Y9430891D01*
X4918748Y9438197D01*
X4957452Y9476901D01*
X4964758Y9491241D01*
X4976135Y9502617D01*
X4977916Y9513863D01*
X5055016Y9513863D01*
X5072158Y9453457D01*
X5121533Y9414662D01*
X5184281Y9412298D01*
X5236434Y9447268D01*
X5369420Y9616523D01*
X5502406Y9447268D01*
X5554560Y9412298D01*
X5617307Y9414662D01*
X5666682Y9453457D01*
X5683824Y9513863D01*
X5662186Y9572810D01*
X5498630Y9780972D01*
X5559452Y9858382D01*
X5751630Y9858382D01*
X5753523Y9852555D01*
X5752322Y9846546D01*
X5763076Y9823153D01*
X5771034Y9798663D01*
X5775991Y9795062D01*
X5778551Y9789494D01*
X5801004Y9776889D01*
X5821834Y9761755D01*
X5827960Y9761755D01*
X5833304Y9758755D01*
X6138677Y9697680D01*
X6138677Y9650137D01*
X6125844Y9624472D01*
X6100180Y9611639D01*
X5993328Y9611639D01*
X5937371Y9639617D01*
X5875279Y9648968D01*
X5819550Y9620037D01*
X5791468Y9563874D01*
X5801762Y9501931D01*
X5846499Y9457869D01*
X5923908Y9419165D01*
X5947069Y9415677D01*
X5969344Y9408439D01*
X6124163Y9408439D01*
X6146439Y9415678D01*
X6169599Y9419165D01*
X6247009Y9457869D01*
X6247585Y9458438D01*
X6248385Y9458570D01*
X6269900Y9480416D01*
X6291746Y9501931D01*
X6291878Y9502731D01*
X6292447Y9503307D01*
X6295813Y9510039D01*
X6487020Y9510039D01*
X6506424Y9450320D01*
X6557224Y9413412D01*
X6620016Y9413412D01*
X6670816Y9450320D01*
X6690220Y9510039D01*
X6690220Y9911806D01*
X6703053Y9937473D01*
X6728718Y9950305D01*
X6796865Y9950305D01*
X6822529Y9937474D01*
X6835363Y9911806D01*
X6835363Y9510039D01*
X6854767Y9450320D01*
X6905567Y9413412D01*
X6968359Y9413412D01*
X7019159Y9450320D01*
X7038563Y9510039D01*
X7038563Y9911806D01*
X7051396Y9937473D01*
X7077061Y9950305D01*
X7145208Y9950305D01*
X7183706Y9931057D01*
X7183706Y9510039D01*
X7203110Y9450320D01*
X7253910Y9413412D01*
X7316702Y9413412D01*
X7367502Y9450320D01*
X7386906Y9510039D01*
X7386906Y10051905D01*
X7367502Y10111624D01*
X7316702Y10148532D01*
X7253910Y10148532D01*
X7233205Y10133490D01*
X7214627Y10142779D01*
X7191467Y10146267D01*
X7169191Y10153505D01*
X7053077Y10153505D01*
X7030802Y10146268D01*
X7007641Y10142779D01*
X6936963Y10107441D01*
X6866285Y10142779D01*
X6843125Y10146267D01*
X6820849Y10153505D01*
X6704734Y10153505D01*
X6682459Y10146268D01*
X6659298Y10142779D01*
X6581889Y10104075D01*
X6581311Y10103507D01*
X6580514Y10103374D01*
X6558998Y10081530D01*
X6537152Y10060013D01*
X6537019Y10059216D01*
X6536451Y10058638D01*
X6497746Y9981228D01*
X6494257Y9958068D01*
X6487020Y9935791D01*
X6487020Y9510039D01*
X6295813Y9510039D01*
X6331151Y9580717D01*
X6334639Y9603878D01*
X6341877Y9626153D01*
X6341877Y9935791D01*
X6334639Y9958067D01*
X6331151Y9981227D01*
X6292447Y10058637D01*
X6291878Y10059214D01*
X6291746Y10060013D01*
X6269900Y10081529D01*
X6248385Y10103374D01*
X6247585Y10103507D01*
X6247009Y10104075D01*
X6169599Y10142779D01*
X6146439Y10146267D01*
X6124163Y10153505D01*
X5969344Y10153505D01*
X5947069Y10146268D01*
X5923908Y10142779D01*
X5846499Y10104075D01*
X5845921Y10103507D01*
X5845124Y10103374D01*
X5823608Y10081530D01*
X5801762Y10060013D01*
X5801629Y10059216D01*
X5801061Y10058638D01*
X5762356Y9981228D01*
X5758867Y9958068D01*
X5751630Y9935791D01*
X5751630Y9858382D01*
X5559452Y9858382D01*
X5662186Y9989134D01*
X5683824Y10048081D01*
X5666682Y10108487D01*
X5617307Y10147282D01*
X5554560Y10149646D01*
X5502406Y10114676D01*
X5369420Y9945422D01*
X5236434Y10114676D01*
X5184281Y10149646D01*
X5121533Y10147282D01*
X5072158Y10108487D01*
X5055016Y10048081D01*
X5076654Y9989134D01*
X5240209Y9780972D01*
X5076654Y9572810D01*
X5055016Y9513863D01*
X4977916Y9513863D01*
X4978652Y9518510D01*
X4985959Y9532850D01*
X4983441Y9548744D01*
X4985959Y9564636D01*
X4978653Y9578975D01*
X4976136Y9594868D01*
X4964758Y9606246D01*
X4957453Y9620584D01*
X4918749Y9659289D01*
X4904409Y9666596D01*
X4893031Y9677974D01*
X4884934Y9679257D01*
X4878302Y9684075D01*
X4870106Y9684075D01*
X4862801Y9687797D01*
X4846905Y9685280D01*
X4831012Y9687797D01*
X4823707Y9684075D01*
X4815510Y9684075D01*
X4808878Y9679258D01*
X4800782Y9677975D01*
X4789403Y9666597D01*
X4775064Y9659290D01*
X4736359Y9620585D01*
X4729052Y9606246D01*
X4717674Y9594867D01*
X4715156Y9578974D01*
X4707852Y9564637D01*
X4710369Y9548744D01*
X4707852Y9532848D01*
X4541705Y9532848D01*
X4550732Y9542012D01*
X4589436Y9619422D01*
X4592924Y9642583D01*
X4600162Y9664858D01*
X4600162Y9897086D01*
X4592924Y9919362D01*
X4589436Y9942522D01*
X4550732Y10019932D01*
X4539176Y10031665D01*
X4531700Y10046338D01*
X4492995Y10085043D01*
X4478321Y10092520D01*
X4466589Y10104075D01*
X4389179Y10142779D01*
X4366019Y10146267D01*
X4343743Y10153505D01*
X4188924Y10153505D01*
X4166649Y10146268D01*
X4143488Y10142779D01*
X4066079Y10104075D01*
X4021342Y10060013D01*
X4011048Y9998070D01*
X4039130Y9941907D01*
X4094859Y9912976D01*
X4156951Y9922327D01*
X4212908Y9950305D01*
X4319760Y9950305D01*
X4360969Y9929701D01*
X4376357Y9914313D01*
X4396962Y9873103D01*
X4396962Y9688842D01*
X4376357Y9647632D01*
X4360969Y9632244D01*
X4319760Y9611639D01*
X4212908Y9611639D01*
X4156951Y9639617D01*
X4094859Y9648968D01*
X4039130Y9620037D01*
X4011048Y9563874D01*
X3864977Y9563874D01*
X3892750Y9619422D01*
X3896238Y9642583D01*
X3903476Y9664858D01*
X3903476Y9897086D01*
X3896238Y9919362D01*
X3892750Y9942522D01*
X3854046Y10019932D01*
X3842490Y10031665D01*
X3835014Y10046338D01*
X3796309Y10085043D01*
X3781635Y10092520D01*
X3769903Y10104075D01*
X3692493Y10142779D01*
X3669333Y10146267D01*
X3647057Y10153505D01*
X3530943Y10153505D01*
X3508668Y10146268D01*
X3485507Y10142779D01*
X3408098Y10104075D01*
X3396365Y10092520D01*
X3381692Y10085043D01*
X3342987Y10046338D01*
X3335510Y10031666D01*
X3323955Y10019933D01*
X3285250Y9942523D01*
X3281761Y9919363D01*
X3274524Y9897086D01*
X3274524Y9664858D01*
X3129382Y9664858D01*
X3129382Y10051905D01*
X3109978Y10111624D01*
X3059178Y10148532D01*
X2996386Y10148532D01*
X2975681Y10133490D01*
X2957103Y10142779D01*
X2933943Y10146267D01*
X2911667Y10153505D01*
X2795553Y10153505D01*
X2773278Y10146268D01*
X2750117Y10142779D01*
X2679439Y10107441D01*
X2608761Y10142779D01*
X2585601Y10146267D01*
X2563325Y10153505D01*
X2447210Y10153505D01*
X2424935Y10146268D01*
X2401774Y10142779D01*
X2324365Y10104075D01*
X2323787Y10103507D01*
X2322990Y10103374D01*
X2301474Y10081530D01*
X2279628Y10060013D01*
X2279495Y10059216D01*
X2278927Y10058638D01*
X2240222Y9981228D01*
X2236733Y9958068D01*
X2229496Y9935791D01*
X2229496Y9510039D01*
X2053254Y9510039D01*
X1547787Y10268240D01*
X7533300Y10268240D01*
X7540605Y10253902D01*
X7543123Y10238009D01*
X7554500Y10226632D01*
X7561807Y10212292D01*
X7600512Y10173587D01*
X7614851Y10166281D01*
X7626230Y10154902D01*
X7634326Y10153620D01*
X7640958Y10148802D01*
X7649155Y10148802D01*
X7649685Y10148532D01*
X7640958Y10148532D01*
X7590158Y10111624D01*
X7570754Y10051905D01*
X7570754Y9510039D01*
X7590158Y9450320D01*
X7640958Y9413412D01*
X7703750Y9413412D01*
X7754550Y9450320D01*
X7769038Y9494909D01*
X7881524Y9494909D01*
X7909605Y9438745D01*
X7965335Y9409814D01*
X8027427Y9419165D01*
X8104837Y9457869D01*
X8105414Y9458438D01*
X8106212Y9458570D01*
X8127727Y9480415D01*
X8149574Y9501931D01*
X8149706Y9502729D01*
X8150275Y9503306D01*
X8188980Y9580716D01*
X8192468Y9603877D01*
X8199706Y9626153D01*
X8199706Y9664858D01*
X8344848Y9664858D01*
X8352085Y9642582D01*
X8355574Y9619421D01*
X8394279Y9542011D01*
X8405834Y9530279D01*
X8413311Y9515606D01*
X8452016Y9476901D01*
X8466689Y9469425D01*
X8478422Y9457869D01*
X8555831Y9419165D01*
X8578992Y9415677D01*
X8601267Y9408439D01*
X8717381Y9408439D01*
X8739657Y9415678D01*
X8762817Y9419165D01*
X8840227Y9457869D01*
X8851959Y9469425D01*
X8866633Y9476901D01*
X8905338Y9515606D01*
X8912814Y9530280D01*
X8915343Y9532848D01*
X9081490Y9532848D01*
X9088795Y9518510D01*
X9091313Y9502618D01*
X9102691Y9491240D01*
X9109998Y9476900D01*
X9148703Y9438196D01*
X9163041Y9430891D01*
X9174419Y9419513D01*
X9182515Y9418231D01*
X9189148Y9413412D01*
X9197346Y9413412D01*
X9204651Y9409690D01*
X9220543Y9412208D01*
X9236438Y9409690D01*
X9243743Y9413412D01*
X9251940Y9413412D01*
X9258573Y9418232D01*
X9266670Y9419514D01*
X9278046Y9430891D01*
X9292386Y9438197D01*
X9331090Y9476901D01*
X9338396Y9491241D01*
X9349773Y9502617D01*
X9352290Y9518510D01*
X9359597Y9532850D01*
X9357079Y9548744D01*
X9359597Y9564636D01*
X9352291Y9578975D01*
X9349774Y9594868D01*
X9338396Y9606246D01*
X9331091Y9620584D01*
X9292387Y9659289D01*
X9278047Y9666596D01*
X9266669Y9677974D01*
X9258572Y9679257D01*
X9251940Y9684075D01*
X9243744Y9684075D01*
X9236439Y9687797D01*
X9220543Y9685280D01*
X9204650Y9687797D01*
X9197345Y9684075D01*
X9189148Y9684075D01*
X9182516Y9679258D01*
X9174420Y9677975D01*
X9163041Y9666597D01*
X9148702Y9659290D01*
X9109997Y9620585D01*
X9102690Y9606246D01*
X9091312Y9594867D01*
X9088794Y9578974D01*
X9081490Y9564637D01*
X9084007Y9548744D01*
X9081490Y9532848D01*
X8915343Y9532848D01*
X8924370Y9542012D01*
X8963074Y9619422D01*
X8966562Y9642583D01*
X8973800Y9664858D01*
X8973800Y9897086D01*
X8966562Y9919362D01*
X8963074Y9942522D01*
X8924370Y10019932D01*
X8920370Y10023993D01*
X9432491Y10023993D01*
X9587310Y9482127D01*
X9604019Y9457305D01*
X9619964Y9431983D01*
X9621469Y9431381D01*
X9622374Y9430037D01*
X9650475Y9419779D01*
X9678265Y9408663D01*
X9679836Y9409061D01*
X9681358Y9408505D01*
X9710110Y9416720D01*
X9739139Y9424064D01*
X9740177Y9425311D01*
X9741734Y9425755D01*
X9760167Y9449303D01*
X9779334Y9472306D01*
X9839820Y9623521D01*
X9900306Y9472306D01*
X9919450Y9449330D01*
X9937905Y9425755D01*
X9939463Y9425310D01*
X9940501Y9424065D01*
X9969509Y9416726D01*
X9998282Y9408505D01*
X9999803Y9409061D01*
X10001375Y9408663D01*
X10029150Y9419774D01*
X10057266Y9430037D01*
X10058171Y9431383D01*
X10059676Y9431984D01*
X10075610Y9457290D01*
X10092330Y9482127D01*
X10247149Y10023993D01*
X10283996Y10023993D01*
X10438815Y9482127D01*
X10455524Y9457305D01*
X10471469Y9431983D01*
X10472974Y9431381D01*
X10473879Y9430037D01*
X10501980Y9419779D01*
X10529770Y9408663D01*
X10531341Y9409061D01*
X10532863Y9408505D01*
X10561615Y9416720D01*
X10590644Y9424064D01*
X10591682Y9425311D01*
X10593239Y9425755D01*
X10611672Y9449303D01*
X10630839Y9472306D01*
X10691325Y9623521D01*
X10751811Y9472306D01*
X10770955Y9449330D01*
X10789410Y9425755D01*
X10790968Y9425310D01*
X10792006Y9424065D01*
X10821014Y9416726D01*
X10849787Y9408505D01*
X10851308Y9409061D01*
X10852880Y9408663D01*
X10880655Y9419774D01*
X10908771Y9430037D01*
X10909676Y9431383D01*
X10911181Y9431984D01*
X10927115Y9457290D01*
X10943835Y9482127D01*
X11098654Y10023993D01*
X11135501Y10023993D01*
X11290320Y9482127D01*
X11307029Y9457305D01*
X11322974Y9431983D01*
X11324479Y9431381D01*
X11325384Y9430037D01*
X11353485Y9419779D01*
X11381275Y9408663D01*
X11382846Y9409061D01*
X11384368Y9408505D01*
X11413120Y9416720D01*
X11442149Y9424064D01*
X11443187Y9425311D01*
X11444744Y9425755D01*
X11463177Y9449303D01*
X11482344Y9472306D01*
X11542830Y9623521D01*
X11603316Y9472306D01*
X11622460Y9449330D01*
X11640915Y9425755D01*
X11642473Y9425310D01*
X11643511Y9424065D01*
X11672519Y9416726D01*
X11701292Y9408505D01*
X11702813Y9409061D01*
X11704385Y9408663D01*
X11732160Y9419774D01*
X11760276Y9430037D01*
X11761181Y9431383D01*
X11762686Y9431984D01*
X11778620Y9457290D01*
X11795340Y9482127D01*
X11950159Y10023993D01*
X11947907Y10086745D01*
X11909201Y10136189D01*
X11848825Y10153439D01*
X11789841Y10131907D01*
X11754777Y10079817D01*
X11681604Y9823715D01*
X11637163Y9934819D01*
X11621173Y9954011D01*
X11607867Y9975141D01*
X11601417Y9977721D01*
X11596968Y9983061D01*
X11572750Y9989189D01*
X11549566Y9998462D01*
X11542830Y9996758D01*
X11536094Y9998462D01*
X11512902Y9989186D01*
X11488692Y9983060D01*
X11484244Y9977723D01*
X11477793Y9975142D01*
X11464483Y9954006D01*
X11448497Y9934819D01*
X11404055Y9823715D01*
X11330883Y10079817D01*
X11295819Y10131907D01*
X11236835Y10153439D01*
X11176458Y10136189D01*
X11137752Y10086745D01*
X11135501Y10023993D01*
X11098654Y10023993D01*
X11096402Y10086745D01*
X11057696Y10136189D01*
X10997320Y10153439D01*
X10938336Y10131907D01*
X10903272Y10079817D01*
X10830099Y9823715D01*
X10785658Y9934819D01*
X10769668Y9954011D01*
X10756362Y9975141D01*
X10749912Y9977721D01*
X10745463Y9983061D01*
X10721245Y9989189D01*
X10698061Y9998462D01*
X10691325Y9996758D01*
X10684589Y9998462D01*
X10661397Y9989186D01*
X10637187Y9983060D01*
X10632739Y9977723D01*
X10626288Y9975142D01*
X10612978Y9954006D01*
X10596992Y9934819D01*
X10552550Y9823715D01*
X10479378Y10079817D01*
X10444314Y10131907D01*
X10385330Y10153439D01*
X10324953Y10136189D01*
X10286247Y10086745D01*
X10283996Y10023993D01*
X10247149Y10023993D01*
X10244897Y10086745D01*
X10206191Y10136189D01*
X10145815Y10153439D01*
X10086831Y10131907D01*
X10051767Y10079817D01*
X9978594Y9823715D01*
X9934153Y9934819D01*
X9918163Y9954011D01*
X9904857Y9975141D01*
X9898407Y9977721D01*
X9893958Y9983061D01*
X9869740Y9989189D01*
X9846556Y9998462D01*
X9839820Y9996758D01*
X9833084Y9998462D01*
X9809892Y9989186D01*
X9785682Y9983060D01*
X9781234Y9977723D01*
X9774783Y9975142D01*
X9761473Y9954006D01*
X9745487Y9934819D01*
X9701045Y9823715D01*
X9627873Y10079817D01*
X9592809Y10131907D01*
X9533825Y10153439D01*
X9473448Y10136189D01*
X9434742Y10086745D01*
X9432491Y10023993D01*
X8920370Y10023993D01*
X8912814Y10031665D01*
X8905338Y10046338D01*
X8866633Y10085043D01*
X8851959Y10092520D01*
X8840227Y10104075D01*
X8762817Y10142779D01*
X8739657Y10146267D01*
X8717381Y10153505D01*
X8601267Y10153505D01*
X8578992Y10146268D01*
X8555831Y10142779D01*
X8478422Y10104075D01*
X8466689Y10092520D01*
X8452016Y10085043D01*
X8413311Y10046338D01*
X8405834Y10031666D01*
X8394279Y10019933D01*
X8355574Y9942523D01*
X8352085Y9919363D01*
X8344848Y9897086D01*
X8344848Y9664858D01*
X8199706Y9664858D01*
X8199706Y10322839D01*
X8185800Y10365638D01*
X11944475Y10365638D01*
X11961456Y10305185D01*
X12658142Y9260157D01*
X12707413Y9221231D01*
X12770154Y9218701D01*
X12822400Y9253532D01*
X12844196Y9312420D01*
X12827214Y9372872D01*
X12165370Y10365638D01*
X12795980Y10365638D01*
X12812961Y10305185D01*
X13509647Y9260157D01*
X13558918Y9221231D01*
X13621659Y9218701D01*
X13673905Y9253532D01*
X13695701Y9312420D01*
X13678719Y9372872D01*
X13572068Y9532848D01*
X13726063Y9532848D01*
X13733368Y9518510D01*
X13735886Y9502618D01*
X13747264Y9491240D01*
X13754571Y9476900D01*
X13793276Y9438196D01*
X13807614Y9430891D01*
X13818992Y9419513D01*
X13827088Y9418231D01*
X13833721Y9413412D01*
X13841919Y9413412D01*
X13849224Y9409690D01*
X13865116Y9412208D01*
X13881011Y9409690D01*
X13888316Y9413412D01*
X13896513Y9413412D01*
X13903146Y9418232D01*
X13911243Y9419514D01*
X13922619Y9430891D01*
X13936959Y9438197D01*
X13975663Y9476901D01*
X13982969Y9491241D01*
X13994346Y9502617D01*
X13996863Y9518510D01*
X14004170Y9532850D01*
X14001652Y9548744D01*
X14004170Y9564636D01*
X13996864Y9578975D01*
X13994347Y9594868D01*
X13982969Y9606246D01*
X13975664Y9620584D01*
X13970095Y9626153D01*
X14111860Y9626153D01*
X14119098Y9603877D01*
X14122586Y9580717D01*
X14161290Y9503307D01*
X14161858Y9502731D01*
X14161991Y9501931D01*
X14183836Y9480416D01*
X14205352Y9458570D01*
X14206151Y9458438D01*
X14206728Y9457869D01*
X14284138Y9419165D01*
X14307298Y9415677D01*
X14329574Y9408439D01*
X14484393Y9408439D01*
X14506669Y9415678D01*
X14529829Y9419165D01*
X14607239Y9457869D01*
X14651976Y9501931D01*
X14662269Y9563874D01*
X14634188Y9620037D01*
X14578458Y9648969D01*
X14516366Y9639617D01*
X14460409Y9611639D01*
X14353557Y9611639D01*
X14327892Y9624472D01*
X14317375Y9645506D01*
X14327051Y9664858D01*
X14769840Y9664858D01*
X14777077Y9642582D01*
X14780566Y9619421D01*
X14819271Y9542011D01*
X14830826Y9530279D01*
X14838303Y9515606D01*
X14877008Y9476901D01*
X14891681Y9469425D01*
X14903414Y9457869D01*
X14980823Y9419165D01*
X15003984Y9415677D01*
X15026259Y9408439D01*
X15156888Y9408439D01*
X15156888Y9239105D01*
X15176292Y9179386D01*
X15227092Y9142478D01*
X15289884Y9142478D01*
X15340684Y9179386D01*
X15360088Y9239105D01*
X15360088Y9478643D01*
X15432794Y9478643D01*
X15469702Y9427843D01*
X15529421Y9408439D01*
X15606830Y9408439D01*
X15629106Y9415678D01*
X15652266Y9419165D01*
X15729676Y9457869D01*
X15730253Y9458438D01*
X15731051Y9458570D01*
X15752566Y9480415D01*
X15774413Y9501931D01*
X15774545Y9502729D01*
X15775114Y9503306D01*
X15813819Y9580716D01*
X15817307Y9603877D01*
X15824545Y9626153D01*
X15824545Y9950305D01*
X15839059Y9950305D01*
X15898778Y9969709D01*
X15916468Y9994059D01*
X15934159Y9969709D01*
X15993878Y9950305D01*
X16085802Y9950305D01*
X16085802Y9650138D01*
X16072968Y9624472D01*
X16047304Y9611639D01*
X15993878Y9611639D01*
X15934159Y9592235D01*
X15897251Y9541435D01*
X15897251Y9478643D01*
X15934159Y9427843D01*
X15993878Y9408439D01*
X16071287Y9408439D01*
X16093563Y9415678D01*
X16116723Y9419165D01*
X16194133Y9457869D01*
X16194710Y9458438D01*
X16195508Y9458570D01*
X16217023Y9480415D01*
X16238870Y9501931D01*
X16239002Y9502729D01*
X16239571Y9503306D01*
X16242938Y9510039D01*
X16472849Y9510039D01*
X16492253Y9450320D01*
X16543053Y9413412D01*
X16605845Y9413412D01*
X16656645Y9450320D01*
X16676049Y9510039D01*
X16676049Y9911806D01*
X16688882Y9937473D01*
X16714547Y9950305D01*
X16782694Y9950305D01*
X16821192Y9931057D01*
X16821192Y9510039D01*
X16840596Y9450320D01*
X16891396Y9413412D01*
X16954188Y9413412D01*
X17004988Y9450320D01*
X17024392Y9510039D01*
X17024392Y10322839D01*
X17004988Y10382558D01*
X16954188Y10419466D01*
X16891396Y10419466D01*
X16840596Y10382558D01*
X16821192Y10322839D01*
X16821192Y10148789D01*
X16806677Y10153505D01*
X16690563Y10153505D01*
X16668288Y10146268D01*
X16645127Y10142779D01*
X16567718Y10104075D01*
X16567140Y10103507D01*
X16566343Y10103374D01*
X16544827Y10081530D01*
X16522981Y10060013D01*
X16522848Y10059216D01*
X16522280Y10058638D01*
X16483575Y9981228D01*
X16480086Y9958068D01*
X16472849Y9935791D01*
X16472849Y9510039D01*
X16242938Y9510039D01*
X16278276Y9580716D01*
X16281764Y9603877D01*
X16289002Y9626153D01*
X16289002Y9950305D01*
X16303516Y9950305D01*
X16363235Y9969709D01*
X16400143Y10020509D01*
X16400143Y10083301D01*
X16363235Y10134101D01*
X16303516Y10153505D01*
X16289002Y10153505D01*
X16289002Y10322839D01*
X16269598Y10382558D01*
X16218798Y10419466D01*
X16156006Y10419466D01*
X16105206Y10382558D01*
X16085802Y10322839D01*
X16085802Y10153505D01*
X15993878Y10153505D01*
X15934159Y10134101D01*
X15916468Y10109752D01*
X15898778Y10134101D01*
X15839059Y10153505D01*
X15824545Y10153505D01*
X15824545Y10322839D01*
X15805141Y10382558D01*
X15754341Y10419466D01*
X15691549Y10419466D01*
X15640749Y10382558D01*
X15621345Y10322839D01*
X15621345Y10153505D01*
X15529421Y10153505D01*
X15469702Y10134101D01*
X15432794Y10083301D01*
X15432794Y10020509D01*
X15469702Y9969709D01*
X15529421Y9950305D01*
X15621345Y9950305D01*
X15621345Y9650138D01*
X15608511Y9624472D01*
X15582847Y9611639D01*
X15529421Y9611639D01*
X15469702Y9592235D01*
X15432794Y9541435D01*
X15432794Y9478643D01*
X15360088Y9478643D01*
X15360088Y10051905D01*
X15340684Y10111624D01*
X15289884Y10148532D01*
X15227092Y10148532D01*
X15220433Y10143695D01*
X15203354Y10146267D01*
X15181078Y10153505D01*
X15026259Y10153505D01*
X15003984Y10146268D01*
X14980823Y10142779D01*
X14903414Y10104075D01*
X14891681Y10092520D01*
X14877008Y10085043D01*
X14838303Y10046338D01*
X14830826Y10031666D01*
X14819271Y10019933D01*
X14780566Y9942523D01*
X14777077Y9919363D01*
X14769840Y9897086D01*
X14769840Y9664858D01*
X14327051Y9664858D01*
X14327891Y9666539D01*
X14353559Y9679372D01*
X14445688Y9679372D01*
X14467964Y9686610D01*
X14491125Y9690098D01*
X14568535Y9728803D01*
X14569112Y9729372D01*
X14569910Y9729504D01*
X14591426Y9751351D01*
X14613271Y9772866D01*
X14613403Y9773664D01*
X14613972Y9774241D01*
X14652676Y9851650D01*
X14656164Y9874812D01*
X14663402Y9897086D01*
X14663402Y9935791D01*
X14656164Y9958067D01*
X14652676Y9981227D01*
X14613972Y10058637D01*
X14613403Y10059214D01*
X14613271Y10060013D01*
X14591425Y10081529D01*
X14569910Y10103374D01*
X14569110Y10103507D01*
X14568534Y10104075D01*
X14491124Y10142779D01*
X14467964Y10146267D01*
X14445688Y10153505D01*
X14329574Y10153505D01*
X14307298Y10146268D01*
X14284138Y10142779D01*
X14206728Y10104075D01*
X14161991Y10060013D01*
X14151697Y9998071D01*
X14179778Y9941907D01*
X14235508Y9912976D01*
X14297600Y9922327D01*
X14353557Y9950305D01*
X14421705Y9950305D01*
X14447369Y9937473D01*
X14457886Y9916439D01*
X14447369Y9895406D01*
X14421703Y9882572D01*
X14329574Y9882572D01*
X14307297Y9875335D01*
X14284137Y9871846D01*
X14206727Y9833141D01*
X14206151Y9832574D01*
X14205352Y9832441D01*
X14183802Y9810562D01*
X14161991Y9789078D01*
X14161858Y9788282D01*
X14161290Y9787704D01*
X14122586Y9710294D01*
X14119098Y9687135D01*
X14111860Y9664858D01*
X14111860Y9626153D01*
X13970095Y9626153D01*
X13936960Y9659289D01*
X13922620Y9666596D01*
X13911242Y9677974D01*
X13903145Y9679257D01*
X13896513Y9684075D01*
X13888317Y9684075D01*
X13881012Y9687797D01*
X13865116Y9685280D01*
X13849223Y9687797D01*
X13841918Y9684075D01*
X13833721Y9684075D01*
X13827089Y9679258D01*
X13818993Y9677975D01*
X13807614Y9666597D01*
X13793275Y9659290D01*
X13754570Y9620585D01*
X13747263Y9606246D01*
X13735885Y9594867D01*
X13733367Y9578974D01*
X13726063Y9564637D01*
X13728580Y9548744D01*
X13726063Y9532848D01*
X13572068Y9532848D01*
X13288232Y9958602D01*
X13726063Y9958602D01*
X13733368Y9944264D01*
X13735886Y9928371D01*
X13747263Y9916994D01*
X13754570Y9902654D01*
X13793275Y9863949D01*
X13807614Y9856643D01*
X13818993Y9845264D01*
X13827089Y9843982D01*
X13833721Y9839164D01*
X13841918Y9839164D01*
X13849223Y9835442D01*
X13865116Y9837960D01*
X13881012Y9835442D01*
X13888317Y9839164D01*
X13896513Y9839164D01*
X13903145Y9843983D01*
X13911242Y9845265D01*
X13922620Y9856644D01*
X13936960Y9863950D01*
X13975664Y9902655D01*
X13982969Y9916995D01*
X13994346Y9928370D01*
X13996863Y9944263D01*
X14004170Y9958603D01*
X14001652Y9974496D01*
X14004170Y9990389D01*
X13996863Y10004730D01*
X13994346Y10020622D01*
X13982969Y10031998D01*
X13975664Y10046337D01*
X13936960Y10085042D01*
X13922620Y10092349D01*
X13911242Y10103727D01*
X13903145Y10105010D01*
X13896513Y10109828D01*
X13888317Y10109828D01*
X13881012Y10113550D01*
X13865116Y10111033D01*
X13849223Y10113550D01*
X13841918Y10109828D01*
X13833721Y10109828D01*
X13827089Y10105011D01*
X13818993Y10103728D01*
X13807614Y10092350D01*
X13793275Y10085043D01*
X13754570Y10046338D01*
X13747263Y10031999D01*
X13735886Y10020621D01*
X13733368Y10004729D01*
X13726063Y9990390D01*
X13728580Y9974496D01*
X13726063Y9958602D01*
X13288232Y9958602D01*
X12982033Y10417901D01*
X12932762Y10456826D01*
X12870021Y10459357D01*
X12817775Y10424526D01*
X12795980Y10365638D01*
X12165370Y10365638D01*
X12130528Y10417901D01*
X12081257Y10456826D01*
X12018516Y10459357D01*
X11966270Y10424526D01*
X11944475Y10365638D01*
X8185800Y10365638D01*
X8180302Y10382558D01*
X8129502Y10419466D01*
X8066710Y10419466D01*
X8015910Y10382558D01*
X7996506Y10322839D01*
X7996506Y9650138D01*
X7983672Y9624472D01*
X7936555Y9600913D01*
X7891818Y9556851D01*
X7881524Y9494909D01*
X7769038Y9494909D01*
X7773954Y9510039D01*
X7773954Y10051905D01*
X7754550Y10111624D01*
X7703750Y10148532D01*
X7695024Y10148532D01*
X7695554Y10148802D01*
X7703750Y10148802D01*
X7710382Y10153621D01*
X7718479Y10154903D01*
X7729857Y10166282D01*
X7744197Y10173588D01*
X7782901Y10212293D01*
X7790206Y10226633D01*
X7801583Y10238008D01*
X7804100Y10253901D01*
X7811407Y10268241D01*
X7808889Y10284134D01*
X7811407Y10300027D01*
X7804100Y10314368D01*
X7801583Y10330260D01*
X7790206Y10341636D01*
X7782901Y10355975D01*
X7744197Y10394680D01*
X7729857Y10401987D01*
X7718479Y10413365D01*
X7710382Y10414648D01*
X7703750Y10419466D01*
X7695554Y10419466D01*
X7688249Y10423188D01*
X7672353Y10420671D01*
X7656460Y10423188D01*
X7649155Y10419466D01*
X7640958Y10419466D01*
X7634326Y10414649D01*
X7626230Y10413366D01*
X7614851Y10401988D01*
X7600512Y10394681D01*
X7561807Y10355976D01*
X7554500Y10341637D01*
X7543123Y10330259D01*
X7540605Y10314367D01*
X7533300Y10300028D01*
X7535817Y10284134D01*
X7533300Y10268240D01*
X1547787Y10268240D01*
X1448013Y10417901D01*
X1398742Y10456826D01*
X1336001Y10459357D01*
X1283755Y10424526D01*
X1261960Y10365638D01*
X1145846Y10365638D01*
X1145846Y10575471D01*
X17140506Y10575471D01*
X17140506Y9026364D01*
G37*
D11*
G36*
X9317435Y16459504D02*
G01*
X9335895Y16422584D01*
X9335895Y16404280D01*
X9096665Y16452126D01*
X9100355Y16459504D01*
X9137275Y16477964D01*
X9280515Y16477964D01*
X9317435Y16459504D01*
G37*
G36*
X10351895Y16528764D02*
G01*
X10102475Y16528764D01*
X10046127Y16556938D01*
X10024469Y16578596D01*
X9996295Y16634944D01*
X9996295Y16727384D01*
X10024469Y16783732D01*
X10046127Y16805390D01*
X10102475Y16833564D01*
X10351895Y16833564D01*
X10351895Y16528764D01*
G37*
G36*
X7051492Y16325564D02*
G01*
X6895898Y16325564D01*
X6973695Y16558954D01*
X7051492Y16325564D01*
G37*
G36*
X10758295Y15614364D02*
G01*
X6342626Y15614364D01*
X6342626Y15862412D01*
X6495026Y15862412D01*
X6531513Y15800853D01*
X6595489Y15768792D01*
X6666643Y15776410D01*
X6722383Y15821286D01*
X6738578Y15853603D01*
X6811232Y16071564D01*
X7136158Y16071564D01*
X7208812Y15853603D01*
X7249651Y15794841D01*
X7315776Y15767486D01*
X7386194Y15780223D01*
X7438546Y15829009D01*
X7456212Y15898354D01*
X7449778Y15933925D01*
X7443212Y15953624D01*
X7507419Y15953624D01*
X7513171Y15927180D01*
X7515102Y15900182D01*
X7520659Y15892759D01*
X7522630Y15883699D01*
X7544292Y15854761D01*
X7595092Y15803961D01*
X7603230Y15799517D01*
X7608787Y15792095D01*
X7621712Y15787275D01*
X7632137Y15778241D01*
X7645791Y15776278D01*
X7657899Y15769667D01*
X7667147Y15770329D01*
X7675835Y15767088D01*
X7689314Y15770021D01*
X7702969Y15768057D01*
X7715515Y15773787D01*
X7729277Y15774771D01*
X7736700Y15780329D01*
X7745760Y15782299D01*
X7763918Y15795892D01*
X7768062Y15797784D01*
X7769559Y15800115D01*
X7774698Y15803961D01*
X7825498Y15854761D01*
X7829942Y15862902D01*
X7837363Y15868456D01*
X7846819Y15893811D01*
X7859792Y15917568D01*
X7859130Y15926817D01*
X7862371Y15935504D01*
X7856618Y15961949D01*
X7854688Y15988946D01*
X7849130Y15996370D01*
X7847160Y16005429D01*
X7825498Y16034367D01*
X7774698Y16085167D01*
X7766557Y16089612D01*
X7761003Y16097032D01*
X7748079Y16101853D01*
X7737653Y16110887D01*
X7723998Y16112851D01*
X7711891Y16119461D01*
X7702642Y16118800D01*
X7693955Y16122040D01*
X7680475Y16119108D01*
X7666821Y16121071D01*
X7654274Y16115342D01*
X7640513Y16114357D01*
X7633089Y16108800D01*
X7624030Y16106829D01*
X7605871Y16093237D01*
X7601728Y16091344D01*
X7600230Y16089014D01*
X7595092Y16085167D01*
X7544292Y16034367D01*
X7539847Y16026229D01*
X7532426Y16020672D01*
X7522968Y15995314D01*
X7509998Y15971560D01*
X7510659Y15962312D01*
X7507419Y15953624D01*
X7443212Y15953624D01*
X7228528Y16597675D01*
X7964504Y16597675D01*
X7971694Y16562249D01*
X8225694Y15851050D01*
X8242614Y15827776D01*
X8256756Y15802716D01*
X8263372Y15799223D01*
X8267773Y15793169D01*
X8294594Y15782736D01*
X8320036Y15769302D01*
X8327490Y15769940D01*
X8334465Y15767227D01*
X8362666Y15772951D01*
X8391335Y15775404D01*
X8397262Y15779972D01*
X8404596Y15781460D01*
X8425221Y15801517D01*
X8448018Y15819084D01*
X8453011Y15828541D01*
X8455898Y15831348D01*
X8457000Y15836097D01*
X8464896Y15851049D01*
X8643437Y16350964D01*
X8827895Y16350964D01*
X8837038Y16319825D01*
X8844468Y16288235D01*
X8847046Y16285742D01*
X8848056Y16282303D01*
X8872573Y16261058D01*
X8895912Y16238491D01*
X8900485Y16236873D01*
X8902137Y16235441D01*
X8906165Y16234862D01*
X8929988Y16226430D01*
X9335895Y16145249D01*
X9335895Y16076144D01*
X9317435Y16039224D01*
X9280515Y16020764D01*
X9137275Y16020764D01*
X9062491Y16058156D01*
X8992063Y16070830D01*
X8925962Y16043416D01*
X8885176Y15984616D01*
X8882654Y15913101D01*
X8919197Y15851574D01*
X8948899Y15830972D01*
X9050499Y15780172D01*
X9061828Y15778134D01*
X9071515Y15771908D01*
X9107295Y15766764D01*
X9310495Y15766764D01*
X9321540Y15770008D01*
X9332988Y15768771D01*
X9367291Y15780172D01*
X9468891Y15830972D01*
X9485536Y15846456D01*
X9505085Y15858066D01*
X9517935Y15876593D01*
X9521287Y15879710D01*
X9521981Y15882426D01*
X9525687Y15887768D01*
X9576487Y15989368D01*
X9578525Y16000698D01*
X9584751Y16010384D01*
X9589895Y16046164D01*
X9589895Y16452564D01*
X9586651Y16463610D01*
X9587888Y16475057D01*
X9576487Y16509360D01*
X9528685Y16604964D01*
X9742295Y16604964D01*
X9745538Y16593919D01*
X9744302Y16582471D01*
X9755703Y16548168D01*
X9806503Y16446568D01*
X9808123Y16444826D01*
X9808630Y16442499D01*
X9830292Y16413561D01*
X9881092Y16362761D01*
X9883181Y16361620D01*
X9884397Y16359574D01*
X9914099Y16338972D01*
X9996927Y16297558D01*
X9765253Y15966594D01*
X9742395Y15898783D01*
X9759826Y15829379D01*
X9812014Y15780416D01*
X9882387Y15767441D01*
X9948605Y15794572D01*
X9973337Y15820934D01*
X10291018Y16274764D01*
X10351895Y16274764D01*
X10351895Y15893764D01*
X10372056Y15825103D01*
X10426137Y15778241D01*
X10496969Y15768057D01*
X10562062Y15797784D01*
X10600751Y15857984D01*
X10605895Y15893764D01*
X10605895Y16960564D01*
X10603282Y16969462D01*
X10604602Y16978638D01*
X10593359Y17003257D01*
X10585734Y17029225D01*
X10578726Y17035297D01*
X10574875Y17043731D01*
X10552106Y17058364D01*
X10531653Y17076087D01*
X10522476Y17077407D01*
X10514675Y17082420D01*
X10478895Y17087564D01*
X10072495Y17087564D01*
X10061449Y17084321D01*
X10050002Y17085557D01*
X10015699Y17074156D01*
X9914099Y17023356D01*
X9912356Y17021736D01*
X9910030Y17021229D01*
X9881092Y16999567D01*
X9830292Y16948767D01*
X9829150Y16946678D01*
X9827105Y16945462D01*
X9806503Y16915760D01*
X9755703Y16814160D01*
X9753664Y16802831D01*
X9747439Y16793144D01*
X9742295Y16757364D01*
X9742295Y16604964D01*
X9528685Y16604964D01*
X9525687Y16610960D01*
X9510202Y16627607D01*
X9498593Y16647154D01*
X9480066Y16660005D01*
X9476949Y16663356D01*
X9474233Y16664051D01*
X9468891Y16667756D01*
X9367291Y16718556D01*
X9355961Y16720595D01*
X9346275Y16726820D01*
X9310495Y16731964D01*
X9107295Y16731964D01*
X9096249Y16728721D01*
X9084802Y16729957D01*
X9050499Y16718556D01*
X8948899Y16667756D01*
X8932252Y16652272D01*
X8912705Y16640662D01*
X8899854Y16622136D01*
X8896503Y16619018D01*
X8895808Y16616303D01*
X8892103Y16610960D01*
X8841303Y16509360D01*
X8839264Y16498031D01*
X8833039Y16488344D01*
X8827895Y16452564D01*
X8827895Y16350964D01*
X8643437Y16350964D01*
X8718896Y16562249D01*
X8723003Y16633691D01*
X8687834Y16696012D01*
X8624554Y16729426D01*
X8553255Y16723324D01*
X8496572Y16679644D01*
X8479694Y16647678D01*
X8345295Y16271362D01*
X8210896Y16647679D01*
X8168817Y16705559D01*
X8102125Y16731501D01*
X8031994Y16717269D01*
X7980692Y16667380D01*
X7964504Y16597675D01*
X7228528Y16597675D01*
X7094178Y17000725D01*
X7076270Y17026492D01*
X7060277Y17053475D01*
X7056042Y17055598D01*
X7053339Y17059487D01*
X7024351Y17071479D01*
X6996301Y17085536D01*
X6991590Y17085032D01*
X6987214Y17086842D01*
X6956340Y17081258D01*
X6925147Y17077918D01*
X6921458Y17074949D01*
X6916796Y17074105D01*
X6893841Y17052715D01*
X6869407Y17033042D01*
X6866494Y17027230D01*
X6864444Y17025319D01*
X6863314Y17020884D01*
X6853212Y17000725D01*
X6497612Y15933925D01*
X6495026Y15862412D01*
X6342626Y15862412D01*
X6342626Y17239964D01*
X10758295Y17239964D01*
X10758295Y15614364D01*
G37*
D12*
G36*
X15607700Y18146821D02*
G01*
X15466257Y18146821D01*
X15320534Y18195395D01*
X15229049Y18286880D01*
X15179654Y18385671D01*
X15117843Y18632916D01*
X15117843Y18803727D01*
X15179654Y19050972D01*
X15229049Y19149763D01*
X15320534Y19241248D01*
X15466257Y19289821D01*
X15607700Y19289821D01*
X15607700Y18146821D01*
G37*
G36*
X17136785Y19251186D02*
G01*
X17222756Y19165214D01*
X17276843Y18948870D01*
X17276843Y18487773D01*
X17222756Y18271429D01*
X17136785Y18185457D01*
X17059515Y18146821D01*
X16859170Y18146821D01*
X16781901Y18185456D01*
X16695928Y18271429D01*
X16641843Y18487772D01*
X16641843Y18948871D01*
X16695928Y19165214D01*
X16781901Y19251187D01*
X16859170Y19289821D01*
X17059515Y19289821D01*
X17136785Y19251186D01*
G37*
G36*
X9366557Y18872535D02*
G01*
X9021457Y18872535D01*
X8944188Y18911170D01*
X8915334Y18940024D01*
X8876700Y19017293D01*
X8876700Y19145064D01*
X8915335Y19222334D01*
X8944187Y19251187D01*
X9021456Y19289821D01*
X9366557Y19289821D01*
X9366557Y18872535D01*
G37*
G36*
X19544699Y17548107D02*
G01*
X512843Y17548107D01*
X512843Y18246607D01*
X730557Y18246607D01*
X730879Y18245196D01*
X730578Y18243779D01*
X740295Y18203938D01*
X749422Y18163952D01*
X750324Y18162820D01*
X750668Y18161413D01*
X823240Y18016270D01*
X842655Y17992652D01*
X858924Y17966760D01*
X931496Y17894188D01*
X957388Y17877919D01*
X981006Y17858504D01*
X1126148Y17785932D01*
X1127554Y17785589D01*
X1128687Y17784686D01*
X1168639Y17775568D01*
X1208514Y17765841D01*
X1209932Y17766143D01*
X1211342Y17765821D01*
X1574200Y17765821D01*
X1575612Y17766144D01*
X1577029Y17765842D01*
X1616846Y17775555D01*
X1656855Y17784686D01*
X1657988Y17785591D01*
X1659394Y17785933D01*
X1804536Y17858504D01*
X1828154Y17877920D01*
X1854046Y17894188D01*
X1926618Y17966760D01*
X1971724Y18038545D01*
X1981216Y18122793D01*
X2183183Y18122793D01*
X2192675Y18038546D01*
X2237781Y17966760D01*
X2310353Y17894188D01*
X2311578Y17893418D01*
X2312368Y17892202D01*
X2347403Y17870908D01*
X2382138Y17849082D01*
X2383579Y17848920D01*
X2384816Y17848168D01*
X2602530Y17775597D01*
X2632959Y17772626D01*
X2662771Y17765821D01*
X2807914Y17765821D01*
X2837725Y17772626D01*
X2868155Y17775597D01*
X3085870Y17848168D01*
X3087107Y17848920D01*
X3088546Y17849082D01*
X3123251Y17870889D01*
X3158317Y17892202D01*
X3159106Y17893418D01*
X3160332Y17894188D01*
X3305475Y18039331D01*
X3321742Y18065221D01*
X3341160Y18088841D01*
X3413731Y18233985D01*
X3418690Y18254316D01*
X3428154Y18272975D01*
X3483536Y18494502D01*
X3783333Y18494502D01*
X3820118Y18418117D01*
X3886402Y18365257D01*
X3969057Y18346392D01*
X5130199Y18346392D01*
X5212854Y18365257D01*
X5279138Y18418117D01*
X5315923Y18494502D01*
X5315923Y18579282D01*
X5279138Y18655667D01*
X5212854Y18708527D01*
X5130199Y18727392D01*
X3969057Y18727392D01*
X3886402Y18708527D01*
X3820118Y18655667D01*
X3783333Y18579282D01*
X3783333Y18494502D01*
X3483536Y18494502D01*
X3500726Y18563261D01*
X3501207Y18586653D01*
X3506414Y18609464D01*
X3506414Y18827178D01*
X3501207Y18849990D01*
X3500726Y18873381D01*
X3457848Y19044892D01*
X5592843Y19044892D01*
X5599647Y19015081D01*
X5602619Y18984651D01*
X5675190Y18766936D01*
X5675941Y18765699D01*
X5676104Y18764260D01*
X5697910Y18729555D01*
X5719224Y18694489D01*
X5720439Y18693700D01*
X5721210Y18692474D01*
X6266863Y18146821D01*
X5783343Y18146821D01*
X5700688Y18127956D01*
X5634404Y18075096D01*
X5597619Y17998711D01*
X5597619Y17913931D01*
X5634404Y17837546D01*
X5700688Y17784686D01*
X5783343Y17765821D01*
X6726771Y17765821D01*
X6737331Y17768232D01*
X6748100Y17767018D01*
X6778269Y17777575D01*
X6809426Y17784686D01*
X6817896Y17791442D01*
X6828124Y17795020D01*
X6850725Y17817622D01*
X6875710Y17837546D01*
X6880410Y17847307D01*
X6888072Y17854968D01*
X6898629Y17885139D01*
X6912495Y17913931D01*
X6912495Y17924764D01*
X6916074Y17934992D01*
X6912495Y17966755D01*
X6912495Y17998711D01*
X6907794Y18008473D01*
X6906581Y18019239D01*
X6889577Y18046301D01*
X6875710Y18075096D01*
X6867239Y18081852D01*
X6861475Y18091025D01*
X6705893Y18246607D01*
X7044272Y18246607D01*
X7044594Y18245196D01*
X7044293Y18243779D01*
X7054010Y18203938D01*
X7063137Y18163952D01*
X7064039Y18162820D01*
X7064383Y18161413D01*
X7136955Y18016270D01*
X7156370Y17992652D01*
X7172639Y17966760D01*
X7245211Y17894188D01*
X7271103Y17877919D01*
X7294721Y17858504D01*
X7439863Y17785932D01*
X7441269Y17785589D01*
X7442402Y17784686D01*
X7482354Y17775568D01*
X7522229Y17765841D01*
X7523647Y17766143D01*
X7525057Y17765821D01*
X7960486Y17765821D01*
X7961897Y17766144D01*
X7963314Y17765842D01*
X8003155Y17775560D01*
X8043141Y17784686D01*
X8044273Y17785589D01*
X8045680Y17785932D01*
X8190823Y17858504D01*
X8214440Y17877919D01*
X8240334Y17894189D01*
X8312905Y17966761D01*
X8358011Y18038547D01*
X8367503Y18122795D01*
X8339501Y18202818D01*
X8279552Y18262766D01*
X8199528Y18290767D01*
X8115281Y18281274D01*
X8043496Y18236167D01*
X7992784Y18185456D01*
X7915515Y18146821D01*
X7570027Y18146821D01*
X7492761Y18185454D01*
X7463906Y18214309D01*
X7425272Y18291579D01*
X7425272Y18564493D01*
X7463906Y18641763D01*
X7492758Y18670615D01*
X7570029Y18709250D01*
X7742772Y18709250D01*
X7747096Y18710237D01*
X7751462Y18709448D01*
X7788236Y18719627D01*
X7825427Y18728115D01*
X7828894Y18730881D01*
X7833171Y18732064D01*
X7861891Y18757195D01*
X7891711Y18780975D01*
X7893635Y18784971D01*
X7896974Y18787892D01*
X7911946Y18822995D01*
X7928496Y18857360D01*
X7928496Y18861795D01*
X7930237Y18865876D01*
X7928496Y18903997D01*
X7928496Y18942140D01*
X7926571Y18946137D01*
X7926369Y18950568D01*
X7914642Y18972321D01*
X8495700Y18972321D01*
X8496022Y18970909D01*
X8495721Y18969492D01*
X8505435Y18929667D01*
X8514565Y18889666D01*
X8515468Y18888533D01*
X8515812Y18887126D01*
X8588384Y18741983D01*
X8607800Y18718364D01*
X8624068Y18692474D01*
X8696639Y18619903D01*
X8722528Y18603636D01*
X8746148Y18584219D01*
X8891291Y18511647D01*
X8892697Y18511304D01*
X8893831Y18510400D01*
X8933831Y18501271D01*
X8973657Y18491556D01*
X8975073Y18491858D01*
X8976486Y18491535D01*
X9366557Y18491535D01*
X9366557Y17956321D01*
X9385422Y17873666D01*
X9438282Y17807382D01*
X9514667Y17770597D01*
X9599447Y17770597D01*
X9675832Y17807382D01*
X9728692Y17873666D01*
X9747557Y17956321D01*
X9747557Y18246607D01*
X10019701Y18246607D01*
X10020023Y18245196D01*
X10019722Y18243779D01*
X10029439Y18203938D01*
X10038566Y18163952D01*
X10039468Y18162820D01*
X10039812Y18161413D01*
X10112384Y18016270D01*
X10131799Y17992652D01*
X10148068Y17966760D01*
X10220640Y17894188D01*
X10246532Y17877919D01*
X10270150Y17858504D01*
X10415292Y17785932D01*
X10416698Y17785589D01*
X10417831Y17784686D01*
X10457783Y17775568D01*
X10497658Y17765841D01*
X10499076Y17766143D01*
X10500486Y17765821D01*
X10863344Y17765821D01*
X10893155Y17772626D01*
X10923585Y17775597D01*
X11141300Y17848168D01*
X11213747Y17892202D01*
X11227854Y17913931D01*
X11475905Y17913931D01*
X11512690Y17837546D01*
X11578974Y17784686D01*
X11661629Y17765821D01*
X12387343Y17765821D01*
X12408269Y17770597D01*
X12429733Y17770597D01*
X12449070Y17779910D01*
X12469998Y17784686D01*
X12486780Y17798070D01*
X12506118Y17807382D01*
X12519500Y17824164D01*
X12536282Y17837546D01*
X12545594Y17856884D01*
X12558978Y17873666D01*
X12563754Y17894594D01*
X12573067Y17913931D01*
X12573067Y17935396D01*
X12577843Y17956321D01*
X12577843Y18494502D01*
X12927334Y18494502D01*
X12964119Y18418117D01*
X13030403Y18365257D01*
X13113058Y18346392D01*
X14274200Y18346392D01*
X14356855Y18365257D01*
X14423139Y18418117D01*
X14459924Y18494502D01*
X14459924Y18579282D01*
X14445389Y18609464D01*
X14736843Y18609464D01*
X14742049Y18586653D01*
X14742531Y18563261D01*
X14815103Y18272975D01*
X14824567Y18254315D01*
X14829526Y18233984D01*
X14902098Y18088841D01*
X14921513Y18065223D01*
X14937782Y18039331D01*
X15082925Y17894188D01*
X15084150Y17893418D01*
X15084940Y17892202D01*
X15119975Y17870908D01*
X15154710Y17849082D01*
X15156151Y17848920D01*
X15157388Y17848168D01*
X15375102Y17775597D01*
X15405531Y17772626D01*
X15435343Y17765821D01*
X15798200Y17765821D01*
X15819126Y17770597D01*
X15840590Y17770597D01*
X15859927Y17779910D01*
X15880855Y17784686D01*
X15897637Y17798070D01*
X15916975Y17807382D01*
X15930357Y17824164D01*
X15947139Y17837546D01*
X15956451Y17856884D01*
X15969835Y17873666D01*
X15974611Y17894594D01*
X15983924Y17913931D01*
X15983924Y17935396D01*
X15988700Y17956321D01*
X15988700Y18464321D01*
X16260843Y18464321D01*
X16266049Y18441510D01*
X16266531Y18418118D01*
X16339102Y18127832D01*
X16343111Y18119927D01*
X16344104Y18111117D01*
X16362125Y18082437D01*
X16377450Y18052220D01*
X16384494Y18046836D01*
X16389210Y18039331D01*
X16534353Y17894188D01*
X16560242Y17877921D01*
X16583863Y17858503D01*
X16729007Y17785932D01*
X16730412Y17785590D01*
X16731545Y17784686D01*
X16771504Y17775566D01*
X16811372Y17765841D01*
X16812790Y17766143D01*
X16814200Y17765821D01*
X17104486Y17765821D01*
X17105897Y17766144D01*
X17107314Y17765842D01*
X17147155Y17775560D01*
X17187141Y17784686D01*
X17188273Y17785589D01*
X17189680Y17785932D01*
X17334823Y17858504D01*
X17358443Y17877922D01*
X17384333Y17894189D01*
X17446465Y17956321D01*
X17929985Y17956321D01*
X17948850Y17873666D01*
X18001710Y17807382D01*
X18078095Y17770597D01*
X18162875Y17770597D01*
X18239260Y17807382D01*
X18292120Y17873666D01*
X18310985Y17956321D01*
X18310985Y18621630D01*
X18455857Y18311190D01*
X18457313Y18309318D01*
X18457869Y18307012D01*
X18483262Y18275953D01*
X18507906Y18244267D01*
X18510031Y18243212D01*
X18511532Y18241376D01*
X18547873Y18224417D01*
X18583837Y18206555D01*
X18586210Y18206527D01*
X18588358Y18205524D01*
X18628443Y18206012D01*
X18668612Y18205523D01*
X18670763Y18206528D01*
X18673133Y18206556D01*
X18709063Y18224401D01*
X18745438Y18241376D01*
X18746938Y18243212D01*
X18749064Y18244267D01*
X18773707Y18275953D01*
X18799101Y18307012D01*
X18799656Y18309318D01*
X18801113Y18311190D01*
X18945985Y18621631D01*
X18945985Y17956321D01*
X18964850Y17873666D01*
X19017710Y17807382D01*
X19094095Y17770597D01*
X19178875Y17770597D01*
X19255260Y17807382D01*
X19308120Y17873666D01*
X19326985Y17956321D01*
X19326985Y19480321D01*
X19326721Y19481477D01*
X19326972Y19482640D01*
X19317292Y19522789D01*
X19308120Y19562976D01*
X19307379Y19563905D01*
X19307101Y19565059D01*
X19280990Y19596995D01*
X19255260Y19629260D01*
X19254189Y19629776D01*
X19253438Y19630695D01*
X19216006Y19648164D01*
X19178875Y19666045D01*
X19177690Y19666045D01*
X19176612Y19666548D01*
X19135292Y19666045D01*
X19094095Y19666045D01*
X19093026Y19665531D01*
X19091837Y19665516D01*
X19054827Y19647135D01*
X19017710Y19629260D01*
X19016970Y19628333D01*
X19015906Y19627804D01*
X18990568Y19595226D01*
X18964850Y19562976D01*
X18964585Y19561818D01*
X18963857Y19560881D01*
X18628484Y18842227D01*
X18293113Y19560881D01*
X18292384Y19561818D01*
X18292120Y19562976D01*
X18266401Y19595226D01*
X18241064Y19627804D01*
X18239999Y19628333D01*
X18239260Y19629260D01*
X18202108Y19647152D01*
X18165133Y19665515D01*
X18163945Y19665530D01*
X18162875Y19666045D01*
X18121595Y19666045D01*
X18080358Y19666547D01*
X18079282Y19666045D01*
X18078095Y19666045D01*
X18040931Y19648148D01*
X18003532Y19630695D01*
X18002780Y19629776D01*
X18001710Y19629260D01*
X17975979Y19596995D01*
X17949869Y19565059D01*
X17949590Y19563905D01*
X17948850Y19562976D01*
X17939668Y19522749D01*
X17929999Y19482640D01*
X17930249Y19481479D01*
X17929985Y19480321D01*
X17929985Y17956321D01*
X17446465Y17956321D01*
X17529475Y18039331D01*
X17534191Y18046838D01*
X17541234Y18052220D01*
X17556556Y18082432D01*
X17574581Y18111117D01*
X17575573Y18119927D01*
X17579583Y18127832D01*
X17652155Y18418118D01*
X17652636Y18441510D01*
X17657843Y18464321D01*
X17657843Y18972321D01*
X17652636Y18995133D01*
X17652155Y19018524D01*
X17579583Y19308810D01*
X17575573Y19316716D01*
X17574581Y19325525D01*
X17556556Y19354211D01*
X17541234Y19384422D01*
X17534191Y19389805D01*
X17529475Y19397311D01*
X17384333Y19542453D01*
X17358443Y19558721D01*
X17334823Y19578138D01*
X17189680Y19650710D01*
X17188273Y19651054D01*
X17187141Y19651956D01*
X17147155Y19661083D01*
X17107314Y19670800D01*
X17105897Y19670499D01*
X17104486Y19670821D01*
X16814200Y19670821D01*
X16812790Y19670500D01*
X16811372Y19670801D01*
X16771504Y19661077D01*
X16731545Y19651956D01*
X16730412Y19651053D01*
X16729007Y19650710D01*
X16583863Y19578139D01*
X16560242Y19558722D01*
X16534353Y19542454D01*
X16389210Y19397311D01*
X16384494Y19389807D01*
X16377450Y19384422D01*
X16362125Y19354206D01*
X16344104Y19325525D01*
X16343111Y19316716D01*
X16339102Y19308810D01*
X16266531Y19018524D01*
X16266049Y18995133D01*
X16260843Y18972321D01*
X16260843Y18464321D01*
X15988700Y18464321D01*
X15988700Y19480321D01*
X15983924Y19501247D01*
X15983924Y19522711D01*
X15974611Y19542049D01*
X15969835Y19562976D01*
X15956451Y19579759D01*
X15947139Y19599096D01*
X15930357Y19612479D01*
X15916975Y19629260D01*
X15897637Y19638573D01*
X15880855Y19651956D01*
X15859927Y19656733D01*
X15840590Y19666045D01*
X15819126Y19666045D01*
X15798200Y19670821D01*
X15435343Y19670821D01*
X15405531Y19664017D01*
X15375102Y19661045D01*
X15157388Y19588474D01*
X15156151Y19587723D01*
X15154710Y19587560D01*
X15119975Y19565735D01*
X15084940Y19544440D01*
X15084150Y19543225D01*
X15082925Y19542454D01*
X14937782Y19397311D01*
X14921513Y19371420D01*
X14902098Y19347801D01*
X14829526Y19202658D01*
X14824567Y19182328D01*
X14815103Y19163667D01*
X14742531Y18873381D01*
X14742049Y18849990D01*
X14736843Y18827178D01*
X14736843Y18609464D01*
X14445389Y18609464D01*
X14423139Y18655667D01*
X14356855Y18708527D01*
X14274200Y18727392D01*
X13113058Y18727392D01*
X13030403Y18708527D01*
X12964119Y18655667D01*
X12927334Y18579282D01*
X12927334Y18494502D01*
X12577843Y18494502D01*
X12577843Y19480321D01*
X12573067Y19501247D01*
X12573067Y19522711D01*
X12563754Y19542049D01*
X12558978Y19562976D01*
X12545594Y19579759D01*
X12536282Y19599096D01*
X12519500Y19612479D01*
X12506118Y19629260D01*
X12486780Y19638573D01*
X12469998Y19651956D01*
X12449070Y19656733D01*
X12429733Y19666045D01*
X12408269Y19666045D01*
X12387343Y19670821D01*
X11661629Y19670821D01*
X11578974Y19651956D01*
X11512690Y19599096D01*
X11475905Y19522711D01*
X11475905Y19437931D01*
X11512690Y19361546D01*
X11578974Y19308686D01*
X11661629Y19289821D01*
X12196843Y19289821D01*
X12196843Y18945107D01*
X11879343Y18945107D01*
X11796688Y18926242D01*
X11730404Y18873382D01*
X11693619Y18796997D01*
X11693619Y18712217D01*
X11730404Y18635832D01*
X11796688Y18582972D01*
X11879343Y18564107D01*
X12196843Y18564107D01*
X12196843Y18146821D01*
X11661629Y18146821D01*
X11578974Y18127956D01*
X11512690Y18075096D01*
X11475905Y17998711D01*
X11475905Y17913931D01*
X11227854Y17913931D01*
X11259914Y17963311D01*
X11270657Y18047408D01*
X11243847Y18127838D01*
X11184795Y18188670D01*
X11105196Y18217857D01*
X11020817Y18209616D01*
X10832431Y18146821D01*
X10545456Y18146821D01*
X10468190Y18185454D01*
X10439335Y18214309D01*
X10400701Y18291579D01*
X10400701Y18346780D01*
X10439335Y18424048D01*
X10468190Y18452902D01*
X10566975Y18502295D01*
X10836975Y18569795D01*
X10855635Y18579260D01*
X10875966Y18584218D01*
X11021109Y18656790D01*
X11044726Y18676205D01*
X11070620Y18692475D01*
X11143191Y18765047D01*
X11159458Y18790938D01*
X11178874Y18814555D01*
X11251446Y18959697D01*
X11251789Y18961104D01*
X11252693Y18962237D01*
X11261820Y19002230D01*
X11271537Y19042062D01*
X11271235Y19043480D01*
X11271558Y19044892D01*
X11271558Y19190035D01*
X11271235Y19191448D01*
X11271537Y19192864D01*
X11261822Y19232690D01*
X11252693Y19272690D01*
X11251789Y19273824D01*
X11251446Y19275230D01*
X11178874Y19420373D01*
X11159458Y19443991D01*
X11143191Y19469881D01*
X11070620Y19542453D01*
X11044726Y19558724D01*
X11021109Y19578138D01*
X10875966Y19650710D01*
X10874559Y19651054D01*
X10873427Y19651956D01*
X10833441Y19661083D01*
X10793600Y19670800D01*
X10792183Y19670499D01*
X10790772Y19670821D01*
X10427915Y19670821D01*
X10398103Y19664017D01*
X10367674Y19661045D01*
X10149960Y19588474D01*
X10077512Y19544440D01*
X10031345Y19473331D01*
X10020603Y19389234D01*
X10047413Y19308804D01*
X10106465Y19247972D01*
X10186063Y19218785D01*
X10270442Y19227026D01*
X10458829Y19289821D01*
X10745801Y19289821D01*
X10823070Y19251187D01*
X10851922Y19222335D01*
X10890558Y19145064D01*
X10890558Y19089864D01*
X10851922Y19012594D01*
X10823070Y18983742D01*
X10724279Y18934347D01*
X10454283Y18866847D01*
X10435623Y18857384D01*
X10415292Y18852424D01*
X10270150Y18779852D01*
X10246532Y18760438D01*
X10220640Y18744168D01*
X10148068Y18671596D01*
X10131799Y18645705D01*
X10112384Y18622086D01*
X10039813Y18476944D01*
X10039470Y18475539D01*
X10038566Y18474405D01*
X10029434Y18434397D01*
X10019722Y18394579D01*
X10020023Y18393163D01*
X10019701Y18391750D01*
X10019701Y18246607D01*
X9747557Y18246607D01*
X9747557Y19480321D01*
X9742781Y19501247D01*
X9742781Y19522711D01*
X9733468Y19542049D01*
X9728692Y19562976D01*
X9715308Y19579759D01*
X9705996Y19599096D01*
X9689214Y19612479D01*
X9675832Y19629260D01*
X9656494Y19638573D01*
X9639712Y19651956D01*
X9618784Y19656733D01*
X9599447Y19666045D01*
X9577983Y19666045D01*
X9557057Y19670821D01*
X8976486Y19670821D01*
X8975076Y19670500D01*
X8973658Y19670801D01*
X8933790Y19661077D01*
X8893831Y19651956D01*
X8892698Y19651053D01*
X8891293Y19650710D01*
X8746149Y19578139D01*
X8722525Y19558719D01*
X8696639Y19542453D01*
X8624067Y19469881D01*
X8607799Y19443991D01*
X8588384Y19420373D01*
X8515812Y19275230D01*
X8515468Y19273824D01*
X8514565Y19272690D01*
X8505435Y19232690D01*
X8495721Y19192864D01*
X8496022Y19191448D01*
X8495700Y19190035D01*
X8495700Y18972321D01*
X7914642Y18972321D01*
X7908264Y18984151D01*
X7891711Y19018525D01*
X7888242Y19021291D01*
X7886138Y19025195D01*
X7654590Y19289821D01*
X8178200Y19289821D01*
X8260855Y19308686D01*
X8327139Y19361546D01*
X8363924Y19437931D01*
X8363924Y19522711D01*
X8327139Y19599096D01*
X8260855Y19651956D01*
X8178200Y19670821D01*
X7234772Y19670821D01*
X7230448Y19669835D01*
X7226082Y19670623D01*
X7189309Y19660445D01*
X7152117Y19651956D01*
X7148648Y19649191D01*
X7144374Y19648007D01*
X7115664Y19622886D01*
X7085833Y19599096D01*
X7083908Y19595099D01*
X7080570Y19592178D01*
X7065603Y19557089D01*
X7049048Y19522711D01*
X7049048Y19518275D01*
X7047308Y19514195D01*
X7049048Y19476087D01*
X7049048Y19437931D01*
X7050972Y19433935D01*
X7051175Y19429503D01*
X7069279Y19395921D01*
X7085833Y19361546D01*
X7089301Y19358781D01*
X7091406Y19354876D01*
X7370776Y19035595D01*
X7294720Y18997566D01*
X7271102Y18978151D01*
X7245212Y18961883D01*
X7172640Y18889312D01*
X7156369Y18863419D01*
X7136955Y18839801D01*
X7064383Y18694658D01*
X7064039Y18693252D01*
X7063137Y18692119D01*
X7054010Y18652134D01*
X7044293Y18612292D01*
X7044594Y18610876D01*
X7044272Y18609464D01*
X7044272Y18246607D01*
X6705893Y18246607D01*
X6022416Y18930084D01*
X5973843Y19075805D01*
X5973843Y19145064D01*
X6012477Y19222334D01*
X6041332Y19251188D01*
X6118598Y19289821D01*
X6391515Y19289821D01*
X6468783Y19251187D01*
X6519496Y19200474D01*
X6591281Y19155368D01*
X6675529Y19145876D01*
X6755552Y19173877D01*
X6815501Y19233826D01*
X6843502Y19313849D01*
X6834010Y19398097D01*
X6788904Y19469882D01*
X6716332Y19542454D01*
X6690440Y19558723D01*
X6666822Y19578138D01*
X6521680Y19650709D01*
X6520274Y19651052D01*
X6519141Y19651956D01*
X6479132Y19661088D01*
X6439315Y19670800D01*
X6437898Y19670499D01*
X6436486Y19670821D01*
X6073628Y19670821D01*
X6072218Y19670500D01*
X6070800Y19670801D01*
X6030925Y19661075D01*
X5990973Y19651956D01*
X5989840Y19651054D01*
X5988434Y19650710D01*
X5843292Y19578138D01*
X5819674Y19558724D01*
X5793782Y19542454D01*
X5721210Y19469882D01*
X5704941Y19443991D01*
X5685526Y19420372D01*
X5612954Y19275229D01*
X5612610Y19273823D01*
X5611708Y19272690D01*
X5602581Y19232705D01*
X5592864Y19192863D01*
X5593165Y19191447D01*
X5592843Y19190035D01*
X5592843Y19044892D01*
X3457848Y19044892D01*
X3428154Y19163667D01*
X3418690Y19182327D01*
X3413731Y19202657D01*
X3341160Y19347801D01*
X3321742Y19371422D01*
X3305475Y19397311D01*
X3160332Y19542454D01*
X3159106Y19543225D01*
X3158317Y19544440D01*
X3123251Y19565754D01*
X3088546Y19587560D01*
X3087107Y19587723D01*
X3085870Y19588474D01*
X2868155Y19661045D01*
X2837725Y19664017D01*
X2807914Y19670821D01*
X2662771Y19670821D01*
X2632959Y19664017D01*
X2602530Y19661045D01*
X2384816Y19588474D01*
X2383579Y19587723D01*
X2382138Y19587560D01*
X2347403Y19565735D01*
X2312368Y19544440D01*
X2311578Y19543225D01*
X2310353Y19542454D01*
X2237781Y19469882D01*
X2192675Y19398096D01*
X2183183Y19313849D01*
X2211184Y19233826D01*
X2271133Y19173877D01*
X2351156Y19145876D01*
X2435403Y19155368D01*
X2507189Y19200474D01*
X2547962Y19241248D01*
X2693685Y19289821D01*
X2777001Y19289821D01*
X2922722Y19241248D01*
X3014207Y19149763D01*
X3063601Y19050975D01*
X3125414Y18803727D01*
X3125414Y18632916D01*
X3063601Y18385668D01*
X3014207Y18286880D01*
X2922722Y18195395D01*
X2777001Y18146821D01*
X2693685Y18146821D01*
X2547962Y18195395D01*
X2507189Y18236168D01*
X2435403Y18281274D01*
X2351156Y18290766D01*
X2271133Y18262765D01*
X2211184Y18202816D01*
X2183183Y18122793D01*
X1981216Y18122793D01*
X1953215Y18202816D01*
X1893266Y18262765D01*
X1813243Y18290766D01*
X1728995Y18281274D01*
X1657210Y18236168D01*
X1606497Y18185456D01*
X1529229Y18146821D01*
X1256312Y18146821D01*
X1179046Y18185454D01*
X1150191Y18214309D01*
X1111557Y18291579D01*
X1111557Y18564493D01*
X1150191Y18641763D01*
X1179043Y18670615D01*
X1256314Y18709250D01*
X1529228Y18709250D01*
X1606497Y18670616D01*
X1657211Y18619902D01*
X1674385Y18609111D01*
X1688549Y18594588D01*
X1709824Y18586843D01*
X1728997Y18574796D01*
X1749154Y18572525D01*
X1768215Y18565586D01*
X1790744Y18567840D01*
X1813245Y18565304D01*
X1832391Y18572004D01*
X1852574Y18574022D01*
X1871895Y18585828D01*
X1893268Y18593306D01*
X1907611Y18607650D01*
X1924920Y18618225D01*
X1937205Y18637245D01*
X1953216Y18653255D01*
X1959915Y18672401D01*
X1970922Y18689440D01*
X1973738Y18711908D01*
X1981217Y18733279D01*
X1978945Y18753437D01*
X1981469Y18773562D01*
X1908897Y19499277D01*
X1905066Y19510682D01*
X1905066Y19522711D01*
X1891707Y19550451D01*
X1881901Y19579644D01*
X1873500Y19588258D01*
X1868281Y19599096D01*
X1844204Y19618297D01*
X1822707Y19640339D01*
X1811404Y19644454D01*
X1801997Y19651956D01*
X1771971Y19658809D01*
X1743041Y19669341D01*
X1731071Y19668144D01*
X1719342Y19670821D01*
X993628Y19670821D01*
X910973Y19651956D01*
X844689Y19599096D01*
X807904Y19522711D01*
X807904Y19437931D01*
X844689Y19361546D01*
X910973Y19308686D01*
X993628Y19289821D01*
X1546942Y19289821D01*
X1566899Y19090250D01*
X1211342Y19090250D01*
X1209929Y19089928D01*
X1208512Y19090229D01*
X1168679Y19080513D01*
X1128687Y19071385D01*
X1127553Y19070482D01*
X1126147Y19070138D01*
X981005Y18997566D01*
X957387Y18978151D01*
X931497Y18961883D01*
X858925Y18889312D01*
X842654Y18863419D01*
X823240Y18839801D01*
X750668Y18694658D01*
X750324Y18693252D01*
X749422Y18692119D01*
X740295Y18652134D01*
X730578Y18612292D01*
X730879Y18610876D01*
X730557Y18609464D01*
X730557Y18246607D01*
X512843Y18246607D01*
X512843Y19888535D01*
X19544699Y19888535D01*
X19544699Y17548107D01*
G37*
D11*
G36*
X16751377Y5250793D02*
G01*
X16770616Y5231554D01*
X16803544Y5165698D01*
X16844752Y5000866D01*
X16844752Y4790229D01*
X16803544Y4625397D01*
X16770616Y4559541D01*
X16751378Y4540304D01*
X16699867Y4514548D01*
X16663065Y4514548D01*
X16611553Y4540304D01*
X16592316Y4559541D01*
X16559388Y4625397D01*
X16518180Y4790229D01*
X16518180Y5000866D01*
X16559388Y5165698D01*
X16592316Y5231554D01*
X16611555Y5250793D01*
X16663065Y5276548D01*
X16699867Y5276548D01*
X16751377Y5250793D01*
G37*
G36*
X18210221Y4115405D02*
G01*
X16119037Y4115405D01*
X16119037Y4774595D01*
X16264180Y4774595D01*
X16265152Y4771283D01*
X16267972Y4743793D01*
X16316353Y4550269D01*
X16318605Y4546430D01*
X16325969Y4524275D01*
X16374350Y4427513D01*
X16375970Y4425771D01*
X16376477Y4423444D01*
X16398139Y4394506D01*
X16446520Y4346125D01*
X16448610Y4344984D01*
X16449826Y4342937D01*
X16479528Y4322335D01*
X16576290Y4273955D01*
X16587620Y4271917D01*
X16597305Y4265692D01*
X16633085Y4260548D01*
X16729847Y4260548D01*
X16740891Y4263792D01*
X16752339Y4262555D01*
X16786642Y4273955D01*
X16883404Y4322335D01*
X16885147Y4323957D01*
X16887474Y4324463D01*
X16916412Y4346125D01*
X16939761Y4369474D01*
X17233092Y4369474D01*
X17262819Y4304381D01*
X17323019Y4265692D01*
X17358799Y4260548D01*
X17939371Y4260548D01*
X18008032Y4280709D01*
X18054894Y4334790D01*
X18065078Y4405622D01*
X18035351Y4470715D01*
X17975151Y4509404D01*
X17939371Y4514548D01*
X17776085Y4514548D01*
X17776085Y5054799D01*
X17785813Y5048051D01*
X17882575Y4999670D01*
X17953003Y4986996D01*
X18019104Y5014410D01*
X18059890Y5073210D01*
X18062411Y5144725D01*
X18025869Y5206252D01*
X17996167Y5226854D01*
X17917839Y5266018D01*
X17844539Y5339319D01*
X17754755Y5473995D01*
X17728113Y5496308D01*
X17701843Y5519071D01*
X17700744Y5519229D01*
X17699894Y5519941D01*
X17665405Y5524310D01*
X17631011Y5529255D01*
X17630002Y5528795D01*
X17628902Y5528934D01*
X17597530Y5513965D01*
X17565918Y5499528D01*
X17565318Y5498595D01*
X17564317Y5498117D01*
X17546037Y5468594D01*
X17527229Y5439328D01*
X17527020Y5437881D01*
X17526646Y5437275D01*
X17526676Y5435483D01*
X17522085Y5403548D01*
X17522085Y4514548D01*
X17358799Y4514548D01*
X17290138Y4494387D01*
X17243276Y4440306D01*
X17233092Y4369474D01*
X16939761Y4369474D01*
X16964793Y4394506D01*
X16965934Y4396596D01*
X16967980Y4397811D01*
X16988582Y4427513D01*
X17036963Y4524275D01*
X17037751Y4528656D01*
X17046579Y4550269D01*
X17094960Y4743793D01*
X17094819Y4747244D01*
X17098752Y4774595D01*
X17098752Y5016500D01*
X17097779Y5019813D01*
X17094960Y5047302D01*
X17046579Y5240826D01*
X17044326Y5244666D01*
X17036963Y5266820D01*
X16988582Y5363582D01*
X16986961Y5365325D01*
X16986455Y5367651D01*
X16964793Y5396589D01*
X16916412Y5444970D01*
X16914322Y5446112D01*
X16913107Y5448157D01*
X16883405Y5468759D01*
X16786643Y5517140D01*
X16775313Y5519179D01*
X16765627Y5525404D01*
X16729847Y5530548D01*
X16633085Y5530548D01*
X16622039Y5527305D01*
X16610592Y5528541D01*
X16576289Y5517140D01*
X16479527Y5468759D01*
X16477784Y5467139D01*
X16475458Y5466632D01*
X16446520Y5444970D01*
X16398139Y5396589D01*
X16396997Y5394500D01*
X16394952Y5393284D01*
X16374350Y5363582D01*
X16325969Y5266820D01*
X16325180Y5262440D01*
X16316353Y5240826D01*
X16267972Y5047302D01*
X16268112Y5043852D01*
X16264180Y5016500D01*
X16264180Y4774595D01*
X16119037Y4774595D01*
X16119037Y5675691D01*
X18210221Y5675691D01*
X18210221Y4115405D01*
G37*
G36*
X16610221Y25915405D02*
G01*
X15487949Y25915405D01*
X15487949Y26169474D01*
X15633092Y26169474D01*
X15662819Y26104381D01*
X15723019Y26065692D01*
X15758799Y26060548D01*
X16339371Y26060548D01*
X16408032Y26080709D01*
X16454894Y26134790D01*
X16465078Y26205622D01*
X16435351Y26270715D01*
X16375151Y26309404D01*
X16339371Y26314548D01*
X16176085Y26314548D01*
X16176085Y26854799D01*
X16185813Y26848051D01*
X16282575Y26799670D01*
X16353003Y26786996D01*
X16419104Y26814410D01*
X16459890Y26873210D01*
X16462411Y26944725D01*
X16425869Y27006252D01*
X16396167Y27026854D01*
X16317839Y27066018D01*
X16244539Y27139319D01*
X16154755Y27273995D01*
X16128113Y27296308D01*
X16101843Y27319071D01*
X16100744Y27319229D01*
X16099894Y27319941D01*
X16065405Y27324310D01*
X16031011Y27329255D01*
X16030002Y27328795D01*
X16028902Y27328934D01*
X15997530Y27313965D01*
X15965918Y27299528D01*
X15965318Y27298595D01*
X15964317Y27298117D01*
X15946037Y27268594D01*
X15927229Y27239328D01*
X15927020Y27237881D01*
X15926646Y27237275D01*
X15926676Y27235483D01*
X15922085Y27203548D01*
X15922085Y26314548D01*
X15758799Y26314548D01*
X15690138Y26294387D01*
X15643276Y26240306D01*
X15633092Y26169474D01*
X15487949Y26169474D01*
X15487949Y27474398D01*
X16610221Y27474398D01*
X16610221Y25915405D01*
G37*
G36*
X3959571Y3365405D02*
G01*
X2786656Y3365405D01*
X2786656Y4363262D01*
X2931799Y4363262D01*
X2932469Y4360979D01*
X2931882Y4358672D01*
X2938316Y4323101D01*
X2986697Y4177958D01*
X2993267Y4168504D01*
X2995715Y4157254D01*
X3017378Y4128316D01*
X3381146Y3764548D01*
X3058799Y3764548D01*
X2990138Y3744387D01*
X2943276Y3690306D01*
X2933092Y3619474D01*
X2962819Y3554381D01*
X3023019Y3515692D01*
X3058799Y3510548D01*
X3687752Y3510548D01*
X3709511Y3516938D01*
X3732134Y3518555D01*
X3743178Y3526823D01*
X3756413Y3530709D01*
X3771263Y3547848D01*
X3789421Y3561440D01*
X3794241Y3574366D01*
X3803275Y3584790D01*
X3806502Y3607239D01*
X3814428Y3628488D01*
X3811495Y3641968D01*
X3813459Y3655622D01*
X3804037Y3676252D01*
X3799217Y3698413D01*
X3785625Y3716569D01*
X3783732Y3720715D01*
X3781399Y3722214D01*
X3777554Y3727351D01*
X3218182Y4286722D01*
X3185799Y4383872D01*
X3185799Y4430044D01*
X3211554Y4481554D01*
X3230793Y4500793D01*
X3282303Y4526548D01*
X3464248Y4526548D01*
X3515758Y4500793D01*
X3549568Y4466983D01*
X3612375Y4432689D01*
X3683753Y4437793D01*
X3741039Y4480678D01*
X3766047Y4547726D01*
X3750836Y4617651D01*
X3729174Y4646589D01*
X3680793Y4694970D01*
X3678703Y4696112D01*
X3677488Y4698157D01*
X3647786Y4718759D01*
X3551024Y4767140D01*
X3539694Y4769179D01*
X3530008Y4775404D01*
X3494228Y4780548D01*
X3252323Y4780548D01*
X3241277Y4777305D01*
X3229830Y4778541D01*
X3195527Y4767140D01*
X3098765Y4718759D01*
X3097022Y4717139D01*
X3094696Y4716632D01*
X3065758Y4694970D01*
X3017377Y4646589D01*
X3016235Y4644500D01*
X3014190Y4643284D01*
X2993588Y4613582D01*
X2945207Y4516820D01*
X2943168Y4505491D01*
X2936943Y4495804D01*
X2931799Y4460024D01*
X2931799Y4363262D01*
X2786656Y4363262D01*
X2786656Y4925691D01*
X3959571Y4925691D01*
X3959571Y3365405D01*
G37*
G36*
X5974085Y5864548D02*
G01*
X5840779Y5864548D01*
X5789267Y5890304D01*
X5770030Y5909541D01*
X5744275Y5961051D01*
X5744275Y6191377D01*
X5770030Y6242887D01*
X5789269Y6262126D01*
X5840779Y6287881D01*
X5974085Y6287881D01*
X5974085Y5864548D01*
G37*
G36*
X4071187Y5981554D02*
G01*
X4087228Y5949472D01*
X4087228Y5912670D01*
X4071187Y5880590D01*
X4039105Y5864548D01*
X3857418Y5864548D01*
X3857418Y5997595D01*
X4039105Y5997595D01*
X4071187Y5981554D01*
G37*
G36*
X8251377Y6262126D02*
G01*
X8270616Y6242887D01*
X8296371Y6191377D01*
X8296371Y5961051D01*
X8270616Y5909541D01*
X8251378Y5890304D01*
X8199867Y5864548D01*
X8114684Y5864548D01*
X8063172Y5890304D01*
X8043935Y5909541D01*
X8018180Y5961051D01*
X8018180Y6191377D01*
X8043935Y6242887D01*
X8063174Y6262126D01*
X8114684Y6287881D01*
X8199867Y6287881D01*
X8251377Y6262126D01*
G37*
G36*
X8251377Y7897886D02*
G01*
X8270616Y7878647D01*
X8296371Y7827137D01*
X8296371Y7596811D01*
X8270616Y7545301D01*
X8251378Y7526064D01*
X8199867Y7500308D01*
X8114684Y7500308D01*
X8063172Y7526064D01*
X8043935Y7545301D01*
X8018180Y7596811D01*
X8018180Y7827137D01*
X8043935Y7878647D01*
X8063174Y7897886D01*
X8114684Y7923641D01*
X8199867Y7923641D01*
X8251377Y7897886D01*
G37*
G36*
X9263990Y7984117D02*
G01*
X9033922Y7984117D01*
X8982412Y8009872D01*
X8963173Y8029111D01*
X8937418Y8080621D01*
X8937418Y8165804D01*
X8963173Y8217314D01*
X8982412Y8236553D01*
X9033922Y8262308D01*
X9263990Y8262308D01*
X9263990Y7984117D01*
G37*
G36*
X9711514Y5128031D02*
G01*
X1814616Y5128031D01*
X1814616Y5719474D01*
X1959759Y5719474D01*
X1989486Y5654381D01*
X2049686Y5615692D01*
X2085466Y5610548D01*
X2182228Y5610548D01*
X2193272Y5613792D01*
X2204720Y5612555D01*
X2239023Y5623955D01*
X2335785Y5672335D01*
X2352431Y5687820D01*
X2371980Y5699430D01*
X2384830Y5717957D01*
X2388182Y5721074D01*
X2388876Y5723790D01*
X2392582Y5729132D01*
X2396790Y5737548D01*
X2684180Y5737548D01*
X2704341Y5668887D01*
X2758422Y5622025D01*
X2829254Y5611841D01*
X2894347Y5641568D01*
X2933036Y5701768D01*
X2938180Y5737548D01*
X2938180Y6239758D01*
X2954221Y6271840D01*
X2986303Y6287881D01*
X3071486Y6287881D01*
X3119609Y6263820D01*
X3119609Y5737548D01*
X3139770Y5668887D01*
X3193851Y5622025D01*
X3264683Y5611841D01*
X3329776Y5641568D01*
X3368465Y5701768D01*
X3373609Y5737548D01*
X3603418Y5737548D01*
X3623579Y5668887D01*
X3677660Y5622025D01*
X3748492Y5611841D01*
X3773708Y5623357D01*
X3781715Y5621917D01*
X3791400Y5615692D01*
X3827180Y5610548D01*
X4069085Y5610548D01*
X4080129Y5613792D01*
X4091577Y5612555D01*
X4125880Y5623955D01*
X4222642Y5672335D01*
X4239288Y5687820D01*
X4258837Y5699430D01*
X4271687Y5717957D01*
X4275039Y5721074D01*
X4275733Y5723790D01*
X4279439Y5729132D01*
X4327820Y5825894D01*
X4329858Y5837224D01*
X4336084Y5846910D01*
X4341228Y5882690D01*
X4341228Y5979452D01*
X4337984Y5990498D01*
X4339221Y6001945D01*
X4327820Y6036248D01*
X4279439Y6133010D01*
X4263954Y6149657D01*
X4252345Y6169204D01*
X4233818Y6182055D01*
X4230701Y6185406D01*
X4227985Y6186101D01*
X4222643Y6189806D01*
X4125881Y6238187D01*
X4114551Y6240226D01*
X4104865Y6246451D01*
X4069085Y6251595D01*
X3863336Y6251595D01*
X3873459Y6271840D01*
X3905541Y6287881D01*
X4039105Y6287881D01*
X4109051Y6252908D01*
X4179479Y6240234D01*
X4245580Y6267648D01*
X4286366Y6326448D01*
X4288887Y6397963D01*
X4252345Y6459490D01*
X4222643Y6480092D01*
X4125881Y6528473D01*
X4114551Y6530512D01*
X4104865Y6536737D01*
X4069085Y6541881D01*
X3875561Y6541881D01*
X3864515Y6538638D01*
X3853068Y6539874D01*
X3818765Y6528473D01*
X3722003Y6480092D01*
X3705356Y6464608D01*
X3685809Y6452998D01*
X3672958Y6434472D01*
X3669607Y6431354D01*
X3668912Y6428639D01*
X3665207Y6423296D01*
X3616826Y6326534D01*
X3614787Y6315205D01*
X3608562Y6305518D01*
X3603418Y6269738D01*
X3603418Y5737548D01*
X3373609Y5737548D01*
X3373609Y6414881D01*
X3353448Y6483542D01*
X3299367Y6530404D01*
X3228535Y6540588D01*
X3179144Y6518032D01*
X3158262Y6528473D01*
X3146932Y6530512D01*
X3137246Y6536737D01*
X3101466Y6541881D01*
X2956323Y6541881D01*
X2945277Y6538638D01*
X2933830Y6539874D01*
X2899527Y6528473D01*
X2802765Y6480092D01*
X2786118Y6464608D01*
X2766571Y6452998D01*
X2753720Y6434472D01*
X2750369Y6431354D01*
X2749674Y6428639D01*
X2745969Y6423296D01*
X2697588Y6326534D01*
X2695549Y6315205D01*
X2689324Y6305518D01*
X2684180Y6269738D01*
X2684180Y5737548D01*
X2396790Y5737548D01*
X2440963Y5825894D01*
X2443001Y5837224D01*
X2449227Y5846910D01*
X2454371Y5882690D01*
X2454371Y6287881D01*
X2472514Y6287881D01*
X2541175Y6308042D01*
X2588037Y6362123D01*
X2598221Y6432955D01*
X2568494Y6498048D01*
X2508294Y6536737D01*
X2472514Y6541881D01*
X2454371Y6541881D01*
X2454371Y6714227D01*
X4474600Y6714227D01*
X4480352Y6687783D01*
X4482283Y6660785D01*
X4487840Y6653362D01*
X4489811Y6644302D01*
X4511473Y6615364D01*
X4559854Y6566983D01*
X4567992Y6562539D01*
X4573549Y6555117D01*
X4586474Y6550297D01*
X4596899Y6541263D01*
X4610553Y6539300D01*
X4618846Y6534772D01*
X4566490Y6510861D01*
X4527801Y6450661D01*
X4522657Y6414881D01*
X4522657Y5737548D01*
X4542818Y5668887D01*
X4596899Y5622025D01*
X4667731Y5611841D01*
X4732824Y5641568D01*
X4771513Y5701768D01*
X4776014Y5733074D01*
X4909783Y5733074D01*
X4932351Y5665165D01*
X4988049Y5620238D01*
X5059196Y5612555D01*
X5093499Y5623955D01*
X5190261Y5672335D01*
X5206907Y5687820D01*
X5226456Y5699430D01*
X5239306Y5717957D01*
X5242658Y5721074D01*
X5243352Y5723790D01*
X5247058Y5729132D01*
X5295439Y5825894D01*
X5297477Y5837224D01*
X5303703Y5846910D01*
X5308847Y5882690D01*
X5308847Y5931071D01*
X5490275Y5931071D01*
X5493518Y5920026D01*
X5492282Y5908578D01*
X5503683Y5874275D01*
X5552064Y5777513D01*
X5553684Y5775771D01*
X5554191Y5773444D01*
X5575853Y5744506D01*
X5624234Y5696125D01*
X5626324Y5694984D01*
X5627540Y5692937D01*
X5657242Y5672335D01*
X5754004Y5623955D01*
X5765334Y5621917D01*
X5775019Y5615692D01*
X5810799Y5610548D01*
X5974085Y5610548D01*
X5974085Y5398881D01*
X5994246Y5330220D01*
X6048327Y5283358D01*
X6119159Y5273174D01*
X6184252Y5302901D01*
X6222941Y5363101D01*
X6228085Y5398881D01*
X6228085Y5737548D01*
X6457895Y5737548D01*
X6478056Y5668887D01*
X6532137Y5622025D01*
X6602969Y5611841D01*
X6668062Y5641568D01*
X6706751Y5701768D01*
X6711895Y5737548D01*
X6711895Y6239758D01*
X6727935Y6271840D01*
X6760018Y6287881D01*
X6845200Y6287881D01*
X6877282Y6271840D01*
X6893323Y6239758D01*
X6893323Y5737548D01*
X6913484Y5668887D01*
X6967565Y5622025D01*
X7038397Y5611841D01*
X7103490Y5641568D01*
X7142179Y5701768D01*
X7147323Y5737548D01*
X7147323Y6239758D01*
X7163364Y6271840D01*
X7195446Y6287881D01*
X7280629Y6287881D01*
X7328752Y6263820D01*
X7328752Y5737548D01*
X7348913Y5668887D01*
X7402994Y5622025D01*
X7473826Y5611841D01*
X7538919Y5641568D01*
X7577608Y5701768D01*
X7582752Y5737548D01*
X7582752Y5931071D01*
X7764180Y5931071D01*
X7767423Y5920026D01*
X7766187Y5908578D01*
X7777588Y5874275D01*
X7825969Y5777513D01*
X7827589Y5775771D01*
X7828096Y5773444D01*
X7849758Y5744506D01*
X7898139Y5696125D01*
X7900229Y5694984D01*
X7901445Y5692937D01*
X7931147Y5672335D01*
X8027909Y5623955D01*
X8039239Y5621917D01*
X8048924Y5615692D01*
X8084704Y5610548D01*
X8229847Y5610548D01*
X8240891Y5613792D01*
X8252339Y5612555D01*
X8286642Y5623955D01*
X8383404Y5672335D01*
X8385147Y5673957D01*
X8387474Y5674463D01*
X8416412Y5696125D01*
X8464793Y5744506D01*
X8465934Y5746596D01*
X8467980Y5747811D01*
X8488582Y5777513D01*
X8521510Y5843369D01*
X8683742Y5843369D01*
X8698953Y5773444D01*
X8720615Y5744506D01*
X8768996Y5696125D01*
X8779101Y5690607D01*
X8786322Y5681639D01*
X8818639Y5665445D01*
X8963782Y5617065D01*
X8966159Y5616980D01*
X8968162Y5615692D01*
X9003942Y5610548D01*
X9100704Y5610548D01*
X9102987Y5611219D01*
X9105294Y5610631D01*
X9140864Y5617065D01*
X9286007Y5665445D01*
X9295461Y5672016D01*
X9306712Y5674463D01*
X9335650Y5696125D01*
X9432411Y5792887D01*
X9433551Y5794977D01*
X9435599Y5796192D01*
X9456201Y5825894D01*
X9504582Y5922656D01*
X9505370Y5927037D01*
X9514198Y5948650D01*
X9562579Y6142174D01*
X9562438Y6145625D01*
X9566371Y6172976D01*
X9566371Y6318119D01*
X9565398Y6321432D01*
X9562579Y6348921D01*
X9514198Y6542445D01*
X9511945Y6546285D01*
X9504582Y6568439D01*
X9456201Y6665201D01*
X9454580Y6666944D01*
X9454074Y6669270D01*
X9432411Y6698208D01*
X9335650Y6794970D01*
X9325544Y6800488D01*
X9318325Y6809455D01*
X9286008Y6825650D01*
X9140865Y6874031D01*
X9138486Y6874118D01*
X9136484Y6875404D01*
X9100704Y6880548D01*
X9003942Y6880548D01*
X9001657Y6879878D01*
X8999351Y6880465D01*
X8963781Y6874031D01*
X8818638Y6825650D01*
X8809183Y6819080D01*
X8797934Y6816632D01*
X8768996Y6794970D01*
X8720615Y6746589D01*
X8686321Y6683782D01*
X8691425Y6612404D01*
X8734310Y6555117D01*
X8801358Y6530110D01*
X8871283Y6545321D01*
X8900221Y6566983D01*
X8927403Y6594165D01*
X9024552Y6626548D01*
X9080094Y6626548D01*
X9177243Y6594165D01*
X9238234Y6533175D01*
X9271163Y6467317D01*
X9312371Y6302485D01*
X9312371Y6188610D01*
X9271163Y6023778D01*
X9238234Y5957921D01*
X9177243Y5896930D01*
X9080095Y5864548D01*
X9024551Y5864548D01*
X8927403Y5896930D01*
X8900221Y5924112D01*
X8837414Y5958406D01*
X8766036Y5953302D01*
X8708749Y5910417D01*
X8683742Y5843369D01*
X8521510Y5843369D01*
X8536963Y5874275D01*
X8539001Y5885605D01*
X8545227Y5895291D01*
X8550371Y5931071D01*
X8550371Y6221357D01*
X8547127Y6232403D01*
X8548364Y6243850D01*
X8536963Y6278153D01*
X8488582Y6374915D01*
X8486961Y6376658D01*
X8486455Y6378984D01*
X8464793Y6407922D01*
X8416412Y6456303D01*
X8414322Y6457445D01*
X8413107Y6459490D01*
X8383405Y6480092D01*
X8286643Y6528473D01*
X8275313Y6530512D01*
X8265627Y6536737D01*
X8229847Y6541881D01*
X8084704Y6541881D01*
X8073658Y6538638D01*
X8062211Y6539874D01*
X8027908Y6528473D01*
X7931146Y6480092D01*
X7929403Y6478472D01*
X7927077Y6477965D01*
X7898139Y6456303D01*
X7849758Y6407922D01*
X7848616Y6405833D01*
X7846571Y6404617D01*
X7825969Y6374915D01*
X7777588Y6278153D01*
X7775549Y6266824D01*
X7769324Y6257137D01*
X7764180Y6221357D01*
X7764180Y5931071D01*
X7582752Y5931071D01*
X7582752Y6414881D01*
X7562591Y6483542D01*
X7508510Y6530404D01*
X7437678Y6540588D01*
X7388287Y6518032D01*
X7367405Y6528473D01*
X7356075Y6530512D01*
X7346389Y6536737D01*
X7310609Y6541881D01*
X7165466Y6541881D01*
X7154420Y6538638D01*
X7142973Y6539874D01*
X7108670Y6528473D01*
X7020323Y6484300D01*
X6931976Y6528473D01*
X6920646Y6530512D01*
X6910960Y6536737D01*
X6875180Y6541881D01*
X6730037Y6541881D01*
X6718989Y6538638D01*
X6707543Y6539873D01*
X6673240Y6528473D01*
X6576479Y6480092D01*
X6559832Y6464607D01*
X6540286Y6452998D01*
X6527434Y6434470D01*
X6524084Y6431353D01*
X6523389Y6428639D01*
X6519684Y6423296D01*
X6471303Y6326534D01*
X6469264Y6315205D01*
X6463039Y6305518D01*
X6457895Y6269738D01*
X6457895Y5737548D01*
X6228085Y5737548D01*
X6228085Y6414881D01*
X6207924Y6483542D01*
X6153843Y6530404D01*
X6083011Y6540588D01*
X6057793Y6529072D01*
X6049789Y6530512D01*
X6040103Y6536737D01*
X6004323Y6541881D01*
X5810799Y6541881D01*
X5799753Y6538638D01*
X5788306Y6539874D01*
X5754003Y6528473D01*
X5657241Y6480092D01*
X5655498Y6478472D01*
X5653172Y6477965D01*
X5624234Y6456303D01*
X5575853Y6407922D01*
X5574711Y6405833D01*
X5572666Y6404617D01*
X5552064Y6374915D01*
X5503683Y6278153D01*
X5501644Y6266824D01*
X5495419Y6257137D01*
X5490275Y6221357D01*
X5490275Y5931071D01*
X5308847Y5931071D01*
X5308847Y6753548D01*
X5288686Y6822209D01*
X5234605Y6869071D01*
X5163773Y6879255D01*
X5098680Y6849528D01*
X5059991Y6789328D01*
X5054847Y6753548D01*
X5054847Y5912670D01*
X5038806Y5880590D01*
X4979909Y5851141D01*
X4927512Y5802402D01*
X4909783Y5733074D01*
X4776014Y5733074D01*
X4776657Y5737548D01*
X4776657Y6414881D01*
X4756496Y6483542D01*
X4702415Y6530404D01*
X4674911Y6534359D01*
X4680277Y6536809D01*
X4694039Y6537793D01*
X4701462Y6543351D01*
X4710522Y6545321D01*
X4728680Y6558914D01*
X4732824Y6560806D01*
X4734321Y6563137D01*
X4739460Y6566983D01*
X4787841Y6615364D01*
X4792285Y6623505D01*
X4799706Y6629059D01*
X4809162Y6654414D01*
X4822135Y6678171D01*
X4821473Y6687420D01*
X4824714Y6696107D01*
X4818961Y6722552D01*
X4817031Y6749549D01*
X4811473Y6756973D01*
X4809503Y6766032D01*
X4787841Y6794970D01*
X4739460Y6843351D01*
X4731319Y6847796D01*
X4725765Y6855216D01*
X4712841Y6860037D01*
X4702415Y6869071D01*
X4688760Y6871035D01*
X4676653Y6877645D01*
X4667404Y6876984D01*
X4658717Y6880224D01*
X4645237Y6877292D01*
X4631583Y6879255D01*
X4619036Y6873526D01*
X4605275Y6872541D01*
X4597851Y6866984D01*
X4588792Y6865013D01*
X4570633Y6851421D01*
X4566490Y6849528D01*
X4564992Y6847198D01*
X4559854Y6843351D01*
X4511473Y6794970D01*
X4507028Y6786832D01*
X4499607Y6781275D01*
X4490149Y6755917D01*
X4477179Y6732163D01*
X4477840Y6722915D01*
X4474600Y6714227D01*
X2454371Y6714227D01*
X2454371Y6753548D01*
X2434210Y6822209D01*
X2380129Y6869071D01*
X2309297Y6879255D01*
X2244204Y6849528D01*
X2205515Y6789328D01*
X2200371Y6753548D01*
X2200371Y6541881D01*
X2085466Y6541881D01*
X2016805Y6521720D01*
X1969943Y6467639D01*
X1959759Y6396807D01*
X1989486Y6331714D01*
X2049686Y6293025D01*
X2085466Y6287881D01*
X2200371Y6287881D01*
X2200371Y5912670D01*
X2184330Y5880590D01*
X2152248Y5864548D01*
X2085466Y5864548D01*
X2016805Y5844387D01*
X1969943Y5790306D01*
X1959759Y5719474D01*
X1814616Y5719474D01*
X1814616Y7566831D01*
X5732180Y7566831D01*
X5735423Y7555786D01*
X5734187Y7544338D01*
X5745588Y7510035D01*
X5793969Y7413273D01*
X5795589Y7411531D01*
X5796096Y7409204D01*
X5817758Y7380266D01*
X5866139Y7331885D01*
X5868229Y7330744D01*
X5869445Y7328697D01*
X5899147Y7308095D01*
X5995909Y7259715D01*
X6007239Y7257677D01*
X6016924Y7251452D01*
X6052704Y7246308D01*
X6294609Y7246308D01*
X6296892Y7246979D01*
X6299199Y7246391D01*
X6334769Y7252825D01*
X6479912Y7301205D01*
X6538675Y7342044D01*
X6551609Y7373308D01*
X6748180Y7373308D01*
X6768341Y7304647D01*
X6822422Y7257785D01*
X6893254Y7247601D01*
X6958347Y7277328D01*
X6997036Y7337528D01*
X7002180Y7373308D01*
X7002180Y7778498D01*
X7328752Y7778498D01*
X7328752Y7373308D01*
X7348913Y7304647D01*
X7402994Y7257785D01*
X7473826Y7247601D01*
X7538919Y7277328D01*
X7577608Y7337528D01*
X7582752Y7373308D01*
X7582752Y7566831D01*
X7764180Y7566831D01*
X7767423Y7555786D01*
X7766187Y7544338D01*
X7777588Y7510035D01*
X7825969Y7413273D01*
X7827589Y7411531D01*
X7828096Y7409204D01*
X7849758Y7380266D01*
X7898139Y7331885D01*
X7900229Y7330744D01*
X7901445Y7328697D01*
X7931147Y7308095D01*
X8027909Y7259715D01*
X8039239Y7257677D01*
X8048924Y7251452D01*
X8084704Y7246308D01*
X8229847Y7246308D01*
X8240891Y7249552D01*
X8252339Y7248315D01*
X8286642Y7259715D01*
X8383404Y7308095D01*
X8385147Y7309717D01*
X8387474Y7310223D01*
X8416412Y7331885D01*
X8464793Y7380266D01*
X8465934Y7382356D01*
X8467980Y7383571D01*
X8488582Y7413273D01*
X8536963Y7510035D01*
X8539001Y7521365D01*
X8545227Y7531051D01*
X8550371Y7566831D01*
X8550371Y7857117D01*
X8547127Y7868163D01*
X8548364Y7879610D01*
X8536963Y7913913D01*
X8488582Y8010675D01*
X8486961Y8012418D01*
X8486455Y8014744D01*
X8464793Y8043682D01*
X8457834Y8050641D01*
X8683418Y8050641D01*
X8686661Y8039596D01*
X8685425Y8028148D01*
X8696826Y7993845D01*
X8745207Y7897083D01*
X8746827Y7895341D01*
X8747334Y7893014D01*
X8768996Y7864076D01*
X8817377Y7815695D01*
X8819466Y7814554D01*
X8820682Y7812508D01*
X8850384Y7791906D01*
X8922998Y7755599D01*
X8706376Y7446138D01*
X8683518Y7378327D01*
X8700949Y7308923D01*
X8753136Y7259960D01*
X8823510Y7246985D01*
X8889728Y7274116D01*
X8914460Y7300478D01*
X9215208Y7730117D01*
X9263990Y7730117D01*
X9263990Y7373308D01*
X9284151Y7304647D01*
X9338232Y7257785D01*
X9409064Y7247601D01*
X9474157Y7277328D01*
X9512846Y7337528D01*
X9517990Y7373308D01*
X9517990Y8389308D01*
X9515377Y8398206D01*
X9516697Y8407382D01*
X9505454Y8432001D01*
X9497829Y8457969D01*
X9490821Y8464041D01*
X9486970Y8472475D01*
X9464201Y8487108D01*
X9443748Y8504831D01*
X9434571Y8506151D01*
X9426770Y8511164D01*
X9390990Y8516308D01*
X9003942Y8516308D01*
X8992896Y8513065D01*
X8981449Y8514301D01*
X8947146Y8502900D01*
X8850384Y8454519D01*
X8848641Y8452899D01*
X8846315Y8452392D01*
X8817377Y8430730D01*
X8768996Y8382349D01*
X8767854Y8380260D01*
X8765809Y8379044D01*
X8745207Y8349342D01*
X8696826Y8252580D01*
X8694787Y8241251D01*
X8688562Y8231564D01*
X8683418Y8195784D01*
X8683418Y8050641D01*
X8457834Y8050641D01*
X8416412Y8092063D01*
X8414322Y8093205D01*
X8413107Y8095250D01*
X8383405Y8115852D01*
X8286643Y8164233D01*
X8275313Y8166272D01*
X8265627Y8172497D01*
X8229847Y8177641D01*
X8084704Y8177641D01*
X8073658Y8174398D01*
X8062211Y8175634D01*
X8027908Y8164233D01*
X7931146Y8115852D01*
X7929403Y8114232D01*
X7927077Y8113725D01*
X7898139Y8092063D01*
X7849758Y8043682D01*
X7848616Y8041593D01*
X7846571Y8040377D01*
X7825969Y8010675D01*
X7777588Y7913913D01*
X7775549Y7902584D01*
X7769324Y7892897D01*
X7764180Y7857117D01*
X7764180Y7566831D01*
X7582752Y7566831D01*
X7582752Y8389308D01*
X7562591Y8457969D01*
X7508510Y8504831D01*
X7437678Y8515015D01*
X7372585Y8485288D01*
X7333896Y8425088D01*
X7328752Y8389308D01*
X7328752Y8032498D01*
X7002180Y8032498D01*
X7002180Y8389308D01*
X6982019Y8457969D01*
X6927938Y8504831D01*
X6857106Y8515015D01*
X6792013Y8485288D01*
X6753324Y8425088D01*
X6748180Y8389308D01*
X6748180Y7373308D01*
X6551609Y7373308D01*
X6566030Y7408168D01*
X6553293Y7478586D01*
X6504508Y7530938D01*
X6435163Y7548605D01*
X6399592Y7542171D01*
X6274000Y7500308D01*
X6082684Y7500308D01*
X6031172Y7526064D01*
X6011935Y7545301D01*
X5986180Y7596811D01*
X5986180Y7633613D01*
X6011935Y7685123D01*
X6031174Y7704362D01*
X6097030Y7737290D01*
X6277030Y7782290D01*
X6280869Y7784543D01*
X6303024Y7791906D01*
X6399786Y7840287D01*
X6401528Y7841908D01*
X6403855Y7842414D01*
X6432793Y7864076D01*
X6481174Y7912457D01*
X6482315Y7914547D01*
X6484361Y7915762D01*
X6504963Y7945464D01*
X6553344Y8042226D01*
X6555382Y8053556D01*
X6561608Y8063242D01*
X6566752Y8099022D01*
X6566752Y8195784D01*
X6563508Y8206830D01*
X6564745Y8218277D01*
X6553344Y8252580D01*
X6504963Y8349342D01*
X6503342Y8351085D01*
X6502836Y8353411D01*
X6481174Y8382349D01*
X6432793Y8430730D01*
X6430703Y8431872D01*
X6429488Y8433917D01*
X6399786Y8454519D01*
X6303024Y8502900D01*
X6291694Y8504939D01*
X6282008Y8511164D01*
X6246228Y8516308D01*
X6004323Y8516308D01*
X6002038Y8515638D01*
X5999732Y8516225D01*
X5964162Y8509791D01*
X5819019Y8461410D01*
X5760257Y8420571D01*
X5732902Y8354446D01*
X5745639Y8284028D01*
X5794425Y8231676D01*
X5863770Y8214010D01*
X5899341Y8220444D01*
X6024933Y8262308D01*
X6216248Y8262308D01*
X6267758Y8236553D01*
X6286997Y8217314D01*
X6312752Y8165804D01*
X6312752Y8129002D01*
X6286997Y8077492D01*
X6267758Y8058253D01*
X6201902Y8025325D01*
X6021902Y7980325D01*
X6018062Y7978073D01*
X5995908Y7970709D01*
X5899146Y7922328D01*
X5897403Y7920708D01*
X5895077Y7920201D01*
X5866139Y7898539D01*
X5817758Y7850158D01*
X5816616Y7848069D01*
X5814571Y7846853D01*
X5793969Y7817151D01*
X5745588Y7720389D01*
X5743549Y7709060D01*
X5737324Y7699373D01*
X5732180Y7663593D01*
X5732180Y7566831D01*
X1814616Y7566831D01*
X1814616Y8661451D01*
X9711514Y8661451D01*
X9711514Y5128031D01*
G37*
X18657788Y22747075D02*
X18657788Y24447075D01*
X18657788Y24447075D02*
X18086359Y24447075D01*
X18086359Y24447075D02*
X17943502Y24366123D01*
X17943502Y24366123D02*
X17872073Y24285170D01*
X17872073Y24285170D02*
X17800645Y24123266D01*
X17800645Y24123266D02*
X17800645Y23880408D01*
X17800645Y23880408D02*
X17872073Y23718504D01*
X17872073Y23718504D02*
X17943502Y23637551D01*
X17943502Y23637551D02*
X18086359Y23556599D01*
X18086359Y23556599D02*
X18657788Y23556599D01*
X17157788Y22747075D02*
X17157788Y24447075D01*
X17157788Y23799456D02*
X17014931Y23880408D01*
X17014931Y23880408D02*
X16729216Y23880408D01*
X16729216Y23880408D02*
X16586359Y23799456D01*
X16586359Y23799456D02*
X16514931Y23718504D01*
X16514931Y23718504D02*
X16443502Y23556599D01*
X16443502Y23556599D02*
X16443502Y23070885D01*
X16443502Y23070885D02*
X16514931Y22908980D01*
X16514931Y22908980D02*
X16586359Y22828027D01*
X16586359Y22828027D02*
X16729216Y22747075D01*
X16729216Y22747075D02*
X17014931Y22747075D01*
X17014931Y22747075D02*
X17157788Y22828027D01*
G36*
X15601135Y20274283D02*
G01*
X9447244Y20274283D01*
X9447244Y20625114D01*
X9592387Y20625114D01*
X9622114Y20560021D01*
X9682314Y20521332D01*
X9718094Y20516188D01*
X10298666Y20516188D01*
X10367327Y20536349D01*
X10414189Y20590430D01*
X10419176Y20625114D01*
X10560006Y20625114D01*
X10589733Y20560021D01*
X10649933Y20521332D01*
X10685713Y20516188D01*
X11169523Y20516188D01*
X11178420Y20518801D01*
X11187597Y20517481D01*
X11211400Y20528352D01*
X11285720Y20528352D01*
X11315447Y20463259D01*
X11375647Y20424570D01*
X11411427Y20419426D01*
X12185523Y20419426D01*
X12254184Y20439587D01*
X12301046Y20493668D01*
X12311230Y20564500D01*
X12281503Y20629593D01*
X12221303Y20668282D01*
X12185523Y20673426D01*
X11411427Y20673426D01*
X11342766Y20653265D01*
X11295904Y20599184D01*
X11285720Y20528352D01*
X11211400Y20528352D01*
X11212215Y20528724D01*
X11238184Y20536349D01*
X11244255Y20543357D01*
X11252690Y20547208D01*
X11267322Y20569977D01*
X11285046Y20590430D01*
X11286365Y20599607D01*
X11291379Y20607408D01*
X11296523Y20643188D01*
X11296523Y21654598D01*
X12155367Y21654598D01*
X12161801Y21619027D01*
X12500468Y20603027D01*
X12518375Y20577261D01*
X12534369Y20550277D01*
X12538603Y20548155D01*
X12541307Y20544265D01*
X12570294Y20532274D01*
X12598345Y20518216D01*
X12603055Y20518721D01*
X12607432Y20516910D01*
X12638299Y20522494D01*
X12669499Y20525834D01*
X12673189Y20528805D01*
X12677850Y20529648D01*
X12700799Y20551035D01*
X12725239Y20570710D01*
X12728151Y20576523D01*
X12730202Y20578433D01*
X12731331Y20582869D01*
X12741434Y20603027D01*
X12819329Y20836711D01*
X13122903Y20836711D01*
X13126146Y20825666D01*
X13124910Y20814218D01*
X13136311Y20779915D01*
X13184692Y20683153D01*
X13186312Y20681411D01*
X13186819Y20679084D01*
X13208481Y20650146D01*
X13256862Y20601765D01*
X13258952Y20600624D01*
X13260168Y20598577D01*
X13289870Y20577975D01*
X13386632Y20529595D01*
X13397962Y20527557D01*
X13407647Y20521332D01*
X13443427Y20516188D01*
X13733713Y20516188D01*
X13744757Y20519432D01*
X13756205Y20518195D01*
X13790508Y20529595D01*
X13887270Y20577975D01*
X13889013Y20579597D01*
X13891340Y20580103D01*
X13920278Y20601765D01*
X13968659Y20650146D01*
X13996223Y20700627D01*
X14090847Y20700627D01*
X14096599Y20674183D01*
X14098530Y20647186D01*
X14104086Y20639763D01*
X14106058Y20630702D01*
X14127721Y20601765D01*
X14176102Y20553385D01*
X14184239Y20548942D01*
X14189795Y20541520D01*
X14202720Y20536700D01*
X14213146Y20527665D01*
X14226802Y20525702D01*
X14238909Y20519091D01*
X14248155Y20519753D01*
X14256843Y20516512D01*
X14270323Y20519445D01*
X14283978Y20517481D01*
X14296526Y20523212D01*
X14310287Y20524196D01*
X14317707Y20529752D01*
X14326768Y20531722D01*
X14344925Y20545315D01*
X14349071Y20547208D01*
X14350569Y20549540D01*
X14355706Y20553385D01*
X14404086Y20601764D01*
X14408530Y20609904D01*
X14415953Y20615460D01*
X14425410Y20640816D01*
X14438382Y20664571D01*
X14437720Y20673821D01*
X14440961Y20682508D01*
X14435208Y20708953D01*
X14433278Y20735948D01*
X14427721Y20743371D01*
X14425750Y20752433D01*
X14404088Y20781371D01*
X14355707Y20829752D01*
X14347566Y20834197D01*
X14345684Y20836711D01*
X14574332Y20836711D01*
X14577575Y20825666D01*
X14576339Y20814218D01*
X14587740Y20779915D01*
X14636121Y20683153D01*
X14637741Y20681411D01*
X14638248Y20679084D01*
X14659910Y20650146D01*
X14708291Y20601765D01*
X14710381Y20600624D01*
X14711597Y20598577D01*
X14741299Y20577975D01*
X14838061Y20529595D01*
X14849391Y20527557D01*
X14859076Y20521332D01*
X14894856Y20516188D01*
X15185142Y20516188D01*
X15196186Y20519432D01*
X15207634Y20518195D01*
X15241937Y20529595D01*
X15338699Y20577975D01*
X15340442Y20579597D01*
X15342769Y20580103D01*
X15371707Y20601765D01*
X15420088Y20650146D01*
X15454382Y20712953D01*
X15449278Y20784331D01*
X15406393Y20841617D01*
X15339345Y20866625D01*
X15269420Y20851414D01*
X15240482Y20829752D01*
X15206673Y20795944D01*
X15155162Y20770188D01*
X14924836Y20770188D01*
X14873324Y20795944D01*
X14854087Y20815181D01*
X14828332Y20866691D01*
X14828332Y21048636D01*
X14854087Y21100146D01*
X14873326Y21119385D01*
X14924836Y21145140D01*
X15039999Y21145140D01*
X15057807Y21150370D01*
X15076367Y21150459D01*
X15091427Y21160242D01*
X15108660Y21165301D01*
X15120814Y21179329D01*
X15136380Y21189438D01*
X15143761Y21205810D01*
X15155522Y21219382D01*
X15158163Y21237754D01*
X15165792Y21254674D01*
X15163150Y21272439D01*
X15165706Y21290214D01*
X15157996Y21307096D01*
X15155266Y21325456D01*
X15136221Y21354777D01*
X15135979Y21355307D01*
X15135803Y21355420D01*
X15135576Y21355770D01*
X14981210Y21532188D01*
X15330285Y21532188D01*
X15398946Y21552349D01*
X15445808Y21606430D01*
X15455992Y21677262D01*
X15426265Y21742355D01*
X15366065Y21781044D01*
X15330285Y21786188D01*
X14701332Y21786188D01*
X14683523Y21780959D01*
X14664964Y21780869D01*
X14649903Y21771087D01*
X14632671Y21766027D01*
X14620516Y21752000D01*
X14604951Y21741890D01*
X14597569Y21725519D01*
X14585809Y21711946D01*
X14583167Y21693575D01*
X14575539Y21676654D01*
X14578180Y21658890D01*
X14575625Y21641114D01*
X14583334Y21624233D01*
X14586065Y21605872D01*
X14605109Y21576552D01*
X14605352Y21576021D01*
X14605527Y21575909D01*
X14605755Y21575558D01*
X14792002Y21362704D01*
X14741298Y21337351D01*
X14739555Y21335731D01*
X14737229Y21335224D01*
X14708291Y21313562D01*
X14659910Y21265181D01*
X14658768Y21263092D01*
X14656723Y21261876D01*
X14636121Y21232174D01*
X14587740Y21135412D01*
X14585701Y21124083D01*
X14579476Y21114396D01*
X14574332Y21078616D01*
X14574332Y20836711D01*
X14345684Y20836711D01*
X14342012Y20841617D01*
X14329088Y20846438D01*
X14318662Y20855472D01*
X14305007Y20857436D01*
X14292900Y20864046D01*
X14283651Y20863385D01*
X14274964Y20866625D01*
X14261484Y20863693D01*
X14247830Y20865656D01*
X14235283Y20859927D01*
X14221522Y20858942D01*
X14214098Y20853385D01*
X14205039Y20851414D01*
X14186880Y20837822D01*
X14182737Y20835929D01*
X14181239Y20833599D01*
X14176101Y20829752D01*
X14127720Y20781371D01*
X14123275Y20773231D01*
X14115854Y20767675D01*
X14106397Y20742321D01*
X14093426Y20718564D01*
X14094087Y20709315D01*
X14090847Y20700627D01*
X13996223Y20700627D01*
X14002953Y20712953D01*
X13997849Y20784331D01*
X13954964Y20841617D01*
X13887916Y20866625D01*
X13817991Y20851414D01*
X13789053Y20829752D01*
X13755244Y20795944D01*
X13703733Y20770188D01*
X13473407Y20770188D01*
X13421895Y20795944D01*
X13402658Y20815181D01*
X13376903Y20866691D01*
X13376903Y21048636D01*
X13402658Y21100146D01*
X13421897Y21119385D01*
X13473407Y21145140D01*
X13588570Y21145140D01*
X13606378Y21150370D01*
X13624938Y21150459D01*
X13639998Y21160242D01*
X13657231Y21165301D01*
X13669385Y21179329D01*
X13684951Y21189438D01*
X13692332Y21205810D01*
X13704093Y21219382D01*
X13706734Y21237754D01*
X13714363Y21254674D01*
X13711721Y21272439D01*
X13714277Y21290214D01*
X13706567Y21307096D01*
X13703837Y21325456D01*
X13684792Y21354777D01*
X13684550Y21355307D01*
X13684374Y21355420D01*
X13684147Y21355770D01*
X13529781Y21532188D01*
X13878856Y21532188D01*
X13947517Y21552349D01*
X13994379Y21606430D01*
X14004563Y21677262D01*
X13974836Y21742355D01*
X13914636Y21781044D01*
X13878856Y21786188D01*
X13249903Y21786188D01*
X13232094Y21780959D01*
X13213535Y21780869D01*
X13198474Y21771087D01*
X13181242Y21766027D01*
X13169087Y21752000D01*
X13153522Y21741890D01*
X13146140Y21725519D01*
X13134380Y21711946D01*
X13131738Y21693575D01*
X13124110Y21676654D01*
X13126751Y21658890D01*
X13124196Y21641114D01*
X13131905Y21624233D01*
X13134636Y21605872D01*
X13153680Y21576552D01*
X13153923Y21576021D01*
X13154098Y21575909D01*
X13154326Y21575558D01*
X13340573Y21362704D01*
X13289869Y21337351D01*
X13288126Y21335731D01*
X13285800Y21335224D01*
X13256862Y21313562D01*
X13208481Y21265181D01*
X13207339Y21263092D01*
X13205294Y21261876D01*
X13184692Y21232174D01*
X13136311Y21135412D01*
X13134272Y21124083D01*
X13128047Y21114396D01*
X13122903Y21078616D01*
X13122903Y20836711D01*
X12819329Y20836711D01*
X13080101Y21619027D01*
X13082687Y21690540D01*
X13046200Y21752099D01*
X12982224Y21784159D01*
X12911070Y21776542D01*
X12855330Y21731666D01*
X12839135Y21699349D01*
X12620951Y21044798D01*
X12402767Y21699349D01*
X12361928Y21758111D01*
X12295803Y21785466D01*
X12225385Y21772729D01*
X12173033Y21723943D01*
X12155367Y21654598D01*
X11296523Y21654598D01*
X11296523Y21659188D01*
X11293910Y21668086D01*
X11295230Y21677262D01*
X11283987Y21701881D01*
X11276362Y21727849D01*
X11269354Y21733921D01*
X11265503Y21742355D01*
X11242734Y21756988D01*
X11222281Y21774711D01*
X11213104Y21776031D01*
X11205303Y21781044D01*
X11169523Y21786188D01*
X10685713Y21786188D01*
X10617052Y21766027D01*
X10570190Y21711946D01*
X10560006Y21641114D01*
X10589733Y21576021D01*
X10649933Y21537332D01*
X10685713Y21532188D01*
X11042523Y21532188D01*
X11042523Y21302378D01*
X10830856Y21302378D01*
X10762195Y21282217D01*
X10715333Y21228136D01*
X10705149Y21157304D01*
X10734876Y21092211D01*
X10795076Y21053522D01*
X10830856Y21048378D01*
X11042523Y21048378D01*
X11042523Y20770188D01*
X10685713Y20770188D01*
X10617052Y20750027D01*
X10570190Y20695946D01*
X10560006Y20625114D01*
X10419176Y20625114D01*
X10424373Y20661262D01*
X10394646Y20726355D01*
X10334446Y20765044D01*
X10298666Y20770188D01*
X10135380Y20770188D01*
X10135380Y21310439D01*
X10145108Y21303691D01*
X10241870Y21255310D01*
X10312298Y21242636D01*
X10378399Y21270050D01*
X10419185Y21328850D01*
X10421706Y21400365D01*
X10385164Y21461892D01*
X10355462Y21482494D01*
X10277134Y21521658D01*
X10203834Y21594959D01*
X10114050Y21729635D01*
X10087408Y21751948D01*
X10061138Y21774711D01*
X10060039Y21774869D01*
X10059189Y21775581D01*
X10024700Y21779950D01*
X9990306Y21784895D01*
X9989297Y21784435D01*
X9988197Y21784574D01*
X9956825Y21769605D01*
X9925213Y21755168D01*
X9924613Y21754235D01*
X9923612Y21753757D01*
X9905332Y21724234D01*
X9886524Y21694968D01*
X9886315Y21693521D01*
X9885941Y21692915D01*
X9885971Y21691123D01*
X9881380Y21659188D01*
X9881380Y20770188D01*
X9718094Y20770188D01*
X9649433Y20750027D01*
X9602571Y20695946D01*
X9592387Y20625114D01*
X9447244Y20625114D01*
X9447244Y21931331D01*
X15601135Y21931331D01*
X15601135Y20274283D01*
G37*
X6860051Y38169333D02*
X6908432Y38217714D01*
X6908432Y38217714D02*
X6956812Y38362857D01*
X6956812Y38362857D02*
X6956812Y38459619D01*
X6956812Y38459619D02*
X6908432Y38604762D01*
X6908432Y38604762D02*
X6811670Y38701524D01*
X6811670Y38701524D02*
X6714908Y38749905D01*
X6714908Y38749905D02*
X6521384Y38798286D01*
X6521384Y38798286D02*
X6376241Y38798286D01*
X6376241Y38798286D02*
X6182717Y38749905D01*
X6182717Y38749905D02*
X6085955Y38701524D01*
X6085955Y38701524D02*
X5989193Y38604762D01*
X5989193Y38604762D02*
X5940812Y38459619D01*
X5940812Y38459619D02*
X5940812Y38362857D01*
X5940812Y38362857D02*
X5989193Y38217714D01*
X5989193Y38217714D02*
X6037574Y38169333D01*
X6956812Y37201714D02*
X6956812Y37782286D01*
X6956812Y37492000D02*
X5940812Y37492000D01*
X5940812Y37492000D02*
X6085955Y37588762D01*
X6085955Y37588762D02*
X6182717Y37685524D01*
X6182717Y37685524D02*
X6231098Y37782286D01*
D10*
X5804513Y28134551D02*
X5804513Y28947351D01*
X5456170Y28134551D02*
X5456170Y28560303D01*
X5456170Y28560303D02*
X5494875Y28637713D01*
X5494875Y28637713D02*
X5572284Y28676417D01*
X5572284Y28676417D02*
X5688398Y28676417D01*
X5688398Y28676417D02*
X5765808Y28637713D01*
X5765808Y28637713D02*
X5804513Y28599008D01*
X4720780Y28134551D02*
X4720780Y28560303D01*
X4720780Y28560303D02*
X4759485Y28637713D01*
X4759485Y28637713D02*
X4836894Y28676417D01*
X4836894Y28676417D02*
X4991713Y28676417D01*
X4991713Y28676417D02*
X5069123Y28637713D01*
X4720780Y28173255D02*
X4798189Y28134551D01*
X4798189Y28134551D02*
X4991713Y28134551D01*
X4991713Y28134551D02*
X5069123Y28173255D01*
X5069123Y28173255D02*
X5107827Y28250665D01*
X5107827Y28250665D02*
X5107827Y28328075D01*
X5107827Y28328075D02*
X5069123Y28405484D01*
X5069123Y28405484D02*
X4991713Y28444189D01*
X4991713Y28444189D02*
X4798189Y28444189D01*
X4798189Y28444189D02*
X4720780Y28482894D01*
X4333733Y28134551D02*
X4333733Y28676417D01*
X4333733Y28521598D02*
X4295028Y28599008D01*
X4295028Y28599008D02*
X4256323Y28637713D01*
X4256323Y28637713D02*
X4178914Y28676417D01*
X4178914Y28676417D02*
X4101504Y28676417D01*
X3482228Y28134551D02*
X3482228Y28947351D01*
X3482228Y28173255D02*
X3559637Y28134551D01*
X3559637Y28134551D02*
X3714456Y28134551D01*
X3714456Y28134551D02*
X3791866Y28173255D01*
X3791866Y28173255D02*
X3830571Y28211960D01*
X3830571Y28211960D02*
X3869275Y28289370D01*
X3869275Y28289370D02*
X3869275Y28521598D01*
X3869275Y28521598D02*
X3830571Y28599008D01*
X3830571Y28599008D02*
X3791866Y28637713D01*
X3791866Y28637713D02*
X3714456Y28676417D01*
X3714456Y28676417D02*
X3559637Y28676417D01*
X3559637Y28676417D02*
X3482228Y28637713D01*
X3172590Y28676417D02*
X3017771Y28134551D01*
X3017771Y28134551D02*
X2862952Y28521598D01*
X2862952Y28521598D02*
X2708133Y28134551D01*
X2708133Y28134551D02*
X2553314Y28676417D01*
X1895333Y28134551D02*
X1895333Y28560303D01*
X1895333Y28560303D02*
X1934038Y28637713D01*
X1934038Y28637713D02*
X2011447Y28676417D01*
X2011447Y28676417D02*
X2166266Y28676417D01*
X2166266Y28676417D02*
X2243676Y28637713D01*
X1895333Y28173255D02*
X1972742Y28134551D01*
X1972742Y28134551D02*
X2166266Y28134551D01*
X2166266Y28134551D02*
X2243676Y28173255D01*
X2243676Y28173255D02*
X2282380Y28250665D01*
X2282380Y28250665D02*
X2282380Y28328075D01*
X2282380Y28328075D02*
X2243676Y28405484D01*
X2243676Y28405484D02*
X2166266Y28444189D01*
X2166266Y28444189D02*
X1972742Y28444189D01*
X1972742Y28444189D02*
X1895333Y28482894D01*
X1508286Y28134551D02*
X1508286Y28676417D01*
X1508286Y28521598D02*
X1469581Y28599008D01*
X1469581Y28599008D02*
X1430876Y28637713D01*
X1430876Y28637713D02*
X1353467Y28676417D01*
X1353467Y28676417D02*
X1276057Y28676417D01*
X695486Y28173255D02*
X772895Y28134551D01*
X772895Y28134551D02*
X927714Y28134551D01*
X927714Y28134551D02*
X1005124Y28173255D01*
X1005124Y28173255D02*
X1043828Y28250665D01*
X1043828Y28250665D02*
X1043828Y28560303D01*
X1043828Y28560303D02*
X1005124Y28637713D01*
X1005124Y28637713D02*
X927714Y28676417D01*
X927714Y28676417D02*
X772895Y28676417D01*
X772895Y28676417D02*
X695486Y28637713D01*
X695486Y28637713D02*
X656781Y28560303D01*
X656781Y28560303D02*
X656781Y28482894D01*
X656781Y28482894D02*
X1043828Y28405484D01*
D13*
X9248832Y28100288D02*
X9333499Y28142621D01*
X9333499Y28142621D02*
X9375832Y28184955D01*
X9375832Y28184955D02*
X9418165Y28269621D01*
X9418165Y28269621D02*
X9418165Y28523621D01*
X9418165Y28523621D02*
X9375832Y28608288D01*
X9375832Y28608288D02*
X9333499Y28650621D01*
X9333499Y28650621D02*
X9248832Y28692955D01*
X9248832Y28692955D02*
X9121832Y28692955D01*
X9121832Y28692955D02*
X9037165Y28650621D01*
X9037165Y28650621D02*
X8994832Y28608288D01*
X8994832Y28608288D02*
X8952499Y28523621D01*
X8952499Y28523621D02*
X8952499Y28269621D01*
X8952499Y28269621D02*
X8994832Y28184955D01*
X8994832Y28184955D02*
X9037165Y28142621D01*
X9037165Y28142621D02*
X9121832Y28100288D01*
X9121832Y28100288D02*
X9248832Y28100288D01*
X8571499Y28692955D02*
X8571499Y27803955D01*
X8571499Y28650621D02*
X8486832Y28692955D01*
X8486832Y28692955D02*
X8317499Y28692955D01*
X8317499Y28692955D02*
X8232832Y28650621D01*
X8232832Y28650621D02*
X8190499Y28608288D01*
X8190499Y28608288D02*
X8148166Y28523621D01*
X8148166Y28523621D02*
X8148166Y28269621D01*
X8148166Y28269621D02*
X8190499Y28184955D01*
X8190499Y28184955D02*
X8232832Y28142621D01*
X8232832Y28142621D02*
X8317499Y28100288D01*
X8317499Y28100288D02*
X8486832Y28100288D01*
X8486832Y28100288D02*
X8571499Y28142621D01*
X7428499Y28142621D02*
X7513166Y28100288D01*
X7513166Y28100288D02*
X7682499Y28100288D01*
X7682499Y28100288D02*
X7767166Y28142621D01*
X7767166Y28142621D02*
X7809499Y28227288D01*
X7809499Y28227288D02*
X7809499Y28565955D01*
X7809499Y28565955D02*
X7767166Y28650621D01*
X7767166Y28650621D02*
X7682499Y28692955D01*
X7682499Y28692955D02*
X7513166Y28692955D01*
X7513166Y28692955D02*
X7428499Y28650621D01*
X7428499Y28650621D02*
X7386166Y28565955D01*
X7386166Y28565955D02*
X7386166Y28481288D01*
X7386166Y28481288D02*
X7809499Y28396621D01*
X7005166Y28692955D02*
X7005166Y28100288D01*
X7005166Y28608288D02*
X6962833Y28650621D01*
X6962833Y28650621D02*
X6878166Y28692955D01*
X6878166Y28692955D02*
X6751166Y28692955D01*
X6751166Y28692955D02*
X6666499Y28650621D01*
X6666499Y28650621D02*
X6624166Y28565955D01*
X6624166Y28565955D02*
X6624166Y28100288D01*
D11*
G36*
X8638720Y27056433D02*
G01*
X8696037Y26999116D01*
X8732095Y26854887D01*
X8732095Y26547488D01*
X8696037Y26403260D01*
X8638721Y26345944D01*
X8587210Y26320188D01*
X8453646Y26320188D01*
X8402132Y26345945D01*
X8344818Y26403260D01*
X8308761Y26547488D01*
X8308761Y26854887D01*
X8344818Y26999116D01*
X8402134Y27056433D01*
X8453646Y27082188D01*
X8587210Y27082188D01*
X8638720Y27056433D01*
G37*
G36*
X9699714Y26803997D02*
G01*
X9469646Y26803997D01*
X9418136Y26829752D01*
X9398897Y26848991D01*
X9373142Y26900501D01*
X9373142Y26985684D01*
X9398897Y27037194D01*
X9418136Y27056433D01*
X9469646Y27082188D01*
X9699714Y27082188D01*
X9699714Y26803997D01*
G37*
G36*
X10715714Y26803997D02*
G01*
X10485646Y26803997D01*
X10434136Y26829752D01*
X10414897Y26848991D01*
X10389142Y26900501D01*
X10389142Y26985684D01*
X10414897Y27037194D01*
X10434136Y27056433D01*
X10485646Y27082188D01*
X10715714Y27082188D01*
X10715714Y26803997D01*
G37*
G36*
X12989619Y26803997D02*
G01*
X12759551Y26803997D01*
X12708041Y26829752D01*
X12688802Y26848991D01*
X12663047Y26900501D01*
X12663047Y26985684D01*
X12688802Y27037194D01*
X12708041Y27056433D01*
X12759551Y27082188D01*
X12989619Y27082188D01*
X12989619Y26803997D01*
G37*
G36*
X15275619Y25921045D02*
G01*
X5927292Y25921045D01*
X5927292Y26175114D01*
X6072435Y26175114D01*
X6102162Y26110021D01*
X6162362Y26071332D01*
X6198142Y26066188D01*
X6778714Y26066188D01*
X6847375Y26086349D01*
X6894237Y26140430D01*
X6904421Y26211262D01*
X6874694Y26276355D01*
X6853542Y26289949D01*
X7038761Y26289949D01*
X7047615Y26259793D01*
X7054296Y26229084D01*
X7058141Y26223948D01*
X7058922Y26221288D01*
X7062365Y26218305D01*
X7075958Y26200146D01*
X7124339Y26151765D01*
X7134444Y26146247D01*
X7141665Y26137279D01*
X7173982Y26121085D01*
X7319125Y26072705D01*
X7321502Y26072620D01*
X7323505Y26071332D01*
X7359285Y26066188D01*
X7456047Y26066188D01*
X7458330Y26066859D01*
X7460637Y26066271D01*
X7496207Y26072705D01*
X7641350Y26121085D01*
X7650804Y26127656D01*
X7662055Y26130103D01*
X7690993Y26151765D01*
X7787754Y26248527D01*
X7788894Y26250617D01*
X7790942Y26251832D01*
X7811544Y26281534D01*
X7859925Y26378296D01*
X7860713Y26382677D01*
X7869541Y26404290D01*
X7901432Y26531854D01*
X8054761Y26531854D01*
X8055733Y26528542D01*
X8058553Y26501052D01*
X8106934Y26307528D01*
X8115203Y26293434D01*
X8118677Y26277465D01*
X8140339Y26248527D01*
X8237101Y26151766D01*
X8239190Y26150625D01*
X8240407Y26148577D01*
X8270109Y26127975D01*
X8366871Y26079595D01*
X8378201Y26077557D01*
X8387886Y26071332D01*
X8423666Y26066188D01*
X8617190Y26066188D01*
X8628234Y26069432D01*
X8639682Y26068195D01*
X8673985Y26079595D01*
X8770747Y26127975D01*
X8772490Y26129597D01*
X8774817Y26130103D01*
X8803755Y26151765D01*
X8900516Y26248527D01*
X8908347Y26262869D01*
X8920254Y26274064D01*
X8933922Y26307528D01*
X8982303Y26501052D01*
X8982162Y26504503D01*
X8986095Y26531854D01*
X8986095Y26870521D01*
X9119142Y26870521D01*
X9122385Y26859476D01*
X9121149Y26848028D01*
X9132550Y26813725D01*
X9180931Y26716963D01*
X9182551Y26715221D01*
X9183058Y26712894D01*
X9204720Y26683956D01*
X9253101Y26635575D01*
X9255190Y26634434D01*
X9256406Y26632388D01*
X9286108Y26611786D01*
X9358722Y26575479D01*
X9142100Y26266018D01*
X9119242Y26198207D01*
X9136673Y26128803D01*
X9188860Y26079840D01*
X9259234Y26066865D01*
X9325452Y26093996D01*
X9350184Y26120358D01*
X9650932Y26549997D01*
X9699714Y26549997D01*
X9699714Y26193188D01*
X9719875Y26124527D01*
X9773956Y26077665D01*
X9844788Y26067481D01*
X9909881Y26097208D01*
X9948570Y26157408D01*
X9953714Y26193188D01*
X9953714Y26870521D01*
X10135142Y26870521D01*
X10138385Y26859476D01*
X10137149Y26848028D01*
X10148550Y26813725D01*
X10196931Y26716963D01*
X10198551Y26715221D01*
X10199058Y26712894D01*
X10220720Y26683956D01*
X10269101Y26635575D01*
X10271190Y26634434D01*
X10272406Y26632388D01*
X10302108Y26611786D01*
X10398870Y26563405D01*
X10410199Y26561367D01*
X10419886Y26555141D01*
X10455666Y26549997D01*
X10715714Y26549997D01*
X10715714Y26193188D01*
X10735875Y26124527D01*
X10789956Y26077665D01*
X10860788Y26067481D01*
X10925881Y26097208D01*
X10964570Y26157408D01*
X10969714Y26193188D01*
X10969714Y26562161D01*
X11200817Y26562161D01*
X11230544Y26497068D01*
X11290744Y26458379D01*
X11326524Y26453235D01*
X12100619Y26453235D01*
X12169280Y26473396D01*
X12216142Y26527477D01*
X12226326Y26598309D01*
X12196599Y26663402D01*
X12136399Y26702091D01*
X12100619Y26707235D01*
X11326524Y26707235D01*
X11257863Y26687074D01*
X11211001Y26632993D01*
X11200817Y26562161D01*
X10969714Y26562161D01*
X10969714Y26870521D01*
X12409047Y26870521D01*
X12412290Y26859476D01*
X12411054Y26848028D01*
X12422455Y26813725D01*
X12470836Y26716963D01*
X12472456Y26715221D01*
X12472963Y26712894D01*
X12494625Y26683956D01*
X12543006Y26635575D01*
X12545095Y26634434D01*
X12546311Y26632388D01*
X12576013Y26611786D01*
X12672775Y26563405D01*
X12684104Y26561367D01*
X12693791Y26555141D01*
X12729571Y26549997D01*
X12989619Y26549997D01*
X12989619Y26193188D01*
X13009780Y26124527D01*
X13063861Y26077665D01*
X13134693Y26067481D01*
X13199786Y26097208D01*
X13238475Y26157408D01*
X13243619Y26193188D01*
X13243619Y26386711D01*
X13425047Y26386711D01*
X13428290Y26375666D01*
X13427054Y26364218D01*
X13438455Y26329915D01*
X13486836Y26233153D01*
X13488456Y26231411D01*
X13488963Y26229084D01*
X13510625Y26200146D01*
X13559006Y26151765D01*
X13561096Y26150624D01*
X13562312Y26148577D01*
X13592014Y26127975D01*
X13688776Y26079595D01*
X13700106Y26077557D01*
X13709791Y26071332D01*
X13745571Y26066188D01*
X13987476Y26066188D01*
X13989759Y26066859D01*
X13992066Y26066271D01*
X14027636Y26072705D01*
X14172779Y26121085D01*
X14231542Y26161924D01*
X14236999Y26175114D01*
X14393959Y26175114D01*
X14423686Y26110021D01*
X14483886Y26071332D01*
X14519666Y26066188D01*
X15003476Y26066188D01*
X15012373Y26068801D01*
X15021550Y26067481D01*
X15046168Y26078724D01*
X15072137Y26086349D01*
X15078208Y26093357D01*
X15086643Y26097208D01*
X15101275Y26119977D01*
X15118999Y26140430D01*
X15120318Y26149607D01*
X15125332Y26157408D01*
X15130476Y26193188D01*
X15130476Y27209188D01*
X15127863Y27218086D01*
X15129183Y27227262D01*
X15117940Y27251881D01*
X15110315Y27277849D01*
X15103307Y27283921D01*
X15099456Y27292355D01*
X15076687Y27306988D01*
X15056234Y27324711D01*
X15047057Y27326031D01*
X15039256Y27331044D01*
X15003476Y27336188D01*
X14519666Y27336188D01*
X14451005Y27316027D01*
X14404143Y27261946D01*
X14393959Y27191114D01*
X14423686Y27126021D01*
X14483886Y27087332D01*
X14519666Y27082188D01*
X14876476Y27082188D01*
X14876476Y26852378D01*
X14664809Y26852378D01*
X14596148Y26832217D01*
X14549286Y26778136D01*
X14539102Y26707304D01*
X14568829Y26642211D01*
X14629029Y26603522D01*
X14664809Y26598378D01*
X14876476Y26598378D01*
X14876476Y26320188D01*
X14519666Y26320188D01*
X14451005Y26300027D01*
X14404143Y26245946D01*
X14393959Y26175114D01*
X14236999Y26175114D01*
X14258897Y26228048D01*
X14246160Y26298466D01*
X14197375Y26350818D01*
X14128030Y26368485D01*
X14092459Y26362051D01*
X13966867Y26320188D01*
X13775551Y26320188D01*
X13724039Y26345944D01*
X13704802Y26365181D01*
X13679047Y26416691D01*
X13679047Y26453493D01*
X13704802Y26505003D01*
X13724041Y26524242D01*
X13789897Y26557170D01*
X13969897Y26602170D01*
X13973736Y26604423D01*
X13995891Y26611786D01*
X14092653Y26660167D01*
X14094395Y26661788D01*
X14096722Y26662294D01*
X14125660Y26683956D01*
X14174041Y26732337D01*
X14175182Y26734427D01*
X14177228Y26735642D01*
X14197830Y26765344D01*
X14246211Y26862106D01*
X14248249Y26873436D01*
X14254475Y26883122D01*
X14259619Y26918902D01*
X14259619Y27015664D01*
X14256375Y27026710D01*
X14257612Y27038157D01*
X14246211Y27072460D01*
X14197830Y27169222D01*
X14196209Y27170965D01*
X14195703Y27173291D01*
X14174041Y27202229D01*
X14125660Y27250610D01*
X14123570Y27251752D01*
X14122355Y27253797D01*
X14092653Y27274399D01*
X13995891Y27322780D01*
X13984561Y27324819D01*
X13974875Y27331044D01*
X13939095Y27336188D01*
X13697190Y27336188D01*
X13694905Y27335518D01*
X13692599Y27336105D01*
X13657029Y27329671D01*
X13511886Y27281290D01*
X13453124Y27240451D01*
X13425769Y27174326D01*
X13438506Y27103908D01*
X13487292Y27051556D01*
X13556637Y27033890D01*
X13592208Y27040324D01*
X13717800Y27082188D01*
X13909115Y27082188D01*
X13960625Y27056433D01*
X13979864Y27037194D01*
X14005619Y26985684D01*
X14005619Y26948882D01*
X13979864Y26897372D01*
X13960625Y26878133D01*
X13894769Y26845205D01*
X13714769Y26800205D01*
X13710929Y26797953D01*
X13688775Y26790589D01*
X13592013Y26742208D01*
X13590270Y26740588D01*
X13587944Y26740081D01*
X13559006Y26718419D01*
X13510625Y26670038D01*
X13509483Y26667949D01*
X13507438Y26666733D01*
X13486836Y26637031D01*
X13438455Y26540269D01*
X13436416Y26528940D01*
X13430191Y26519253D01*
X13425047Y26483473D01*
X13425047Y26386711D01*
X13243619Y26386711D01*
X13243619Y27209188D01*
X13241006Y27218086D01*
X13242326Y27227262D01*
X13231083Y27251881D01*
X13223458Y27277849D01*
X13216450Y27283921D01*
X13212599Y27292355D01*
X13189830Y27306988D01*
X13169377Y27324711D01*
X13160200Y27326031D01*
X13152399Y27331044D01*
X13116619Y27336188D01*
X12729571Y27336188D01*
X12718525Y27332945D01*
X12707078Y27334181D01*
X12672775Y27322780D01*
X12576013Y27274399D01*
X12574270Y27272779D01*
X12571944Y27272272D01*
X12543006Y27250610D01*
X12494625Y27202229D01*
X12493483Y27200140D01*
X12491438Y27198924D01*
X12470836Y27169222D01*
X12422455Y27072460D01*
X12420416Y27061131D01*
X12414191Y27051444D01*
X12409047Y27015664D01*
X12409047Y26870521D01*
X10969714Y26870521D01*
X10969714Y27209188D01*
X10967101Y27218086D01*
X10968421Y27227262D01*
X10957178Y27251881D01*
X10949553Y27277849D01*
X10942545Y27283921D01*
X10938694Y27292355D01*
X10915925Y27306988D01*
X10895472Y27324711D01*
X10886295Y27326031D01*
X10878494Y27331044D01*
X10842714Y27336188D01*
X10455666Y27336188D01*
X10444620Y27332945D01*
X10433173Y27334181D01*
X10398870Y27322780D01*
X10302108Y27274399D01*
X10300365Y27272779D01*
X10298039Y27272272D01*
X10269101Y27250610D01*
X10220720Y27202229D01*
X10219578Y27200140D01*
X10217533Y27198924D01*
X10196931Y27169222D01*
X10148550Y27072460D01*
X10146511Y27061131D01*
X10140286Y27051444D01*
X10135142Y27015664D01*
X10135142Y26870521D01*
X9953714Y26870521D01*
X9953714Y27209188D01*
X9951101Y27218086D01*
X9952421Y27227262D01*
X9941178Y27251881D01*
X9933553Y27277849D01*
X9926545Y27283921D01*
X9922694Y27292355D01*
X9899925Y27306988D01*
X9879472Y27324711D01*
X9870295Y27326031D01*
X9862494Y27331044D01*
X9826714Y27336188D01*
X9439666Y27336188D01*
X9428620Y27332945D01*
X9417173Y27334181D01*
X9382870Y27322780D01*
X9286108Y27274399D01*
X9284365Y27272779D01*
X9282039Y27272272D01*
X9253101Y27250610D01*
X9204720Y27202229D01*
X9203578Y27200140D01*
X9201533Y27198924D01*
X9180931Y27169222D01*
X9132550Y27072460D01*
X9130511Y27061131D01*
X9124286Y27051444D01*
X9119142Y27015664D01*
X9119142Y26870521D01*
X8986095Y26870521D01*
X8985122Y26873834D01*
X8982303Y26901323D01*
X8933922Y27094847D01*
X8925652Y27108942D01*
X8922179Y27124910D01*
X8900516Y27153848D01*
X8803755Y27250610D01*
X8801665Y27251752D01*
X8800450Y27253797D01*
X8770748Y27274399D01*
X8673986Y27322780D01*
X8662656Y27324819D01*
X8652970Y27331044D01*
X8617190Y27336188D01*
X8423666Y27336188D01*
X8412620Y27332945D01*
X8401173Y27334181D01*
X8366870Y27322780D01*
X8270108Y27274399D01*
X8268365Y27272779D01*
X8266039Y27272272D01*
X8237101Y27250609D01*
X8140339Y27153848D01*
X8132507Y27139505D01*
X8120602Y27128311D01*
X8106934Y27094847D01*
X8058553Y26901323D01*
X8058693Y26897873D01*
X8054761Y26870521D01*
X8054761Y26531854D01*
X7901432Y26531854D01*
X7917922Y26597814D01*
X7917781Y26601265D01*
X7921714Y26628616D01*
X7921714Y26773759D01*
X7920741Y26777072D01*
X7917922Y26804561D01*
X7869541Y26998085D01*
X7867288Y27001925D01*
X7859925Y27024079D01*
X7811544Y27120841D01*
X7809923Y27122584D01*
X7809417Y27124910D01*
X7787754Y27153848D01*
X7690993Y27250610D01*
X7680887Y27256128D01*
X7673668Y27265095D01*
X7641351Y27281290D01*
X7496208Y27329671D01*
X7493829Y27329758D01*
X7491827Y27331044D01*
X7456047Y27336188D01*
X7310904Y27336188D01*
X7299858Y27332945D01*
X7288411Y27334181D01*
X7254108Y27322780D01*
X7157346Y27274399D01*
X7104950Y27225661D01*
X7087221Y27156332D01*
X7109789Y27088423D01*
X7165488Y27043497D01*
X7236635Y27035814D01*
X7270938Y27047215D01*
X7340884Y27082188D01*
X7435437Y27082188D01*
X7532586Y27049805D01*
X7593577Y26988815D01*
X7626506Y26922957D01*
X7667714Y26758125D01*
X7667714Y26644250D01*
X7626506Y26479418D01*
X7593577Y26413561D01*
X7532586Y26352570D01*
X7435438Y26320188D01*
X7379894Y26320188D01*
X7292761Y26349232D01*
X7292761Y26501616D01*
X7359285Y26501616D01*
X7427946Y26521777D01*
X7474808Y26575858D01*
X7484992Y26646690D01*
X7455265Y26711783D01*
X7395065Y26750472D01*
X7359285Y26755616D01*
X7165761Y26755616D01*
X7156863Y26753004D01*
X7147687Y26754323D01*
X7123068Y26743081D01*
X7097100Y26735455D01*
X7091028Y26728448D01*
X7082594Y26724596D01*
X7067961Y26701828D01*
X7050238Y26681374D01*
X7048918Y26672198D01*
X7043905Y26664396D01*
X7038761Y26628616D01*
X7038761Y26289949D01*
X6853542Y26289949D01*
X6814494Y26315044D01*
X6778714Y26320188D01*
X6615428Y26320188D01*
X6615428Y26860439D01*
X6625156Y26853691D01*
X6721918Y26805310D01*
X6792346Y26792636D01*
X6858447Y26820050D01*
X6899233Y26878850D01*
X6901754Y26950365D01*
X6865212Y27011892D01*
X6835510Y27032494D01*
X6757182Y27071658D01*
X6683882Y27144959D01*
X6594098Y27279635D01*
X6567456Y27301948D01*
X6541186Y27324711D01*
X6540087Y27324869D01*
X6539237Y27325581D01*
X6504748Y27329950D01*
X6470354Y27334895D01*
X6469345Y27334435D01*
X6468245Y27334574D01*
X6436873Y27319605D01*
X6405261Y27305168D01*
X6404661Y27304235D01*
X6403660Y27303757D01*
X6385380Y27274234D01*
X6366572Y27244968D01*
X6366363Y27243521D01*
X6365989Y27242915D01*
X6366019Y27241123D01*
X6361428Y27209188D01*
X6361428Y26320188D01*
X6198142Y26320188D01*
X6129481Y26300027D01*
X6082619Y26245946D01*
X6072435Y26175114D01*
X5927292Y26175114D01*
X5927292Y27481331D01*
X15275619Y27481331D01*
X15275619Y25921045D01*
G37*
X1960051Y38169333D02*
X2008432Y38217714D01*
X2008432Y38217714D02*
X2056812Y38362857D01*
X2056812Y38362857D02*
X2056812Y38459619D01*
X2056812Y38459619D02*
X2008432Y38604762D01*
X2008432Y38604762D02*
X1911670Y38701524D01*
X1911670Y38701524D02*
X1814908Y38749905D01*
X1814908Y38749905D02*
X1621384Y38798286D01*
X1621384Y38798286D02*
X1476241Y38798286D01*
X1476241Y38798286D02*
X1282717Y38749905D01*
X1282717Y38749905D02*
X1185955Y38701524D01*
X1185955Y38701524D02*
X1089193Y38604762D01*
X1089193Y38604762D02*
X1040812Y38459619D01*
X1040812Y38459619D02*
X1040812Y38362857D01*
X1040812Y38362857D02*
X1089193Y38217714D01*
X1089193Y38217714D02*
X1137574Y38169333D01*
X1137574Y37782286D02*
X1089193Y37733905D01*
X1089193Y37733905D02*
X1040812Y37637143D01*
X1040812Y37637143D02*
X1040812Y37395238D01*
X1040812Y37395238D02*
X1089193Y37298476D01*
X1089193Y37298476D02*
X1137574Y37250095D01*
X1137574Y37250095D02*
X1234336Y37201714D01*
X1234336Y37201714D02*
X1331098Y37201714D01*
X1331098Y37201714D02*
X1476241Y37250095D01*
X1476241Y37250095D02*
X2056812Y37830667D01*
X2056812Y37830667D02*
X2056812Y37201714D01*
D14*
%TO.C,Sign_PB-Free*%
X18863980Y24663320D02*
X16430660Y22242700D01*
D11*
X19505437Y23500000D02*
G75*
G03*
X15900963Y23500000I-1802237J0D01*
G01*
X15900963Y23500000D02*
G75*
G03*
X19505437Y23500000I1802237J0D01*
G01*
D10*
%TO.C,3.3V_E1*%
X9181800Y21881000D02*
X9181800Y21119000D01*
X9004000Y20941200D02*
X7734000Y20941200D01*
X7734000Y22058800D02*
X9004000Y22058800D01*
X7556200Y21119000D02*
X7556200Y21881000D01*
X8978601Y20941199D02*
G75*
G03*
X9181801Y21144399I25400J177800D01*
G01*
X9181801Y21855601D02*
G75*
G03*
X8978601Y22058801I-177800J25400D01*
G01*
X7556200Y21144400D02*
G75*
G03*
X7759400Y20941200I177800J-25400D01*
G01*
X7759400Y22058800D02*
G75*
G03*
X7556200Y21855600I-25400J-177800D01*
G01*
D15*
%TO.C,Sign_RecycleBin_1*%
X5386500Y21127000D02*
X5386500Y21889000D01*
X5386500Y21889000D02*
X814500Y21889000D01*
X5335700Y21228600D02*
X916100Y21228600D01*
X5335700Y21533400D02*
X865300Y21533400D01*
X5335700Y21685800D02*
X916100Y21685800D01*
X5335700Y21736600D02*
X865300Y21736600D01*
D11*
X5180500Y26665000D02*
X989500Y22474000D01*
X5053500Y22601000D02*
X989500Y26538000D01*
X4545500Y26157000D02*
X1624500Y26157000D01*
X4037500Y22601000D02*
X3529500Y22601000D01*
X4037500Y22982000D02*
X4291500Y26030000D01*
X4037500Y22982000D02*
X4037500Y22601000D01*
X4037500Y22982000D02*
X2640500Y22982000D01*
X4037500Y26284000D02*
X4037500Y26792000D01*
X4037500Y26792000D02*
X3910500Y26792000D01*
X3910500Y26792000D02*
X3910500Y26284000D01*
X3529500Y22601000D02*
X3529500Y22855000D01*
X3275500Y25268000D02*
X3275500Y25649000D01*
X3275500Y25649000D02*
X2386500Y25649000D01*
X3275500Y26919000D02*
X2894500Y26919000D01*
X3275500Y27046000D02*
X3275500Y26919000D01*
X3148500Y25522000D02*
X2513500Y25522000D01*
X2894500Y26919000D02*
X2894500Y27046000D01*
X2894500Y27046000D02*
X3275500Y27046000D01*
X2386500Y25268000D02*
X3275500Y25268000D01*
X2386500Y25649000D02*
X2386500Y25268000D01*
X2132500Y23490000D02*
X2005500Y25522000D01*
X2005500Y25649000D02*
X1624500Y25649000D01*
X2005500Y26157000D02*
X2005500Y25649000D01*
X1878500Y25649000D02*
X1878500Y26030000D01*
X1878500Y26030000D02*
X1878500Y25903000D01*
X1878500Y26030000D02*
X1878500Y25903000D01*
X1878500Y26030000D02*
X1751500Y26030000D01*
X1878500Y26157000D02*
X1751500Y25776000D01*
X1751500Y26030000D02*
X1751500Y25649000D01*
X1624500Y25649000D02*
X1624500Y26157000D01*
D15*
X916100Y21330200D02*
X5284900Y21330200D01*
X865300Y21431800D02*
X5284900Y21431800D01*
X865300Y21584200D02*
X5284900Y21584200D01*
X865300Y21838200D02*
X5284900Y21838200D01*
X814500Y21127000D02*
X5386500Y21127000D01*
X814500Y21889000D02*
X814500Y21127000D01*
D11*
X4291500Y26284000D02*
G75*
G03*
X2005500Y26284000I-1143000J-1143000D01*
G01*
D16*
X2259500Y22982000D02*
G75*
G03*
X2005500Y22982000I-127000J0D01*
G01*
X2005500Y22982000D02*
G75*
G03*
X2259500Y22982000I127000J0D01*
G01*
D11*
X2534109Y22982000D02*
G75*
G03*
X1730891Y22982000I-401609J0D01*
G01*
X1730891Y22982000D02*
G75*
G03*
X2534109Y22982000I401609J0D01*
G01*
D17*
%TO.C,Logo_OLIMEX_TB*%
X16751000Y11799165D02*
X16166800Y11227665D01*
X16751000Y13767665D02*
X16751000Y13526365D01*
X16751000Y13818465D02*
X16243000Y14326465D01*
X16738300Y11786465D02*
X16738300Y12548465D01*
X16179500Y11227665D02*
X15138100Y11227665D01*
X15150800Y14402665D02*
X14515800Y13793065D01*
X15150800Y14415365D02*
X16154100Y14415365D01*
X14541200Y11837265D02*
X15100000Y11253065D01*
X14528500Y13805765D02*
X14528500Y11875365D01*
D18*
X13677600Y14758265D02*
X13677600Y11608665D01*
X13664900Y14758265D02*
X13677600Y14758265D01*
X13652200Y14758265D02*
X13664900Y14758265D01*
X13537900Y14669365D02*
X13601400Y14682065D01*
D17*
X13372800Y11684865D02*
X13372800Y14415365D01*
D18*
X13372800Y14758265D02*
X13652200Y14758265D01*
X13360100Y14758265D02*
X13055300Y14758265D01*
X13233100Y14682065D02*
X13118800Y14682065D01*
X13055300Y14758265D02*
X13055300Y11722965D01*
D17*
X12915600Y11240365D02*
X13372800Y11697565D01*
X11929800Y11240365D02*
X12915600Y11240365D01*
D18*
X11734500Y12053165D02*
X11124900Y12053165D01*
X11734500Y14072465D02*
X11734500Y12053165D01*
X11594800Y12116665D02*
X11658300Y12116665D01*
D17*
X11417000Y13958165D02*
X11417000Y12357965D01*
D18*
X11251900Y12116665D02*
X11163000Y12116665D01*
X11124900Y12053165D02*
X11099500Y12053165D01*
X11099500Y12053165D02*
X11099500Y14072465D01*
X10515300Y11710265D02*
X10515300Y14694765D01*
X10515300Y14707465D02*
X9270700Y14707465D01*
X10362900Y14643965D02*
X10439100Y14643965D01*
D17*
X10197800Y11799165D02*
X10197800Y14389965D01*
X10197800Y14389965D02*
X9359600Y14389965D01*
X9359600Y14389965D02*
X8750000Y13881965D01*
D18*
X9270700Y14707465D02*
X8686500Y14224865D01*
D17*
X8648400Y13094565D02*
X8648400Y13805765D01*
X8572200Y13881965D02*
X7937200Y14389965D01*
D18*
X8026100Y14707465D02*
X8648400Y14212165D01*
X8000700Y14707465D02*
X8026100Y14707465D01*
D17*
X7937200Y14389965D02*
X7048200Y14389965D01*
X7035500Y14402665D02*
X7035500Y11799165D01*
D18*
X6857700Y14631265D02*
X6756100Y14631265D01*
X6705300Y11684865D02*
X6705300Y14694765D01*
X6705300Y14694765D02*
X6705300Y14707465D01*
X6705300Y14707465D02*
X8000700Y14707465D01*
D17*
X5778200Y11672165D02*
X5346400Y11240365D01*
X5778200Y13907365D02*
X5778200Y11672165D01*
X5778200Y13932765D02*
X5295600Y14440765D01*
X5346400Y11240365D02*
X4025600Y11240365D01*
D18*
X5333700Y14745565D02*
X3962100Y14745565D01*
D17*
X5247500Y14415365D02*
X4025600Y14415365D01*
X4559000Y12840565D02*
X5778200Y12840565D01*
X4025600Y11240365D02*
X2882600Y12357965D01*
X4025600Y14415365D02*
X2933400Y13348565D01*
D18*
X3962100Y14745565D02*
X3911300Y14745565D01*
X3911300Y14745565D02*
X2654000Y13500965D01*
D19*
X2908000Y13234265D02*
X2349200Y13234265D01*
X2882600Y12459565D02*
X2349200Y12459565D01*
D17*
X1536400Y11545165D02*
X2374600Y12357965D01*
X1485600Y14224865D02*
X2349200Y13331165D01*
D20*
X17075747Y13043765D02*
G75*
G03*
X16400853Y13043765I-337447J0D01*
G01*
X16400853Y13043765D02*
G75*
G03*
X17075747Y13043765I337447J0D01*
G01*
X11783324Y11265765D02*
G75*
G03*
X11050676Y11265765I-366324J0D01*
G01*
X11050676Y11265765D02*
G75*
G03*
X11783324Y11265765I366324J0D01*
G01*
X11777818Y14491565D02*
G75*
G03*
X11030782Y14491565I-373518J0D01*
G01*
X11030782Y14491565D02*
G75*
G03*
X11777818Y14491565I373518J0D01*
G01*
X10544759Y11291165D02*
G75*
G03*
X9825441Y11291165I-359659J0D01*
G01*
X9825441Y11291165D02*
G75*
G03*
X10544759Y11291165I359659J0D01*
G01*
X9019318Y12561165D02*
G75*
G03*
X8277482Y12561165I-370918J0D01*
G01*
X8277482Y12561165D02*
G75*
G03*
X9019318Y12561165I370918J0D01*
G01*
X7398729Y11278465D02*
G75*
G03*
X6672271Y11278465I-363229J0D01*
G01*
X6672271Y11278465D02*
G75*
G03*
X7398729Y11278465I363229J0D01*
G01*
X4410659Y12840565D02*
G75*
G03*
X3691341Y12840565I-359659J0D01*
G01*
X3691341Y12840565D02*
G75*
G03*
X4410659Y12840565I359659J0D01*
G01*
X1535666Y11189565D02*
G75*
G03*
X876734Y11189565I-329466J0D01*
G01*
X876734Y11189565D02*
G75*
G03*
X1535666Y11189565I329466J0D01*
G01*
X1476735Y14580465D02*
G75*
G03*
X757865Y14580465I-359435J0D01*
G01*
X757865Y14580465D02*
G75*
G03*
X1476735Y14580465I359435J0D01*
G01*
D11*
%TO.C,Sign_CE*%
X16750000Y36000000D02*
X16750000Y35500000D01*
X16750000Y39500000D02*
X16750000Y39000000D01*
X14750000Y37750000D02*
X13500000Y37750000D01*
X13500000Y37250000D02*
X14750000Y37250000D01*
X13500000Y37500000D02*
X14750000Y37500000D01*
X13500000Y37750000D02*
X13500000Y37250000D01*
X13250000Y36000000D02*
X13250000Y35500000D01*
X13250000Y39500000D02*
X13250000Y39000000D01*
D21*
X16799980Y35750000D02*
G75*
G03*
X16800000Y39250000I-49979J1750000D01*
G01*
D11*
X16750000Y36000000D02*
G75*
G03*
X16750000Y39000000I0J1500000D01*
G01*
X16750000Y35500000D02*
G75*
G03*
X16750000Y39500000I0J2000000D01*
G01*
D21*
X13299980Y35750000D02*
G75*
G03*
X13300000Y39250000I-49980J1750000D01*
G01*
D11*
X13250000Y36000000D02*
G75*
G03*
X13250000Y39000000I0J1500000D01*
G01*
X13250000Y35500000D02*
G75*
G03*
X13250000Y39500000I0J2000000D01*
G01*
D22*
%TO.C,C1*%
X5444500Y38254000D02*
X5444500Y37746000D01*
X4555500Y38254000D02*
X4555500Y37746000D01*
D15*
%TO.C,Sign_OSHW_8x8*%
X9118420Y33199440D02*
X7947480Y33402640D01*
X9115880Y32203760D02*
X8044000Y32008180D01*
X9115880Y33196900D02*
X9115880Y32211380D01*
D23*
X8978720Y33105460D02*
X7960180Y33285800D01*
X8976180Y32315520D02*
X8026220Y32097080D01*
D15*
X8966020Y32953060D02*
X7850960Y33199440D01*
D24*
X8966020Y33092760D02*
X8971100Y32305360D01*
D15*
X8823780Y33008940D02*
X8823780Y32358700D01*
D25*
X8508820Y32711760D02*
X7091500Y32772720D01*
D15*
X8353880Y30296220D02*
X7756980Y31159820D01*
X8331020Y35117140D02*
X7657920Y35830880D01*
X8310700Y35081580D02*
X7716340Y34228140D01*
D24*
X8188780Y30314000D02*
X7624900Y29775520D01*
D23*
X8173540Y30314000D02*
X7640140Y31147120D01*
D24*
X8168460Y35112060D02*
X7668080Y35645460D01*
D23*
X8158300Y35089200D02*
X7602040Y34238300D01*
D15*
X8049080Y33397560D02*
X7713800Y34230680D01*
D23*
X7998280Y32074220D02*
X7640140Y31190300D01*
X7929700Y33321360D02*
X7581720Y34187500D01*
D25*
X7711260Y32224080D02*
X7005140Y32351080D01*
D15*
X7675700Y35569260D02*
X6791780Y34847900D01*
X7645220Y35833420D02*
X6674940Y35117140D01*
X7624900Y29600260D02*
X8346260Y30293680D01*
D23*
X7619820Y35670860D02*
X6791780Y35018080D01*
D20*
X7612200Y29775520D02*
X6832420Y30306380D01*
D25*
X7523300Y34997760D02*
X6461580Y33890320D01*
X7472500Y30507040D02*
X6619060Y31528120D01*
X7462340Y31578920D02*
X6898460Y32058980D01*
D15*
X7436940Y34220520D02*
X7823020Y33222300D01*
X7431860Y34215440D02*
X8033840Y35124760D01*
D25*
X7386140Y33468680D02*
X6944180Y33308660D01*
X7210880Y33948740D02*
X6753680Y33659180D01*
D23*
X6822260Y30324160D02*
X6504760Y30118420D01*
D25*
X6796860Y30679760D02*
X6431100Y31441760D01*
D15*
X6791780Y30171760D02*
X7617280Y29607880D01*
X6786700Y34850440D02*
X5803720Y35343200D01*
X6779080Y30161600D02*
X6433640Y29940620D01*
D23*
X6730820Y35028240D02*
X5885000Y35434640D01*
D15*
X6710500Y35185720D02*
X5806260Y35564180D01*
X6700340Y32991160D02*
X6568260Y32168200D01*
X6563180Y32137720D02*
X6469200Y31967540D01*
X6563180Y32137720D02*
X6469200Y31967540D01*
D26*
X6476820Y30138740D02*
X5925640Y31561140D01*
D15*
X6456500Y31937060D02*
X6149160Y31670360D01*
X6395540Y29958400D02*
X5745300Y31627180D01*
X6339660Y31916740D02*
X6080580Y31578920D01*
X6276160Y33727760D02*
X6695260Y32996240D01*
D25*
X6212660Y34725980D02*
X6037400Y34367840D01*
D15*
X5971360Y31802440D02*
X5745300Y31627180D01*
D25*
X5778320Y34985060D02*
X5610680Y34375460D01*
D15*
X5722440Y36580180D02*
X5923100Y35554020D01*
X5712280Y36587800D02*
X4747080Y36587800D01*
D23*
X5633540Y36481120D02*
X4848680Y36481120D01*
X5625920Y36468420D02*
X5831660Y35454960D01*
D15*
X5404940Y34157020D02*
X6276160Y33727760D01*
D25*
X5262700Y35973120D02*
X5257620Y34459280D01*
D23*
X4866460Y36460800D02*
X4653100Y35442260D01*
D15*
X4747080Y36587800D02*
X4521020Y35416860D01*
D23*
X4653100Y35442260D02*
X3751400Y34992680D01*
D15*
X4607380Y31345240D02*
X4729300Y31629720D01*
X4589600Y33989380D02*
X5404940Y34149400D01*
X4531180Y35498140D02*
X3726000Y35160320D01*
D25*
X4513400Y34969820D02*
X4734380Y34284020D01*
D15*
X4470220Y31799900D02*
X4724220Y31634800D01*
X4447360Y31606860D02*
X3919040Y30225100D01*
X4404180Y31548440D02*
X4226380Y31670360D01*
X4226380Y31670360D02*
X3850460Y32381560D01*
D25*
X4086680Y31441760D02*
X2905580Y30428300D01*
X4086680Y31533200D02*
X3753940Y30801680D01*
D15*
X4079060Y33560120D02*
X4589600Y33989380D01*
X4056200Y29927920D02*
X4442280Y30908360D01*
D23*
X4018100Y30141280D02*
X4592140Y31581460D01*
D25*
X3972380Y31578920D02*
X3355160Y31251260D01*
X3926660Y34718360D02*
X4345760Y34131620D01*
D15*
X3850460Y32381560D02*
X3850460Y32899720D01*
X3845380Y32887020D02*
X4079060Y33560120D01*
X3845380Y35112060D02*
X2834460Y35785160D01*
D23*
X3738700Y34997760D02*
X2834460Y35632200D01*
D15*
X3708220Y30227640D02*
X2831920Y29607880D01*
D23*
X3680280Y30326700D02*
X4018100Y30141280D01*
D25*
X3652340Y31998020D02*
X3042740Y31891340D01*
D15*
X3527880Y30255580D02*
X4056200Y29927920D01*
D25*
X3057980Y33849680D02*
X3713300Y33483920D01*
X2997020Y34916480D02*
X4109540Y33849680D01*
D23*
X2897960Y34291640D02*
X2557600Y33354380D01*
X2895420Y31208080D02*
X2275660Y30321620D01*
X2844620Y29760280D02*
X3680280Y30326700D01*
D15*
X2844620Y29922840D02*
X3665040Y30451160D01*
D23*
X2834460Y35630220D02*
X2280740Y35084120D01*
X2829380Y29767900D02*
X2275660Y30314000D01*
D15*
X2829380Y35787700D02*
X2135960Y35096820D01*
X2821760Y29612960D02*
X2138500Y30303840D01*
D25*
X2816680Y33156260D02*
X3538040Y33008940D01*
D15*
X2745560Y34207820D02*
X2379800Y33339140D01*
D23*
X2557600Y33354380D02*
X1475560Y33125780D01*
D15*
X2496640Y31990400D02*
X1373960Y32201220D01*
D23*
X2489020Y32119940D02*
X2895420Y31208080D01*
D15*
X2425520Y30387660D02*
X2910660Y29856800D01*
X2392500Y32023420D02*
X2773500Y31042980D01*
D23*
X2280740Y35081580D02*
X2897960Y34291640D01*
D15*
X2130880Y35089200D02*
X2834460Y34098600D01*
D25*
X2006420Y32732080D02*
X3474540Y32645720D01*
D23*
X1475560Y32290120D02*
X2489020Y32119940D01*
X1475560Y33125780D02*
X1475560Y32290120D01*
D15*
X1442540Y32437440D02*
X2549980Y32213920D01*
X1358720Y33179120D02*
X1361260Y32221540D01*
D23*
X6075500Y31751640D02*
G75*
G03*
X6151700Y33605840I-889000J965200D01*
G01*
X4211140Y33448360D02*
G75*
G03*
X4581981Y31584001I1117598J-746760D01*
G01*
X6126300Y33631240D02*
G75*
G03*
X4200980Y33433120I-863600J-1061719D01*
G01*
D11*
%TO.C,ESP-PROG1*%
X15475000Y22400000D02*
X15475000Y25600000D01*
X15475000Y25600000D02*
X5775000Y25600000D01*
X5775000Y22400000D02*
X15475000Y22400000D01*
X5775000Y25600000D02*
X5775000Y22400000D01*
D22*
%TO.C,C2*%
X3055500Y37746000D02*
X3055500Y38254000D01*
X3944500Y37746000D02*
X3944500Y38254000D01*
D11*
%TO.C,Sign_Antistatic*%
X19244500Y28105500D02*
X12132500Y28105500D01*
X17466500Y31598000D02*
X12132500Y28105500D01*
X17403000Y30582000D02*
X17403000Y29502500D01*
X17022000Y29375500D02*
X17085500Y29375500D01*
X17022000Y29375500D02*
X17022000Y30391500D01*
X16958500Y29185000D02*
X16958500Y29312000D01*
X16450500Y29185000D02*
X16298100Y29185000D01*
X15688500Y35217500D02*
X19244500Y28105500D01*
X15091600Y31661500D02*
X13910500Y31661500D01*
X13910500Y31661500D02*
X15688500Y35217500D01*
X13466000Y30772500D02*
X13910500Y31661500D01*
X13466000Y30772500D02*
X13783500Y30772500D01*
X12132500Y28105500D02*
X13466000Y30772500D01*
X17022000Y29121500D02*
G75*
G03*
X17403000Y29502500I0J381000D01*
G01*
X17403003Y30582000D02*
G75*
G03*
X17213548Y30897925I-358053J50D01*
G01*
X16895000Y31217000D02*
G75*
G03*
X17211049Y30899358I794860J474820D01*
G01*
X17212500Y29248500D02*
G75*
G03*
X17085500Y29375500I-127000J0D01*
G01*
X16323499Y30835999D02*
G75*
G03*
X17020435Y30389656I850911J561361D01*
G01*
X16958563Y29184997D02*
G75*
G03*
X17019571Y29118956I63437J-2597D01*
G01*
X17022000Y29375500D02*
G75*
G03*
X16958500Y29312000I0J-63500D01*
G01*
X16450500Y29185001D02*
G75*
G03*
X16577466Y29311900I-63500J190499D01*
G01*
X16577499Y29312000D02*
G75*
G03*
X16576567Y29628826I-317499J157480D01*
G01*
X16260000Y29185000D02*
G75*
G03*
X15688415Y29945535I-855980J-48260D01*
G01*
X16577500Y29629500D02*
G75*
G03*
X15626208Y30390334I-1236980J-571500D01*
G01*
X16895000Y31217000D02*
G75*
G03*
X15308221Y31724821I-1120140J-767080D01*
G01*
X15091596Y31661465D02*
G75*
G03*
X15307416Y31723387I33004J292035D01*
G01*
X15688499Y29946997D02*
G75*
G03*
X15248775Y30073005I-1264699J-3583097D01*
G01*
X14291503Y30582003D02*
G75*
G03*
X15113962Y30135925I970347J807837D01*
G01*
X14291495Y30581996D02*
G75*
G03*
X13782801Y30772026I-444495J-413996D01*
G01*
%TD*%
M02*
