%TF.GenerationSoftware,KiCad,Pcbnew,7.0.11-7.0.11~ubuntu22.04.1*%
%TF.CreationDate,2025-09-05T11:13:46+03:00*%
%TF.ProjectId,MOD-ESP32-C5_Rev_A,4d4f442d-4553-4503-9332-2d43355f5265,A*%
%TF.SameCoordinates,PX5a995c0PY9896800*%
%TF.FileFunction,Copper,L1,Top*%
%TF.FilePolarity,Positive*%
%FSLAX46Y46*%
G04 Gerber Fmt 4.6, Leading zero omitted, Abs format (unit mm)*
G04 Created by KiCad (PCBNEW 7.0.11-7.0.11~ubuntu22.04.1) date 2025-09-05 11:13:46*
%MOMM*%
%LPD*%
G01*
G04 APERTURE LIST*
G04 Aperture macros list*
%AMOutline4P*
0 Free polygon, 4 corners , with rotation*
0 The origin of the aperture is its center*
0 number of corners: always 4*
0 $1 to $8 corner X, Y*
0 $9 Rotation angle, in degrees counterclockwise*
0 create outline with 4 corners*
4,1,4,$1,$2,$3,$4,$5,$6,$7,$8,$1,$2,$9*%
G04 Aperture macros list end*
%TA.AperFunction,SMDPad,CuDef*%
%ADD10R,0.800000X0.800000*%
%TD*%
%TA.AperFunction,SMDPad,CuDef*%
%ADD11R,0.500000X0.550000*%
%TD*%
%TA.AperFunction,FiducialPad,Global*%
%ADD12C,1.000000*%
%TD*%
%TA.AperFunction,SMDPad,CuDef*%
%ADD13R,1.500000X0.900000*%
%TD*%
%TA.AperFunction,ComponentPad*%
%ADD14C,0.800000*%
%TD*%
%TA.AperFunction,ComponentPad*%
%ADD15C,1.800000*%
%TD*%
%TA.AperFunction,SMDPad,CuDef*%
%ADD16R,5.000000X5.000000*%
%TD*%
%TA.AperFunction,SMDPad,CuDef*%
%ADD17R,1.524000X3.556000*%
%TD*%
%TA.AperFunction,SMDPad,CuDef*%
%ADD18R,2.200000X1.100000*%
%TD*%
%TA.AperFunction,ComponentPad*%
%ADD19O,2.200000X1.200000*%
%TD*%
%TA.AperFunction,SMDPad,CuDef*%
%ADD20R,2.000000X1.100000*%
%TD*%
%TA.AperFunction,ComponentPad*%
%ADD21O,2.000000X1.300000*%
%TD*%
%TA.AperFunction,SMDPad,CuDef*%
%ADD22R,1.150000X0.300000*%
%TD*%
%TA.AperFunction,SMDPad,CuDef*%
%ADD23R,1.150000X0.250000*%
%TD*%
%TA.AperFunction,SMDPad,CuDef*%
%ADD24R,0.700000X1.900000*%
%TD*%
%TA.AperFunction,SMDPad,CuDef*%
%ADD25R,2.000000X2.600000*%
%TD*%
%TA.AperFunction,SMDPad,CuDef*%
%ADD26Outline4P,-1.000000X-0.400000X1.000000X-0.400000X0.300000X0.400000X-0.300000X0.400000X180.000000*%
%TD*%
%TA.AperFunction,SMDPad,CuDef*%
%ADD27R,0.800000X1.900000*%
%TD*%
%TA.AperFunction,ComponentPad*%
%ADD28O,1.000000X1.500000*%
%TD*%
%TA.AperFunction,ViaPad*%
%ADD29C,0.800000*%
%TD*%
%TA.AperFunction,Conductor*%
%ADD30C,0.254000*%
%TD*%
%TA.AperFunction,Conductor*%
%ADD31C,0.508000*%
%TD*%
%TA.AperFunction,Conductor*%
%ADD32C,0.762000*%
%TD*%
%TA.AperFunction,Conductor*%
%ADD33C,1.016000*%
%TD*%
%TA.AperFunction,Conductor*%
%ADD34C,1.270000*%
%TD*%
%TA.AperFunction,Conductor*%
%ADD35C,0.250000*%
%TD*%
G04 APERTURE END LIST*
D10*
%TO.P,LED1,1,K*%
%TO.N,Net-(LED1-K)*%
X2762000Y13500000D03*
%TO.P,LED1,2,A*%
%TO.N,+3.3V*%
X1238000Y13500000D03*
%TD*%
D11*
%TO.P,R4,1*%
%TO.N,/USB_D-*%
X8008000Y12750000D03*
%TO.P,R4,2*%
%TO.N,/USB_DN*%
X6992000Y12750000D03*
%TD*%
D10*
%TO.P,LED2,1,K*%
%TO.N,Net-(LED2-K)*%
X2762000Y16500000D03*
%TO.P,LED2,2,A*%
%TO.N,+3.3V*%
X1238000Y16500000D03*
%TD*%
D12*
%TO.P,FID3,Fid1,FID\u002A*%
%TO.N,unconnected-(FID3-FID\u002A-PadFid1)*%
X18000000Y2000000D03*
%TD*%
D11*
%TO.P,R3,1*%
%TO.N,/ESP_EN*%
X2508000Y18000000D03*
%TO.P,R3,2*%
%TO.N,+3.3V*%
X1492000Y18000000D03*
%TD*%
%TO.P,R2,1*%
%TO.N,GND*%
X6992000Y7750000D03*
%TO.P,R2,2*%
%TO.N,Net-(USB-PGM1-CC1)*%
X8008000Y7750000D03*
%TD*%
%TO.P,R8,1*%
%TO.N,+3.3V*%
X6992000Y5250000D03*
%TO.P,R8,2*%
%TO.N,/GPIO3\u005CLP_I2C_SCL\u005CI2C_SCL*%
X8008000Y5250000D03*
%TD*%
%TO.P,C3,1*%
%TO.N,GND*%
X5008000Y18000000D03*
%TO.P,C3,2*%
%TO.N,/ESP_EN*%
X3992000Y18000000D03*
%TD*%
D13*
%TO.P,U1,1,GND*%
%TO.N,GND*%
X1250000Y38510000D03*
%TO.P,U1,2,3V3*%
%TO.N,+3.3V*%
X1250000Y37240000D03*
%TO.P,U1,3,EN*%
%TO.N,/ESP_EN*%
X1250000Y35970000D03*
%TO.P,U1,4,IO2/MTMS/GPIO2/LP_GPIO2/LP_UART_RTSN/LP_I2C_SDA/ADC1_CH1/FSPIQ*%
%TO.N,/GPIO2\u005CLP_I2C_SDA\u005CI2C_SDA*%
X1250000Y34700000D03*
%TO.P,U1,5,IO3/MTDI/GPIO3/LP_GPIO3/LP_UART_CTSN/LP_I2C_SCL/ADC1_CH2*%
%TO.N,/GPIO3\u005CLP_I2C_SCL\u005CI2C_SCL*%
X1250000Y33430000D03*
%TO.P,U1,6,IO0/GPIO0/XTAL_32K_P/LP_GPIO0/LP_UART_DTRN*%
%TO.N,/GPIO0\u005CSPI2_CS*%
X1250000Y32160000D03*
%TO.P,U1,7,IO1/GPIO1/XTAL_32K_N/LP_GPIO1/LP_UART_DSRN/ADC1_CH0*%
%TO.N,/GPIO1\u005CSPI2_CLK*%
X1250000Y30890000D03*
%TO.P,U1,8,IO6/GPIO6/LP_GPIO6/ADC1_CH5/FSPICLK*%
%TO.N,/GPIO6\u005CSPI2_MISO*%
X1250000Y29620000D03*
%TO.P,U1,9,IO7/GPIO7/LP_GPIO7/FSPID/SDIO_DATA1*%
%TO.N,/GPIO7\u005CSPI2_MOSI*%
X1250000Y28350000D03*
%TO.P,U1,10,IO8/GPIO8/PAD_COMP0/SDIO_DATA0*%
%TO.N,unconnected-(U1-IO8{slash}GPIO8{slash}PAD_COMP0{slash}SDIO_DATA0-Pad10)*%
X1250000Y27080000D03*
%TO.P,U1,11,IO9/GPIO9/PAD_COMP1/SDIO_CLK*%
%TO.N,unconnected-(U1-IO9{slash}GPIO9{slash}PAD_COMP1{slash}SDIO_CLK-Pad11)*%
X1250000Y25810000D03*
%TO.P,U1,12,IO10/GPIO10/FSPICS0/SDIO_CMD*%
%TO.N,unconnected-(U1-IO10{slash}GPIO10{slash}FSPICS0{slash}SDIO_CMD-Pad12)*%
X1250000Y24540000D03*
%TO.P,U1,13,IO13/GPIO13/USB_D-/SDIO_DATA3*%
%TO.N,/USB_DN*%
X1250000Y23270000D03*
%TO.P,U1,14,IO14/GPIO14/USB_D+/SDIO_DATA2*%
%TO.N,/USB_DP*%
X1250000Y22000000D03*
%TO.P,U1,15,IO28/GPIO28*%
%TO.N,/GPIO28\u005CBOOT*%
X18750000Y22000000D03*
%TO.P,U1,16,IO5/MTDO/GPIO5/LP_GPIO5/LP_UART_TXD/ADC1_CH4/FSPIWP*%
%TO.N,/GPIO5\u005CLP_UART_TXD\u005CU1TXD*%
X18750000Y23270000D03*
%TO.P,U1,17,IO4/MTCK/GPIO4/LP_GPIO4/LP_UART_RXD/ADC1_CH3/FSPIHD*%
%TO.N,/GPIO4\u005CLP_UART_RXD\u005CU1RXD*%
X18750000Y24540000D03*
%TO.P,U1,18,IO27/GPIO27*%
%TO.N,/GPIO27\u005CUSER_LED1*%
X18750000Y25810000D03*
%TO.P,U1,19,NC/SPICS1/GPIO15*%
%TO.N,unconnected-(U1-NC{slash}SPICS1{slash}GPIO15-Pad19)*%
X18750000Y27080000D03*
%TO.P,U1,20,NC*%
%TO.N,unconnected-(U1-NC-Pad20)*%
X18750000Y28350000D03*
%TO.P,U1,21,IO23/GPIO23*%
%TO.N,unconnected-(U1-IO23{slash}GPIO23-Pad21)*%
X18750000Y29620000D03*
%TO.P,U1,22,NC*%
%TO.N,unconnected-(U1-NC-Pad22)*%
X18750000Y30890000D03*
%TO.P,U1,23,IO24/GPIO24*%
%TO.N,unconnected-(U1-IO24{slash}GPIO24-Pad23)*%
X18750000Y32160000D03*
%TO.P,U1,24,IO12/U0RXD/GPIO12*%
%TO.N,/GPIO12\u005CU0RXD*%
X18750000Y33430000D03*
%TO.P,U1,25,IO11/U0TXD/GPIO11*%
%TO.N,/GPIO11\u005CU0TXD*%
X18750000Y34700000D03*
%TO.P,U1,26,IO25/GPIO25*%
%TO.N,unconnected-(U1-IO25{slash}GPIO25-Pad26)*%
X18750000Y35970000D03*
%TO.P,U1,27,IO26/GPIO26*%
%TO.N,/GPIO26\u005CUSER_LED2*%
X18750000Y37240000D03*
%TO.P,U1,28,GND*%
%TO.N,GND*%
X18750000Y38510000D03*
D14*
%TO.P,U1,29,EPAD*%
X8750000Y30770000D03*
X8750000Y29070000D03*
X9980000Y32000000D03*
X9980000Y31200000D03*
X9980000Y28650000D03*
X9980000Y27850000D03*
D15*
X10830000Y29920000D03*
D16*
X10830000Y29920000D03*
D14*
X11680000Y32000000D03*
X11680000Y31200000D03*
X11680000Y28650000D03*
X11680000Y27850000D03*
X12900000Y30770000D03*
X12900000Y29070000D03*
%TD*%
D17*
%TO.P,UEXT1,1,1*%
%TO.N,+3.3V*%
X4920000Y2226000D03*
%TO.P,UEXT1,3,3*%
%TO.N,/GPIO4\u005CLP_UART_RXD\u005CU1RXD*%
X7460000Y2226000D03*
%TO.P,UEXT1,5,5*%
%TO.N,/GPIO3\u005CLP_I2C_SCL\u005CI2C_SCL*%
X10000000Y2226000D03*
%TO.P,UEXT1,7,7*%
%TO.N,/GPIO6\u005CSPI2_MISO*%
X12540000Y2226000D03*
%TO.P,UEXT1,9,9*%
%TO.N,/GPIO1\u005CSPI2_CLK*%
X15080000Y2226000D03*
%TD*%
D11*
%TO.P,R6,1*%
%TO.N,Net-(LED1-K)*%
X3992000Y13500000D03*
%TO.P,R6,2*%
%TO.N,/GPIO27\u005CUSER_LED1*%
X5008000Y13500000D03*
%TD*%
%TO.P,C7,1*%
%TO.N,+3.3V*%
X5008000Y5250000D03*
%TO.P,C7,2*%
%TO.N,GND*%
X3992000Y5250000D03*
%TD*%
%TO.P,R1,1*%
%TO.N,GND*%
X6992000Y16500000D03*
%TO.P,R1,2*%
%TO.N,Net-(USB-PGM1-CC2)*%
X8008000Y16500000D03*
%TD*%
%TO.P,TVS2,1,IO1*%
%TO.N,/USB_D-*%
X8008000Y14000000D03*
%TO.P,TVS2,2,IO2*%
%TO.N,GND*%
X6992000Y14000000D03*
%TD*%
%TO.P,TVS1,1,IO1*%
%TO.N,/USB_D+*%
X8008000Y10250000D03*
%TO.P,TVS1,2,IO2*%
%TO.N,GND*%
X6992000Y10250000D03*
%TD*%
%TO.P,C4,1*%
%TO.N,/USB_D-*%
X8008000Y15250000D03*
%TO.P,C4,2*%
%TO.N,GND*%
X6992000Y15250000D03*
%TD*%
D18*
%TO.P,USB-PGM1,0,SHELL*%
%TO.N,GND*%
X11970000Y16427600D03*
D19*
X11970000Y15820000D03*
X11970000Y7180000D03*
D18*
X11970000Y6572400D03*
D20*
X16150000Y16427600D03*
D21*
X16150000Y15820000D03*
X16150000Y7180000D03*
D20*
X16150000Y6572400D03*
D22*
%TO.P,USB-PGM1,A1,GND*%
X11068000Y8175000D03*
%TO.P,USB-PGM1,A4,VBUS*%
%TO.N,+5V_USB*%
X11068000Y8975000D03*
D23*
%TO.P,USB-PGM1,A5,CC1*%
%TO.N,Net-(USB-PGM1-CC1)*%
X11068000Y10250000D03*
%TO.P,USB-PGM1,A6,DP1*%
%TO.N,/USB_D+*%
X11068000Y11250000D03*
%TO.P,USB-PGM1,A7,DN1*%
%TO.N,/USB_D-*%
X11068000Y11750000D03*
%TO.P,USB-PGM1,A8,SBU1*%
%TO.N,unconnected-(USB-PGM1-SBU1-PadA8)*%
X11068000Y12750000D03*
D22*
%TO.P,USB-PGM1,A9,VBUS*%
%TO.N,+5V_USB*%
X11068000Y14025000D03*
%TO.P,USB-PGM1,A12,GND*%
%TO.N,GND*%
X11068000Y14825000D03*
%TO.P,USB-PGM1,B1,GND*%
X11068000Y14575000D03*
%TO.P,USB-PGM1,B4,VBUS*%
%TO.N,+5V_USB*%
X11068000Y13775000D03*
D23*
%TO.P,USB-PGM1,B5,CC2*%
%TO.N,Net-(USB-PGM1-CC2)*%
X11068000Y13250000D03*
%TO.P,USB-PGM1,B6,DP2*%
%TO.N,/USB_D+*%
X11068000Y12250000D03*
%TO.P,USB-PGM1,B7,DN2*%
%TO.N,/USB_D-*%
X11068000Y10750000D03*
%TO.P,USB-PGM1,B8,SBU2*%
%TO.N,unconnected-(USB-PGM1-SBU2-PadB8)*%
X11068000Y9750000D03*
D22*
%TO.P,USB-PGM1,B9,VBUS*%
%TO.N,+5V_USB*%
X11068000Y9225000D03*
%TO.P,USB-PGM1,B12,GND*%
%TO.N,GND*%
X11068000Y8425000D03*
%TD*%
D11*
%TO.P,C6,1*%
%TO.N,+5V_USB*%
X2758000Y5250000D03*
%TO.P,C6,2*%
%TO.N,GND*%
X1742000Y5250000D03*
%TD*%
%TO.P,R5,1*%
%TO.N,/USB_DP*%
X6992000Y11500000D03*
%TO.P,R5,2*%
%TO.N,/USB_D+*%
X8008000Y11500000D03*
%TD*%
D24*
%TO.P,VR1,1,GND*%
%TO.N,GND*%
X1750000Y7150000D03*
D25*
%TO.P,VR1,2,VIN*%
%TO.N,+5V_USB*%
X3250000Y10000000D03*
D26*
X3250000Y8300000D03*
D27*
X3250000Y7150000D03*
D24*
%TO.P,VR1,3,VOUT*%
%TO.N,+3.3V*%
X4750000Y7150000D03*
%TD*%
D12*
%TO.P,FID1,Fid1,FID\u002A*%
%TO.N,unconnected-(FID1-FID\u002A-PadFid1)*%
X2000000Y2000000D03*
%TD*%
D11*
%TO.P,R7,1*%
%TO.N,Net-(LED2-K)*%
X3992000Y16500000D03*
%TO.P,R7,2*%
%TO.N,/GPIO26\u005CUSER_LED2*%
X5008000Y16500000D03*
%TD*%
%TO.P,C5,1*%
%TO.N,/USB_D+*%
X8008000Y9000000D03*
%TO.P,C5,2*%
%TO.N,GND*%
X6992000Y9000000D03*
%TD*%
D12*
%TO.P,FID2,Fid1,FID\u002A*%
%TO.N,unconnected-(FID2-FID\u002A-PadFid1)*%
X10000000Y38000000D03*
%TD*%
D11*
%TO.P,R9,1*%
%TO.N,/GPIO2\u005CLP_I2C_SDA\u005CI2C_SDA*%
X8008000Y6500000D03*
%TO.P,R9,2*%
%TO.N,+3.3V*%
X6992000Y6500000D03*
%TD*%
D28*
%TO.P,ESP-PROG1,1*%
%TO.N,/GPIO11\u005CU0TXD*%
X13750000Y24500000D03*
%TO.P,ESP-PROG1,2*%
%TO.N,/GPIO28\u005CBOOT*%
X12500000Y24500000D03*
%TO.P,ESP-PROG1,3*%
%TO.N,/GPIO12\u005CU0RXD*%
X11250000Y24500000D03*
%TO.P,ESP-PROG1,4*%
%TO.N,GND*%
X10000000Y24500000D03*
%TO.P,ESP-PROG1,5*%
%TO.N,Net-(3.3V_E1-Pad1)*%
X8750000Y24500000D03*
%TO.P,ESP-PROG1,6*%
%TO.N,/ESP_EN*%
X7500000Y24500000D03*
%TD*%
D29*
%TO.N,GND*%
X19089800Y17750000D03*
X19000000Y6500000D03*
X15250000Y39200000D03*
X1750000Y5850000D03*
X4250000Y29250000D03*
X19089800Y20750000D03*
X17000000Y3750000D03*
X7250000Y38000000D03*
X3000000Y39200000D03*
X900000Y4500000D03*
X6500000Y32250000D03*
X6500000Y30750000D03*
X7750000Y30750000D03*
X4750000Y39200000D03*
X5250000Y32250000D03*
X5750000Y23900000D03*
X13500000Y39200000D03*
X12500000Y38000000D03*
X1800000Y4500000D03*
X4250000Y30750000D03*
X17000000Y39200000D03*
X19000000Y10000000D03*
X5250000Y30750000D03*
X6500000Y36750000D03*
X19089800Y19250000D03*
X6500000Y27750000D03*
X11750000Y36750000D03*
X781000Y20800000D03*
X15350293Y37089482D03*
X16000000Y38000000D03*
X16250000Y19250000D03*
X10000000Y36050000D03*
X19000000Y8250000D03*
X6992000Y9600000D03*
X5250000Y29250000D03*
X8250000Y39200000D03*
X11750000Y39200000D03*
X6992000Y18200000D03*
X4750000Y23900000D03*
X6500000Y39200000D03*
X7750000Y29250000D03*
X19000000Y11750000D03*
X14250000Y38000000D03*
X13364792Y36878783D03*
X7250000Y36050000D03*
X7750000Y32250000D03*
X900000Y5850000D03*
X900000Y7250000D03*
X19000000Y3750000D03*
X17500000Y38350000D03*
X18750000Y39200000D03*
X6992000Y17300000D03*
X6992000Y14600000D03*
X800000Y39200000D03*
X11000000Y36050000D03*
X6400000Y23200000D03*
X16250000Y17750000D03*
X19000000Y5000000D03*
X7750000Y27750000D03*
X2500000Y38500000D03*
X8250000Y36750000D03*
X6992000Y15900000D03*
X7100000Y22600000D03*
X3700000Y4500000D03*
X12500000Y36050000D03*
X6500000Y29250000D03*
X6992000Y8400000D03*
X9000000Y36050000D03*
X781000Y19800000D03*
X19000000Y13500000D03*
%TO.N,Net-(3.3V_E1-Pad1)*%
X8800000Y22268200D03*
%TO.N,/GPIO11\u005CU0TXD*%
X16668200Y34650328D03*
%TO.N,/GPIO12\u005CU0RXD*%
X17500000Y33430000D03*
%TO.N,/GPIO27\u005CUSER_LED1*%
X3800000Y24600000D03*
X3559412Y14414342D03*
%TO.N,/ESP_EN*%
X4250000Y35531800D03*
X4117000Y18887824D03*
%TO.N,/USB_D+*%
X12700000Y10950000D03*
X12700000Y12550000D03*
%TO.N,+3.3V*%
X1950000Y15500000D03*
X5485580Y7584165D03*
X5500000Y6750000D03*
X4250000Y37240000D03*
X2500000Y37240000D03*
X1950000Y14500000D03*
X4117000Y20852000D03*
X4116000Y20000000D03*
%TO.N,/GPIO26\u005CUSER_LED2*%
X3206802Y15451545D03*
X5599990Y35750000D03*
%TO.N,/GPIO3\u005CLP_I2C_SCL\u005CI2C_SCL*%
X9600010Y5400000D03*
X15482920Y33482921D03*
%TO.N,/GPIO2\u005CLP_I2C_SDA\u005CI2C_SDA*%
X15565646Y34576539D03*
X9700000Y6500000D03*
%TO.N,/GPIO0\u005CSPI2_CS*%
X16444772Y32092085D03*
%TO.N,/GPIO1\u005CSPI2_CLK*%
X15000000Y5200000D03*
X16400000Y31000000D03*
%TO.N,/GPIO6\u005CSPI2_MISO*%
X16668200Y28104803D03*
X12600000Y5200000D03*
%TO.N,/GPIO7\u005CSPI2_MOSI*%
X16864200Y27000000D03*
%TO.N,/GPIO5\u005CLP_UART_TXD\u005CU1TXD*%
X13400000Y22300000D03*
%TO.N,/GPIO4\u005CLP_UART_RXD\u005CU1RXD*%
X8753776Y4499382D03*
X14200000Y23100000D03*
%TO.N,+5V_USB*%
X5600000Y9900000D03*
X4750000Y9900000D03*
X8187045Y19498755D03*
X4750000Y10900000D03*
X5600000Y8900000D03*
X14400000Y10900000D03*
X4750000Y8900000D03*
X3250000Y12250000D03*
X14400000Y12700000D03*
X14400000Y11800000D03*
X4750000Y12250000D03*
X4000000Y11750000D03*
X14400000Y18800000D03*
X9100000Y19498755D03*
X13500000Y17800000D03*
X14400000Y17800000D03*
X14335461Y10064539D03*
X5600000Y10900000D03*
%TD*%
D30*
%TO.N,GND*%
X11003000Y15065000D02*
X11003000Y16003000D01*
D31*
X3992000Y4792000D02*
X3700000Y4500000D01*
D32*
X900000Y4500000D02*
X900000Y5850000D01*
X6992000Y10250000D02*
X6992000Y9000000D01*
D30*
X11068000Y15000000D02*
X11068000Y15200000D01*
X10100000Y7500000D02*
X10100000Y7600000D01*
D32*
X7098000Y17406000D02*
X7800000Y17406000D01*
D30*
X11068000Y14575000D02*
X10225000Y14575000D01*
D32*
X10700000Y20700000D02*
X16100000Y20700000D01*
D33*
X1254000Y38506000D02*
X2500000Y38506000D01*
D32*
X10000000Y21400000D02*
X10000000Y24250000D01*
D30*
X10400000Y7200000D02*
X10600000Y7000000D01*
X11250000Y7900000D02*
X11275000Y7875000D01*
X10100000Y7600000D02*
X10100000Y8200000D01*
X10000000Y14800000D02*
X10000000Y15000000D01*
X11870079Y8175000D02*
X12022540Y8022540D01*
D31*
X2000000Y20800000D02*
X2956000Y21756000D01*
D30*
X10200000Y8000000D02*
X10200000Y8175000D01*
X11620078Y14575000D02*
X11922539Y14877461D01*
D32*
X6992000Y15250000D02*
X6992000Y15900000D01*
D30*
X12022540Y8022540D02*
X12222540Y7822540D01*
X10600000Y7000000D02*
X11790000Y7000000D01*
X10225000Y8425000D02*
X10100000Y8300000D01*
D32*
X19089800Y3839800D02*
X19000000Y3750000D01*
D30*
X10000000Y15200000D02*
X10000000Y17000000D01*
D33*
X18924000Y7180000D02*
X18984000Y7240000D01*
D32*
X6992000Y16500000D02*
X6992000Y15900000D01*
X9590000Y18200000D02*
X10197600Y18200000D01*
D33*
X19089800Y16500000D02*
X19089800Y15910000D01*
D32*
X10197600Y18200000D02*
X11970000Y16427600D01*
D30*
X11068000Y8082000D02*
X11275000Y7875000D01*
D33*
X18984000Y7240000D02*
X18984000Y7400000D01*
D32*
X1742000Y5842000D02*
X1742000Y5250000D01*
D30*
X11068000Y8175000D02*
X11870079Y8175000D01*
X10600000Y15200000D02*
X10800000Y15200000D01*
D33*
X19089800Y14800000D02*
X19089800Y5400000D01*
D32*
X1650000Y7250000D02*
X1750000Y7150000D01*
D30*
X10175000Y14825000D02*
X10000000Y15000000D01*
D32*
X3000000Y39200000D02*
X3000000Y39000000D01*
D30*
X10100000Y7600000D02*
X10275000Y7775000D01*
D31*
X1000000Y19800000D02*
X2000000Y20800000D01*
D32*
X900000Y5850000D02*
X900000Y7250000D01*
D30*
X11068000Y8175000D02*
X10575000Y8175000D01*
D33*
X16150000Y15820000D02*
X17500000Y15820000D01*
D30*
X10800000Y15800000D02*
X11003000Y16003000D01*
D32*
X6992000Y19992000D02*
X7700000Y20700000D01*
D30*
X11068000Y14825000D02*
X10375000Y14825000D01*
D33*
X16250000Y19250000D02*
X19089800Y19250000D01*
D32*
X11970000Y15820000D02*
X10745000Y17045000D01*
X1742000Y5250000D02*
X1742000Y4558000D01*
D31*
X2956000Y21756000D02*
X4600906Y21756000D01*
D32*
X1320000Y4500000D02*
X1320000Y6920000D01*
X6992000Y15250000D02*
X6992000Y14600000D01*
X17000000Y39200000D02*
X17000000Y38750000D01*
D30*
X11375000Y7775000D02*
X11970000Y7180000D01*
D34*
X17700000Y7180000D02*
X17930000Y7180000D01*
D31*
X781000Y19800000D02*
X781000Y19981000D01*
D30*
X11098844Y6200000D02*
X11800000Y6200000D01*
D33*
X16150000Y15820000D02*
X16250000Y15920000D01*
D34*
X16150000Y7180000D02*
X17700000Y7180000D01*
D30*
X10100000Y7600000D02*
X11550000Y7600000D01*
D33*
X18069800Y15820000D02*
X18409800Y15820000D01*
D32*
X6992000Y18800000D02*
X7000000Y18800000D01*
D30*
X10200000Y15200000D02*
X10200000Y16800000D01*
D33*
X11970000Y16427600D02*
X16150000Y16427600D01*
D32*
X9600000Y17406000D02*
X10384000Y17406000D01*
D33*
X18069800Y15820000D02*
X19089800Y14800000D01*
D30*
X10300000Y7900000D02*
X10200000Y8000000D01*
D33*
X16450000Y20750000D02*
X16250000Y20550000D01*
D30*
X10200000Y7400000D02*
X10400000Y7200000D01*
D32*
X7700000Y20700000D02*
X9300000Y20700000D01*
D31*
X5021000Y21335906D02*
X5021000Y18013000D01*
D30*
X11068000Y8175000D02*
X11220460Y8022540D01*
D32*
X6992000Y18200000D02*
X6992000Y18800000D01*
D30*
X11550000Y7600000D02*
X11970000Y7180000D01*
X10400000Y7200000D02*
X11950000Y7200000D01*
X11422540Y7822540D02*
X12222540Y7822540D01*
D32*
X900000Y7250000D02*
X1650000Y7250000D01*
D30*
X11068000Y14825000D02*
X10175000Y14825000D01*
D33*
X1250000Y38510000D02*
X1254000Y38506000D01*
D32*
X1742000Y4558000D02*
X1800000Y4500000D01*
X18750000Y38510000D02*
X18750000Y39200000D01*
X9300000Y20700000D02*
X10000000Y21400000D01*
D30*
X10000000Y15000000D02*
X10000000Y15200000D01*
X10600000Y16400000D02*
X10603000Y16403000D01*
D33*
X17930000Y7180000D02*
X18984000Y8234000D01*
X19089800Y15910000D02*
X19089800Y14800000D01*
D30*
X11922539Y14877461D02*
X12022539Y14977461D01*
X10800000Y6800000D02*
X11180000Y7180000D01*
D33*
X19000000Y8250000D02*
X19000000Y6500000D01*
D30*
X10800000Y6800000D02*
X11027600Y6572400D01*
X10100000Y8200000D02*
X10100000Y8300000D01*
X11068000Y15000000D02*
X11003000Y15065000D01*
X10600000Y15200000D02*
X10600000Y16400000D01*
D32*
X6992000Y9000000D02*
X6992000Y7750000D01*
D30*
X12865079Y7180000D02*
X13800000Y7180000D01*
D32*
X900000Y7710000D02*
X1650000Y7710000D01*
X10000000Y21400000D02*
X10700000Y20700000D01*
D30*
X10000000Y7600000D02*
X10200000Y7400000D01*
X10000000Y15200000D02*
X10200000Y15200000D01*
D33*
X17500000Y15820000D02*
X18069800Y15820000D01*
D34*
X13800000Y7180000D02*
X16150000Y7180000D01*
D30*
X10400000Y15200000D02*
X10600000Y15200000D01*
D32*
X19000000Y3750000D02*
X19000000Y5000000D01*
D30*
X11068000Y15000000D02*
X12000000Y15000000D01*
X10300000Y7900000D02*
X11250000Y7900000D01*
X11950000Y7200000D02*
X11970000Y7180000D01*
D32*
X16100000Y20700000D02*
X16250000Y20550000D01*
D33*
X16150000Y6572400D02*
X17917400Y6572400D01*
D30*
X11220460Y8022540D02*
X12022540Y8022540D01*
D33*
X19089800Y20750000D02*
X16450000Y20750000D01*
D30*
X11068000Y14825000D02*
X11068000Y15000000D01*
D33*
X16250000Y15920000D02*
X16250000Y19250000D01*
D32*
X6992000Y16500000D02*
X6992000Y18200000D01*
X1742000Y7142000D02*
X1742000Y5858000D01*
D30*
X12865079Y15820000D02*
X13400000Y15820000D01*
D31*
X781000Y20800000D02*
X1600000Y20800000D01*
D30*
X10575000Y8175000D02*
X10300000Y7900000D01*
D31*
X1600000Y20800000D02*
X2000000Y20800000D01*
D30*
X10300000Y7900000D02*
X10000000Y7600000D01*
D32*
X1750000Y5850000D02*
X1742000Y5842000D01*
D30*
X12222540Y7822540D02*
X12865079Y7180000D01*
D32*
X1750000Y7150000D02*
X1742000Y7142000D01*
D30*
X10800000Y15200000D02*
X10800000Y15800000D01*
X11068000Y15000000D02*
X10200000Y15000000D01*
D32*
X7800000Y17406000D02*
X9600000Y17406000D01*
D30*
X10225000Y14575000D02*
X10000000Y14800000D01*
D32*
X9945000Y17845000D02*
X9590000Y18200000D01*
X1742000Y5858000D02*
X1750000Y5850000D01*
D30*
X11068000Y14575000D02*
X11620078Y14575000D01*
X11068000Y8175000D02*
X11068000Y8082000D01*
D32*
X800000Y39200000D02*
X3000000Y39200000D01*
D30*
X10000000Y8200000D02*
X10000000Y7600000D01*
D32*
X9300000Y20700000D02*
X10700000Y20700000D01*
D31*
X3992000Y5250000D02*
X3992000Y4792000D01*
D30*
X11375000Y7775000D02*
X11422540Y7822540D01*
X10375000Y14825000D02*
X10200000Y15000000D01*
X11027600Y6572400D02*
X11970000Y6572400D01*
D32*
X16250000Y17750000D02*
X19089800Y17750000D01*
D30*
X10200000Y16800000D02*
X10203000Y16803000D01*
D32*
X11970000Y15820000D02*
X11186000Y15820000D01*
X19000000Y5000000D02*
X19000000Y6500000D01*
X11003000Y16003000D02*
X10603000Y16403000D01*
D33*
X18409800Y15820000D02*
X19089800Y16500000D01*
D30*
X11068000Y15200000D02*
X11068000Y16722000D01*
D32*
X10603000Y16403000D02*
X10203000Y16803000D01*
D30*
X10600000Y7000000D02*
X10800000Y6800000D01*
D31*
X6992000Y14000000D02*
X6992000Y15250000D01*
D30*
X10200000Y8175000D02*
X10125000Y8175000D01*
X10200000Y7400000D02*
X10100000Y7500000D01*
D32*
X3000000Y39000000D02*
X2500000Y38500000D01*
X1320000Y6920000D02*
X1650000Y7250000D01*
D30*
X10200000Y15200000D02*
X10400000Y15200000D01*
D33*
X16150000Y6572400D02*
X18927600Y6572400D01*
X16250000Y20550000D02*
X16250000Y19250000D01*
X11970000Y6572400D02*
X16150000Y6572400D01*
D31*
X4600906Y21756000D02*
X5021000Y21335906D01*
D30*
X11790000Y7000000D02*
X11970000Y7180000D01*
D32*
X10203000Y16803000D02*
X10003000Y17003000D01*
D30*
X11068000Y16722000D02*
X10745000Y17045000D01*
D32*
X10003000Y17003000D02*
X9600000Y17406000D01*
X1320000Y4500000D02*
X900000Y4500000D01*
X1750000Y5850000D02*
X900000Y5850000D01*
D33*
X18927600Y6572400D02*
X19000000Y6500000D01*
D32*
X17240000Y38510000D02*
X17000000Y38750000D01*
D30*
X10200000Y15000000D02*
X10000000Y15200000D01*
D32*
X7000000Y18800000D02*
X7600000Y18200000D01*
D30*
X11068000Y14825000D02*
X11870079Y14825000D01*
X10000000Y7600000D02*
X10000000Y7298844D01*
D32*
X7098000Y17406000D02*
X7537000Y17845000D01*
X10745000Y17045000D02*
X9945000Y17845000D01*
D30*
X12022539Y14977461D02*
X12222539Y15177461D01*
X10899422Y6399422D02*
X11098844Y6200000D01*
X10400000Y16606000D02*
X10203000Y16803000D01*
X10000000Y17000000D02*
X10003000Y17003000D01*
X12200000Y15200000D02*
X12222539Y15177461D01*
X10100000Y8300000D02*
X10000000Y8200000D01*
X10200000Y7400000D02*
X11750000Y7400000D01*
X10275000Y7775000D02*
X11375000Y7775000D01*
X10400000Y15200000D02*
X10400000Y16606000D01*
D31*
X781000Y19800000D02*
X1000000Y19800000D01*
D32*
X6992000Y18800000D02*
X6992000Y19992000D01*
D30*
X6992000Y16500000D02*
X6992000Y16598000D01*
X11068000Y15200000D02*
X12200000Y15200000D01*
X11275000Y7875000D02*
X11375000Y7775000D01*
X11750000Y7400000D02*
X11970000Y7180000D01*
D32*
X6992000Y14000000D02*
X6992000Y14600000D01*
D30*
X11068000Y8425000D02*
X10225000Y8425000D01*
X10125000Y8175000D02*
X10100000Y8200000D01*
D32*
X18750000Y38510000D02*
X17240000Y38510000D01*
D30*
X12000000Y15000000D02*
X12022539Y14977461D01*
X10800000Y15200000D02*
X11068000Y15200000D01*
D32*
X6992000Y17300000D02*
X7098000Y17406000D01*
X7600000Y18200000D02*
X6992000Y18200000D01*
D33*
X17917400Y6572400D02*
X19089800Y5400000D01*
D32*
X10384000Y17406000D02*
X10745000Y17045000D01*
D30*
X12222539Y15177461D02*
X12865079Y15820000D01*
X11068000Y8425000D02*
X11620079Y8425000D01*
D31*
X781000Y19981000D02*
X1600000Y20800000D01*
D30*
X11180000Y7180000D02*
X11970000Y7180000D01*
D32*
X18750000Y39200000D02*
X17000000Y39200000D01*
D33*
X17500000Y15820000D02*
X18999800Y15820000D01*
X18999800Y15820000D02*
X19089800Y15910000D01*
D31*
X5021000Y18013000D02*
X5008000Y18000000D01*
D33*
X11970000Y15820000D02*
X13400000Y15820000D01*
D32*
X17000000Y38750000D02*
X18510000Y38750000D01*
D33*
X13400000Y15820000D02*
X16150000Y15820000D01*
X18984000Y8234000D02*
X18984000Y8250000D01*
D32*
X9590000Y18200000D02*
X7600000Y18200000D01*
D30*
X6992000Y16598000D02*
X7800000Y17406000D01*
D32*
X11186000Y15820000D02*
X11003000Y16003000D01*
D33*
X19089800Y5400000D02*
X19089800Y3839800D01*
D34*
X17700000Y7180000D02*
X18924000Y7180000D01*
D30*
X11870079Y14825000D02*
X11922539Y14877461D01*
D32*
X781000Y19800000D02*
X781000Y20800000D01*
D30*
X10000000Y7298844D02*
X10899422Y6399422D01*
X11068000Y8175000D02*
X10200000Y8175000D01*
X11620079Y8425000D02*
X11870079Y8175000D01*
D32*
X7537000Y17845000D02*
X9945000Y17845000D01*
D33*
X19089800Y20750000D02*
X19089800Y16500000D01*
D32*
X900000Y7710000D02*
X900000Y7250000D01*
D34*
X11970000Y7180000D02*
X13800000Y7180000D01*
D32*
X1800000Y4500000D02*
X1320000Y4500000D01*
X18510000Y38750000D02*
X18750000Y38510000D01*
%TO.N,Net-(3.3V_E1-Pad1)*%
X8750000Y24500000D02*
X8750000Y22318200D01*
X8750000Y22318200D02*
X8800000Y22268200D01*
%TO.N,/GPIO11\u005CU0TXD*%
X18750000Y34700000D02*
X18700000Y34650000D01*
X16668528Y34650000D02*
X16668200Y34650328D01*
X18700000Y34650000D02*
X16668528Y34650000D01*
D30*
%TO.N,/GPIO28\u005CBOOT*%
X14600000Y21500000D02*
X15100000Y22000000D01*
X13000000Y21500000D02*
X14600000Y21500000D01*
X12500000Y23000000D02*
X12500000Y22000000D01*
X12500000Y22000000D02*
X13000000Y21500000D01*
D32*
X12500000Y24500000D02*
X12500000Y23000000D01*
D30*
X15100000Y22000000D02*
X16000000Y22000000D01*
D32*
X18750000Y22000000D02*
X16000000Y22000000D01*
%TO.N,/GPIO12\u005CU0RXD*%
X18750000Y33430000D02*
X17500000Y33430000D01*
%TO.N,/GPIO27\u005CUSER_LED1*%
X18750000Y25810000D02*
X16818000Y25810000D01*
D30*
X5008000Y13500000D02*
X5008000Y14192000D01*
X4785658Y14414342D02*
X3559412Y14414342D01*
X16700000Y25692000D02*
X4892000Y25692000D01*
X5008000Y14192000D02*
X4785658Y14414342D01*
X4892000Y25692000D02*
X3800000Y24600000D01*
X16818000Y25810000D02*
X16700000Y25692000D01*
D32*
%TO.N,/ESP_EN*%
X3811800Y35970000D02*
X4250000Y35531800D01*
D31*
X4117000Y18887824D02*
X3992000Y18762824D01*
X4117000Y18887824D02*
X3229176Y18000000D01*
X4117000Y18887824D02*
X4117000Y18125000D01*
X2508000Y18000000D02*
X3395824Y18887824D01*
X4117000Y18125000D02*
X3992000Y18000000D01*
D32*
X1250000Y35970000D02*
X3811800Y35970000D01*
D31*
X3992000Y18762824D02*
X3992000Y18000000D01*
X3395824Y18887824D02*
X3700000Y18887824D01*
X3100000Y18000000D02*
X2508000Y18000000D01*
X2812176Y18000000D02*
X3700000Y18887824D01*
X2508000Y18000000D02*
X2812176Y18000000D01*
X3229176Y18000000D02*
X3100000Y18000000D01*
X3700000Y18887824D02*
X4117000Y18887824D01*
X3992000Y18000000D02*
X3100000Y18000000D01*
D35*
%TO.N,/USB_D+*%
X9896446Y11250000D02*
X11068000Y11250000D01*
X12400000Y11250000D02*
X12700000Y10950000D01*
X8008000Y11500000D02*
X8033000Y11500000D01*
X9271446Y11875000D02*
X9896446Y11250000D01*
X11068000Y12250000D02*
X12400000Y12250000D01*
D31*
X8008000Y11500000D02*
X8008000Y10250000D01*
D35*
X12400000Y12250000D02*
X12700000Y12550000D01*
D31*
X8008000Y10250000D02*
X8008000Y9000000D01*
D35*
X8033000Y11500000D02*
X8408000Y11875000D01*
X11068000Y11250000D02*
X12400000Y11250000D01*
X8408000Y11875000D02*
X9271446Y11875000D01*
D32*
%TO.N,+3.3V*%
X1238000Y13500000D02*
X1238000Y13738000D01*
X4920000Y6980000D02*
X4750000Y7150000D01*
X1950000Y14500000D02*
X1900000Y14500000D01*
X4750000Y7150000D02*
X5184165Y7584165D01*
X5500000Y6500000D02*
X5400000Y6500000D01*
X4750000Y7150000D02*
X4750000Y6450000D01*
X1492000Y14958000D02*
X1950000Y14500000D01*
X5008000Y5250000D02*
X6000000Y5250000D01*
X1238000Y14762000D02*
X1238000Y13738000D01*
X1238000Y18438000D02*
X1492000Y18692000D01*
X4920000Y4170000D02*
X4920000Y6980000D01*
X5008000Y5800000D02*
X5008000Y5250000D01*
X1950000Y15500000D02*
X1950000Y14500000D01*
X3652000Y20852000D02*
X3400000Y20600000D01*
X4920000Y2226000D02*
X4920000Y4170000D01*
D33*
X5184165Y7584165D02*
X5485580Y7584165D01*
D32*
X1492000Y15958000D02*
X1492000Y16000000D01*
X3400000Y20600000D02*
X1238000Y18438000D01*
X1492000Y18692000D02*
X1492000Y18000000D01*
X6992000Y5800000D02*
X5008000Y5800000D01*
X4117000Y20852000D02*
X3652000Y20852000D01*
D33*
X1250000Y37240000D02*
X2500000Y37240000D01*
D32*
X1238000Y14762000D02*
X1487859Y14762000D01*
X5008000Y5250000D02*
X5008000Y2314000D01*
X1492000Y16000000D02*
X1492000Y14958000D01*
X4116000Y20851000D02*
X4117000Y20852000D01*
X4116000Y20000000D02*
X2800000Y20000000D01*
X4920000Y4170000D02*
X6000000Y5250000D01*
X3042000Y20000000D02*
X4116000Y20000000D01*
X4116000Y20000000D02*
X3516000Y20600000D01*
X1238000Y13788000D02*
X1238000Y13500000D01*
X6992000Y6500000D02*
X5500000Y6500000D01*
X1492000Y18450000D02*
X3042000Y20000000D01*
X5400000Y6500000D02*
X4750000Y7150000D01*
X4920000Y2226000D02*
X4920000Y3178000D01*
X5008000Y2314000D02*
X4920000Y2226000D01*
X4116000Y20000000D02*
X4116000Y20851000D01*
D33*
X2500000Y37240000D02*
X4250000Y37240000D01*
D32*
X4920000Y3178000D02*
X6992000Y5250000D01*
X1238000Y17746000D02*
X1492000Y18000000D01*
X1950000Y14500000D02*
X1238000Y13788000D01*
X2050000Y19250000D02*
X1492000Y18692000D01*
X6992000Y5800000D02*
X6992000Y5250000D01*
X1950000Y15500000D02*
X1492000Y15958000D01*
X6569745Y6500000D02*
X5485580Y7584165D01*
X6000000Y5250000D02*
X6992000Y5250000D01*
X1238000Y16500000D02*
X1238000Y14762000D01*
D33*
X5500000Y6750000D02*
X5500000Y7569745D01*
D32*
X4750000Y6450000D02*
X5008000Y6192000D01*
X3516000Y20600000D02*
X3400000Y20600000D01*
X1492000Y18000000D02*
X1492000Y16000000D01*
D33*
X5500000Y7569745D02*
X5485580Y7584165D01*
D32*
X1238000Y16500000D02*
X1238000Y18438000D01*
X6992000Y6500000D02*
X6569745Y6500000D01*
X6992000Y6500000D02*
X6992000Y5800000D01*
X1238000Y16500000D02*
X1238000Y17746000D01*
D31*
X5008000Y6192000D02*
X5008000Y5800000D01*
D32*
X3092000Y20000000D02*
X4116000Y20000000D01*
X2800000Y20000000D02*
X2050000Y19250000D01*
X1492000Y18000000D02*
X1492000Y18450000D01*
D31*
%TO.N,/USB_D-*%
X8008000Y12750000D02*
X8008000Y14000000D01*
X8008000Y14000000D02*
X8008000Y15250000D01*
D35*
X13475000Y11287500D02*
X13012500Y11750000D01*
X8408000Y12375000D02*
X9478554Y12375000D01*
X8008000Y12750000D02*
X8033000Y12750000D01*
X11068000Y10750000D02*
X11800000Y10750000D01*
X10103554Y11750000D02*
X11068000Y11750000D01*
X9478554Y12375000D02*
X10103554Y11750000D01*
X11800000Y10750000D02*
X12400000Y10150000D01*
X12996016Y10150000D02*
X13475000Y10628984D01*
X8033000Y12750000D02*
X8408000Y12375000D01*
X12400000Y10150000D02*
X12996016Y10150000D01*
X13475000Y10628984D02*
X13475000Y11287500D01*
X13012500Y11750000D02*
X11068000Y11750000D01*
D30*
%TO.N,/GPIO26\u005CUSER_LED2*%
X16990000Y37240000D02*
X15000000Y35250000D01*
X3206802Y15451545D02*
X4751545Y15451545D01*
X15000000Y35250000D02*
X6099990Y35250000D01*
X6099990Y35250000D02*
X5599990Y35750000D01*
X5008000Y15708000D02*
X5008000Y16500000D01*
X4751545Y15451545D02*
X5008000Y15708000D01*
D32*
X18750000Y37240000D02*
X16990000Y37240000D01*
D35*
%TO.N,/USB_DN*%
X1250000Y23270000D02*
X1550000Y23270000D01*
X6592000Y12375000D02*
X6967000Y12750000D01*
X6378554Y12375000D02*
X6592000Y12375000D01*
X1935000Y22885000D02*
X5068554Y22885000D01*
X1550000Y23270000D02*
X1935000Y22885000D01*
X5068554Y22885000D02*
X6150000Y21803554D01*
X6150000Y12603554D02*
X6378554Y12375000D01*
X6967000Y12750000D02*
X6992000Y12750000D01*
X6150000Y21803554D02*
X6150000Y12603554D01*
%TO.N,/USB_DP*%
X4861446Y22385000D02*
X5650000Y21596446D01*
X5650000Y21596446D02*
X5650000Y12396446D01*
X1550000Y22000000D02*
X1935000Y22385000D01*
X6592000Y11875000D02*
X6967000Y11500000D01*
X6967000Y11500000D02*
X6992000Y11500000D01*
X6171446Y11875000D02*
X6592000Y11875000D01*
X5650000Y12396446D02*
X6171446Y11875000D01*
X1250000Y22000000D02*
X1550000Y22000000D01*
X1935000Y22385000D02*
X4861446Y22385000D01*
D31*
%TO.N,/GPIO3\u005CLP_I2C_SCL\u005CI2C_SCL*%
X8400000Y5400000D02*
X8500000Y5500000D01*
D32*
X10000000Y5000010D02*
X9600010Y5400000D01*
D30*
X14217528Y34208000D02*
X14462764Y33962764D01*
D31*
X8008000Y5250000D02*
X8258000Y5500000D01*
D30*
X15003077Y33962764D02*
X14462764Y33962764D01*
D33*
X10000000Y2226000D02*
X10000000Y5000010D01*
D31*
X8008000Y5250000D02*
X8250000Y5250000D01*
D32*
X1250000Y33430000D02*
X2900000Y33430000D01*
D31*
X9500010Y5500000D02*
X9600010Y5400000D01*
D30*
X4458000Y34208000D02*
X14217528Y34208000D01*
X15482920Y33482921D02*
X15003077Y33962764D01*
X3680000Y33430000D02*
X4458000Y34208000D01*
X2900000Y33430000D02*
X3680000Y33430000D01*
D31*
X8258000Y5500000D02*
X8500000Y5500000D01*
X8250000Y5250000D02*
X8400000Y5400000D01*
X8500000Y5500000D02*
X9500010Y5500000D01*
D30*
%TO.N,/GPIO2\u005CLP_I2C_SDA\u005CI2C_SDA*%
X15565646Y34576539D02*
X14605128Y34576539D01*
X14436795Y34744872D02*
X3500000Y34744872D01*
D32*
X1250000Y34700000D02*
X1294872Y34744872D01*
D31*
X8008000Y6500000D02*
X9700000Y6500000D01*
D30*
X14605128Y34576539D02*
X14436795Y34744872D01*
D32*
X1294872Y34744872D02*
X3500000Y34744872D01*
D30*
%TO.N,/GPIO0\u005CSPI2_CS*%
X15856600Y32680257D02*
X16444772Y32092085D01*
X14008764Y33704000D02*
X15032507Y32680257D01*
X15032507Y32680257D02*
X15856600Y32680257D01*
D32*
X1250000Y32160000D02*
X2500000Y32160000D01*
D30*
X4704000Y33704000D02*
X14008764Y33704000D01*
X3160000Y32160000D02*
X4704000Y33704000D01*
X2500000Y32160000D02*
X3160000Y32160000D01*
D33*
%TO.N,/GPIO1\u005CSPI2_CLK*%
X15000000Y2306000D02*
X15000000Y5200000D01*
D30*
X13800000Y33200000D02*
X14911633Y32088367D01*
X2640000Y30890000D02*
X4950000Y33200000D01*
D32*
X1250000Y30890000D02*
X2640000Y30890000D01*
D30*
X14911633Y32088367D02*
X15311633Y32088367D01*
X4950000Y33200000D02*
X13800000Y33200000D01*
D33*
X15080000Y2226000D02*
X15000000Y2306000D01*
D30*
X15311633Y32088367D02*
X16400000Y31000000D01*
%TO.N,/GPIO6\u005CSPI2_MISO*%
X5450000Y26700000D02*
X15263397Y26700000D01*
X15263397Y26700000D02*
X16668200Y28104803D01*
D32*
X1250000Y29620000D02*
X2530000Y29620000D01*
D30*
X2530000Y29620000D02*
X5450000Y26700000D01*
D33*
X12600000Y2286000D02*
X12600000Y5200000D01*
X12540000Y2226000D02*
X12600000Y2286000D01*
D30*
%TO.N,/GPIO7\u005CSPI2_MOSI*%
X16060200Y26196000D02*
X16864200Y27000000D01*
X2400000Y28350000D02*
X3050000Y28350000D01*
D32*
X1250000Y28350000D02*
X2400000Y28350000D01*
D30*
X5204000Y26196000D02*
X16060200Y26196000D01*
X3050000Y28350000D02*
X5204000Y26196000D01*
%TO.N,/GPIO5\u005CLP_UART_TXD\u005CU1TXD*%
X14587111Y22300000D02*
X13400000Y22300000D01*
X15557111Y23270000D02*
X14587111Y22300000D01*
D32*
X18750000Y23270000D02*
X15557111Y23270000D01*
%TO.N,/GPIO4\u005CLP_UART_RXD\u005CU1RXD*%
X7460000Y3205606D02*
X7460000Y2226000D01*
D30*
X15640000Y24540000D02*
X14200000Y23100000D01*
D32*
X18750000Y24540000D02*
X15640000Y24540000D01*
X8753776Y4499382D02*
X7460000Y3205606D01*
D33*
%TO.N,+5V_USB*%
X889000Y10500000D02*
X889000Y9500000D01*
X14400000Y10129078D02*
X14335461Y10064539D01*
D35*
X12167707Y13660200D02*
X12685816Y13660200D01*
D30*
X14124422Y12224422D02*
X14300000Y12048844D01*
D35*
X11800000Y9225000D02*
X11068000Y9225000D01*
D33*
X889000Y9500000D02*
X4750000Y9500000D01*
D30*
X12700000Y9339800D02*
X13739800Y9339800D01*
D32*
X3250000Y7150000D02*
X3250000Y5950000D01*
D35*
X12063953Y13763953D02*
X12167707Y13660200D01*
X11802907Y14025000D02*
X12063953Y13763953D01*
D33*
X889000Y11500000D02*
X4000000Y11500000D01*
D35*
X13975000Y12371016D02*
X13975000Y10421878D01*
D30*
X13523439Y9423439D02*
X14100000Y10000000D01*
D33*
X889000Y8858000D02*
X5558000Y8858000D01*
X13823439Y9423439D02*
X13523439Y9423439D01*
X5558000Y8858000D02*
X5600000Y8900000D01*
X14400000Y18800000D02*
X12500000Y18800000D01*
D35*
X12700000Y9339800D02*
X12892922Y9339800D01*
D32*
X13979701Y10064539D02*
X14335461Y10064539D01*
D35*
X12923008Y13423008D02*
X13021016Y13325000D01*
D33*
X889000Y10500000D02*
X4750000Y10500000D01*
X5600000Y8900000D02*
X5600000Y10900000D01*
D35*
X12685816Y13660200D02*
X12773008Y13573008D01*
D30*
X11068000Y14025000D02*
X11525000Y14025000D01*
D33*
X13439800Y13660200D02*
X13313937Y13660200D01*
D32*
X2758000Y5250000D02*
X2758000Y5458000D01*
D35*
X11802907Y8975000D02*
X12167707Y9339800D01*
D30*
X13975000Y10175000D02*
X13975000Y10421878D01*
D32*
X13507581Y9592419D02*
X13979701Y10064539D01*
D30*
X14300000Y10000000D02*
X14400000Y10100000D01*
X14124422Y12224422D02*
X14124422Y10175578D01*
D33*
X14400000Y17800000D02*
X13500000Y17800000D01*
X11800000Y19500000D02*
X11761000Y19461000D01*
D35*
X13178122Y9625000D02*
X12200000Y9625000D01*
D33*
X4750000Y10500000D02*
X4750000Y10250000D01*
D35*
X13021016Y13325000D02*
X13975000Y12371016D01*
D33*
X13700000Y19500000D02*
X11800000Y19500000D01*
D35*
X12918109Y13427907D02*
X12923008Y13423008D01*
D30*
X12976561Y9423439D02*
X13223439Y9423439D01*
D35*
X12167707Y9339800D02*
X12700000Y9339800D01*
D30*
X12773008Y13573008D02*
X12775836Y13573008D01*
D33*
X4350000Y8900000D02*
X5600000Y8900000D01*
D35*
X12225000Y13325000D02*
X13021016Y13325000D01*
D30*
X14100000Y10000000D02*
X14300000Y10000000D01*
D33*
X14400000Y17800000D02*
X14400000Y18800000D01*
X13439800Y13660200D02*
X14400000Y12700000D01*
D30*
X13223439Y9423439D02*
X13523439Y9423439D01*
D33*
X4031211Y8900000D02*
X3250000Y8118789D01*
X3250000Y12250000D02*
X889000Y12250000D01*
X889000Y9500000D02*
X889000Y8858000D01*
X11761000Y19461000D02*
X8224800Y19461000D01*
D30*
X13739800Y9339800D02*
X14050000Y9650000D01*
X13223439Y9423439D02*
X13975000Y10175000D01*
D33*
X889000Y12250000D02*
X889000Y11500000D01*
D35*
X11937500Y9362500D02*
X11998439Y9423439D01*
D30*
X11525000Y14025000D02*
X11775000Y13775000D01*
D35*
X12773008Y13573008D02*
X12923008Y13423008D01*
D33*
X4000000Y11750000D02*
X4000000Y10750000D01*
D30*
X14400000Y10100000D02*
X14400000Y12700000D01*
X14300000Y12048844D02*
X14300000Y11800000D01*
D35*
X12063953Y13763953D02*
X12400000Y13427907D01*
X12400000Y13427907D02*
X12918109Y13427907D01*
D32*
X2758000Y5458000D02*
X3100000Y5800000D01*
D33*
X889000Y11500000D02*
X889000Y10500000D01*
X3250000Y10000000D02*
X4350000Y8900000D01*
X4750000Y9500000D02*
X4750000Y9900000D01*
D30*
X13439800Y13660200D02*
X12685816Y13660200D01*
D33*
X3250000Y12250000D02*
X3250000Y10000000D01*
X3250000Y8118789D02*
X3250000Y7150000D01*
D35*
X12976561Y9423439D02*
X13178122Y9625000D01*
D33*
X14050000Y9650000D02*
X13823439Y9423439D01*
D32*
X3250000Y5950000D02*
X3100000Y5800000D01*
D35*
X11068000Y14025000D02*
X11802907Y14025000D01*
D33*
X8224800Y19461000D02*
X8187045Y19498755D01*
X12500000Y18800000D02*
X12350000Y18950000D01*
D35*
X11775000Y13775000D02*
X12225000Y13325000D01*
D30*
X14124422Y10175578D02*
X14300000Y10000000D01*
D33*
X5600000Y8900000D02*
X4031211Y8900000D01*
X5600000Y10900000D02*
X4750000Y11750000D01*
D35*
X13975000Y10421878D02*
X13178122Y9625000D01*
D33*
X14050000Y9650000D02*
X14335461Y9935461D01*
D35*
X11068000Y13775000D02*
X11775000Y13775000D01*
D33*
X4000000Y11500000D02*
X4000000Y11750000D01*
D35*
X11068000Y8975000D02*
X11802907Y8975000D01*
D33*
X4750000Y10250000D02*
X4750000Y12250000D01*
D35*
X11998439Y9423439D02*
X12976561Y9423439D01*
D33*
X12350000Y18950000D02*
X11800000Y19500000D01*
X4750000Y11750000D02*
X4750000Y12250000D01*
X4750000Y8900000D02*
X4750000Y10250000D01*
X13500000Y17800000D02*
X12350000Y18950000D01*
X4000000Y10750000D02*
X3250000Y10000000D01*
X14335461Y9935461D02*
X14335461Y10064539D01*
X14400000Y12700000D02*
X14400000Y10129078D01*
D30*
X12775836Y13573008D02*
X14124422Y12224422D01*
D33*
X4750000Y12250000D02*
X3250000Y12250000D01*
D35*
X12200000Y9625000D02*
X11937500Y9362500D01*
X11937500Y9362500D02*
X11800000Y9225000D01*
D33*
X14400000Y18800000D02*
X13700000Y19500000D01*
D35*
X12892922Y9339800D02*
X12976561Y9423439D01*
%TO.N,Net-(USB-PGM1-CC2)*%
X11068000Y13250000D02*
X9050000Y13250000D01*
X8637000Y15871000D02*
X8008000Y16500000D01*
X8637000Y13663000D02*
X8637000Y15871000D01*
X9050000Y13250000D02*
X8637000Y13663000D01*
%TO.N,Net-(USB-PGM1-CC1)*%
X8637000Y8379000D02*
X8008000Y7750000D01*
X11068000Y10250000D02*
X9250000Y10250000D01*
X8637000Y9637000D02*
X8637000Y8379000D01*
X9250000Y10250000D02*
X8637000Y9637000D01*
D31*
%TO.N,Net-(LED1-K)*%
X3992000Y13500000D02*
X2762000Y13500000D01*
%TO.N,Net-(LED2-K)*%
X3992000Y16500000D02*
X2762000Y16500000D01*
%TD*%
%TA.AperFunction,Conductor*%
%TO.N,+5V_USB*%
G36*
X14102495Y10629952D02*
G01*
X14478881Y10438989D01*
X14484708Y10432190D01*
X14484401Y10424088D01*
X14338457Y10070792D01*
X14332131Y10064454D01*
X14327614Y10063559D01*
X13945503Y10064514D01*
X13937238Y10067962D01*
X13933963Y10074469D01*
X13880015Y10432190D01*
X13852027Y10617775D01*
X13854182Y10626465D01*
X13861851Y10631087D01*
X13863596Y10631218D01*
X14097201Y10631218D01*
X14102495Y10629952D01*
G37*
%TD.AperFunction*%
%TD*%
%TA.AperFunction,Conductor*%
%TO.N,+3.3V*%
G36*
X5302042Y4762573D02*
G01*
X5304234Y4759532D01*
X5679573Y4008853D01*
X5680208Y3999921D01*
X5679863Y3999014D01*
X4930755Y2250110D01*
X4924347Y2243855D01*
X4915393Y2243962D01*
X4909245Y2250110D01*
X4160136Y3999014D01*
X4160029Y4007968D01*
X4160426Y4008853D01*
X4186334Y4060670D01*
X4189037Y4064190D01*
X4190483Y4065470D01*
X4280220Y4195477D01*
X4336237Y4343182D01*
X4338766Y4364020D01*
X4339910Y4367822D01*
X4404623Y4497248D01*
X4406231Y4499656D01*
X4420777Y4516442D01*
X4427857Y4531949D01*
X4429129Y4534092D01*
X4439342Y4547733D01*
X4458245Y4598419D01*
X4458551Y4599160D01*
X4481042Y4648404D01*
X4481111Y4648886D01*
X4482224Y4652450D01*
X4535766Y4759534D01*
X4542531Y4765400D01*
X4546231Y4766000D01*
X5293769Y4766000D01*
X5302042Y4762573D01*
G37*
%TD.AperFunction*%
%TD*%
%TA.AperFunction,Conductor*%
%TO.N,/GPIO3\u005CLP_I2C_SCL\u005CI2C_SCL*%
G36*
X2440074Y33812522D02*
G01*
X2447731Y33807882D01*
X2450000Y33800958D01*
X2450000Y33059043D01*
X2446573Y33050770D01*
X2440073Y33047478D01*
X2004168Y32980640D01*
X1996381Y32982169D01*
X1661469Y33182848D01*
X1265747Y33419966D01*
X1260413Y33427156D01*
X1261726Y33436014D01*
X1265746Y33440035D01*
X1996382Y33877833D01*
X2004167Y33879361D01*
X2440074Y33812522D01*
G37*
%TD.AperFunction*%
%TD*%
%TA.AperFunction,Conductor*%
%TO.N,/GPIO27\u005CUSER_LED1*%
G36*
X18003618Y26257832D02*
G01*
X18734251Y25820036D01*
X18739586Y25812844D01*
X18738273Y25803986D01*
X18734251Y25799964D01*
X18003618Y25362169D01*
X17995831Y25360640D01*
X17559927Y25427478D01*
X17552269Y25432119D01*
X17550000Y25439043D01*
X17550000Y26180958D01*
X17553427Y26189231D01*
X17559924Y26192522D01*
X17995831Y26259361D01*
X18003618Y26257832D01*
G37*
%TD.AperFunction*%
%TD*%
%TA.AperFunction,Conductor*%
%TO.N,/GPIO27\u005CUSER_LED1*%
G36*
X5135990Y14021573D02*
G01*
X5138215Y14018465D01*
X5254491Y13782131D01*
X5255069Y13773195D01*
X5252665Y13769111D01*
X5016672Y13508574D01*
X5008578Y13504743D01*
X5000145Y13507757D01*
X4999329Y13508574D01*
X4763335Y13769111D01*
X4760320Y13777544D01*
X4761508Y13782131D01*
X4877785Y14018465D01*
X4884512Y14024376D01*
X4888283Y14025000D01*
X5127717Y14025000D01*
X5135990Y14021573D01*
G37*
%TD.AperFunction*%
%TD*%
%TA.AperFunction,Conductor*%
%TO.N,+3.3V*%
G36*
X5958997Y4740633D02*
G01*
X6484923Y4214707D01*
X6488350Y4206434D01*
X6487625Y4202378D01*
X5685691Y2032269D01*
X5679609Y2025697D01*
X5671707Y2025019D01*
X4928751Y2222776D01*
X4921637Y2228215D01*
X4920100Y2235045D01*
X5066226Y3999148D01*
X5070324Y4007109D01*
X5070355Y4007135D01*
X5317130Y4214707D01*
X5943193Y4741315D01*
X5951730Y4744017D01*
X5958997Y4740633D01*
G37*
%TD.AperFunction*%
%TD*%
%TA.AperFunction,Conductor*%
%TO.N,/GPIO2\u005CLP_I2C_SDA\u005CI2C_SDA*%
G36*
X15410957Y34941827D02*
G01*
X15416914Y34935678D01*
X15564769Y34581041D01*
X15564790Y34572087D01*
X15564769Y34572037D01*
X15416914Y34217401D01*
X15410567Y34211083D01*
X15402008Y34210948D01*
X15204583Y34284969D01*
X15201504Y34286691D01*
X15185232Y34299356D01*
X15179282Y34301399D01*
X15176284Y34302942D01*
X15171165Y34306597D01*
X15118495Y34322277D01*
X15118034Y34322425D01*
X15066073Y34340264D01*
X15066071Y34340264D01*
X15059784Y34340264D01*
X15056444Y34340751D01*
X15055396Y34341063D01*
X15053704Y34341567D01*
X15052939Y34341825D01*
X14773239Y34446693D01*
X14766695Y34452806D01*
X14765646Y34457648D01*
X14765646Y34695431D01*
X14769073Y34703704D01*
X14773239Y34706386D01*
X15402010Y34942131D01*
X15410957Y34941827D01*
G37*
%TD.AperFunction*%
%TD*%
%TA.AperFunction,Conductor*%
%TO.N,/GPIO5\u005CLP_UART_TXD\u005CU1TXD*%
G36*
X13814287Y22571615D02*
G01*
X13817936Y22569421D01*
X13827760Y22560717D01*
X13897697Y22524011D01*
X13967634Y22487304D01*
X14044325Y22468402D01*
X14121015Y22449500D01*
X14121016Y22449500D01*
X14137869Y22449500D01*
X14141976Y22448755D01*
X14192407Y22429847D01*
X14198951Y22423734D01*
X14200000Y22418892D01*
X14200000Y22181109D01*
X14196573Y22172836D01*
X14192407Y22170154D01*
X13563637Y21934409D01*
X13554688Y21934713D01*
X13548731Y21940862D01*
X13400875Y22295501D01*
X13400855Y22304450D01*
X13548732Y22659141D01*
X13555078Y22665457D01*
X13563635Y22665592D01*
X13814287Y22571615D01*
G37*
%TD.AperFunction*%
%TD*%
%TA.AperFunction,Conductor*%
%TO.N,/ESP_EN*%
G36*
X2440074Y36352522D02*
G01*
X2447731Y36347882D01*
X2450000Y36340958D01*
X2450000Y35599043D01*
X2446573Y35590770D01*
X2440073Y35587478D01*
X2004168Y35520640D01*
X1996381Y35522169D01*
X1661469Y35722848D01*
X1265747Y35959966D01*
X1260413Y35967156D01*
X1261726Y35976014D01*
X1265746Y35980035D01*
X1996382Y36417833D01*
X2004167Y36419361D01*
X2440074Y36352522D01*
G37*
%TD.AperFunction*%
%TD*%
%TA.AperFunction,Conductor*%
%TO.N,+5V_USB*%
G36*
X3257130Y9991078D02*
G01*
X3259276Y9988932D01*
X4244961Y8706556D01*
X4247286Y8697908D01*
X4245504Y8693063D01*
X3761458Y7946082D01*
X3754083Y7941003D01*
X3751639Y7940745D01*
X2748361Y7940745D01*
X2740088Y7944172D01*
X2738542Y7946082D01*
X2254495Y8693063D01*
X2252872Y8701870D01*
X2255036Y8706553D01*
X3240724Y9988933D01*
X3248482Y9993403D01*
X3257130Y9991078D01*
G37*
%TD.AperFunction*%
%TD*%
%TA.AperFunction,Conductor*%
%TO.N,+5V_USB*%
G36*
X3219973Y12729192D02*
G01*
X3221281Y12727634D01*
X4216930Y11306934D01*
X4218872Y11298192D01*
X4216724Y11293218D01*
X3260231Y10012363D01*
X3252535Y10007785D01*
X3243855Y10009989D01*
X3241586Y10012226D01*
X2258917Y11288420D01*
X2256585Y11297066D01*
X2261049Y11304828D01*
X2263245Y11306163D01*
X3200000Y11742000D01*
X3200000Y12720919D01*
X3203427Y12729192D01*
X3211700Y12732619D01*
X3219973Y12729192D01*
G37*
%TD.AperFunction*%
%TD*%
%TA.AperFunction,Conductor*%
%TO.N,/GPIO7\u005CSPI2_MOSI*%
G36*
X16505080Y27148781D02*
G01*
X16860395Y27002564D01*
X16866742Y26996246D01*
X16866763Y26996196D01*
X17012979Y26640882D01*
X17012958Y26631928D01*
X17007001Y26625779D01*
X16395698Y26347868D01*
X16386749Y26347564D01*
X16382583Y26350246D01*
X16214445Y26518384D01*
X16211018Y26526657D01*
X16212066Y26531495D01*
X16489979Y27142803D01*
X16496522Y27148915D01*
X16505080Y27148781D01*
G37*
%TD.AperFunction*%
%TD*%
%TA.AperFunction,Conductor*%
%TO.N,/GPIO2\u005CLP_I2C_SDA\u005CI2C_SDA*%
G36*
X2438926Y35126466D02*
G01*
X2447004Y35122601D01*
X2450000Y35114783D01*
X2450000Y34373545D01*
X2446573Y34365272D01*
X2440499Y34362054D01*
X2004202Y34278551D01*
X1996269Y34279844D01*
X1266565Y34690124D01*
X1261033Y34697165D01*
X1262101Y34706056D01*
X1266283Y34710357D01*
X1996933Y35148163D01*
X2003569Y35149809D01*
X2438926Y35126466D01*
G37*
%TD.AperFunction*%
%TD*%
%TA.AperFunction,Conductor*%
%TO.N,/USB_DN*%
G36*
X6752142Y12859743D02*
G01*
X6987737Y12752398D01*
X6993845Y12745849D01*
X6994291Y12744364D01*
X7053859Y12484361D01*
X7052366Y12475531D01*
X7047240Y12471072D01*
X6570618Y12257392D01*
X6561667Y12257134D01*
X6555156Y12263282D01*
X6554132Y12268068D01*
X6554132Y12497162D01*
X6555433Y12502524D01*
X6683033Y12750000D01*
X6736892Y12854459D01*
X6743729Y12860241D01*
X6752142Y12859743D01*
G37*
%TD.AperFunction*%
%TD*%
%TA.AperFunction,Conductor*%
%TO.N,/GPIO27\u005CUSER_LED1*%
G36*
X4281616Y25249755D02*
G01*
X4449754Y25081617D01*
X4453181Y25073344D01*
X4452132Y25068502D01*
X4174221Y24457199D01*
X4167677Y24451086D01*
X4159118Y24451221D01*
X3803804Y24597437D01*
X3797457Y24603755D01*
X3797436Y24603805D01*
X3651220Y24959119D01*
X3651241Y24968073D01*
X3657196Y24974221D01*
X4268503Y25252134D01*
X4277450Y25252437D01*
X4281616Y25249755D01*
G37*
%TD.AperFunction*%
%TD*%
%TA.AperFunction,Conductor*%
%TO.N,Net-(3.3V_E1-Pad1)*%
G36*
X8755237Y24498371D02*
G01*
X9242660Y24253685D01*
X9248516Y24246911D01*
X9249029Y24241846D01*
X9132228Y23260317D01*
X9127848Y23252507D01*
X9120610Y23250000D01*
X8379390Y23250000D01*
X8371117Y23253427D01*
X8367772Y23260317D01*
X8250970Y24241846D01*
X8253395Y24250467D01*
X8257336Y24253683D01*
X8744753Y24498367D01*
X8753682Y24499015D01*
X8755237Y24498371D01*
G37*
%TD.AperFunction*%
%TD*%
%TA.AperFunction,Conductor*%
%TO.N,/GPIO6\u005CSPI2_MISO*%
G36*
X13107179Y4762573D02*
G01*
X13110244Y4757187D01*
X13301020Y4007847D01*
X13300437Y4000353D01*
X12551059Y2250820D01*
X12544651Y2244565D01*
X12535697Y2244672D01*
X12529459Y2251037D01*
X11821464Y3999873D01*
X11821292Y4008194D01*
X12089226Y4758237D01*
X12095236Y4764874D01*
X12100244Y4766000D01*
X13098906Y4766000D01*
X13107179Y4762573D01*
G37*
%TD.AperFunction*%
%TD*%
%TA.AperFunction,Conductor*%
%TO.N,/GPIO1\u005CSPI2_CLK*%
G36*
X2440074Y31272522D02*
G01*
X2447731Y31267882D01*
X2450000Y31260958D01*
X2450000Y30519043D01*
X2446573Y30510770D01*
X2440073Y30507478D01*
X2004168Y30440640D01*
X1996381Y30442169D01*
X1661469Y30642848D01*
X1265747Y30879966D01*
X1260413Y30887156D01*
X1261726Y30896014D01*
X1265746Y30900035D01*
X1996382Y31337833D01*
X2004167Y31339361D01*
X2440074Y31272522D01*
G37*
%TD.AperFunction*%
%TD*%
%TA.AperFunction,Conductor*%
%TO.N,+5V_USB*%
G36*
X14759138Y12551269D02*
G01*
X14765456Y12544922D01*
X14765591Y12536363D01*
X14529847Y11907593D01*
X14523734Y11901049D01*
X14518892Y11900000D01*
X14281108Y11900000D01*
X14272835Y11903427D01*
X14270153Y11907593D01*
X14034408Y12536365D01*
X14034712Y12545312D01*
X14040859Y12551268D01*
X14395500Y12699125D01*
X14404449Y12699145D01*
X14759138Y12551269D01*
G37*
%TD.AperFunction*%
%TD*%
%TA.AperFunction,Conductor*%
%TO.N,/GPIO1\u005CSPI2_CLK*%
G36*
X15508090Y4762573D02*
G01*
X15510807Y4758315D01*
X15784839Y4008188D01*
X15784723Y3999855D01*
X15090464Y2251355D01*
X15084226Y2244931D01*
X15075272Y2244799D01*
X15068848Y2251037D01*
X15068835Y2251066D01*
X14319775Y3999855D01*
X14319497Y4000504D01*
X14318847Y4007711D01*
X14489923Y4756906D01*
X14495105Y4764207D01*
X14501329Y4766000D01*
X15499817Y4766000D01*
X15508090Y4762573D01*
G37*
%TD.AperFunction*%
%TD*%
%TA.AperFunction,Conductor*%
%TO.N,/GPIO3\u005CLP_I2C_SCL\u005CI2C_SCL*%
G36*
X14896887Y34084980D02*
G01*
X15623834Y33856298D01*
X15630696Y33850547D01*
X15631483Y33841627D01*
X15631142Y33840686D01*
X15485773Y33487425D01*
X15479455Y33481078D01*
X15479420Y33481063D01*
X15123781Y33334150D01*
X15114826Y33334159D01*
X15108677Y33340091D01*
X14882739Y33833446D01*
X14881677Y33838318D01*
X14881677Y34073818D01*
X14885104Y34082091D01*
X14893377Y34085518D01*
X14896887Y34084980D01*
G37*
%TD.AperFunction*%
%TD*%
%TA.AperFunction,Conductor*%
%TO.N,+5V_USB*%
G36*
X11783224Y9101630D02*
G01*
X11790821Y9096889D01*
X11793000Y9090089D01*
X11793000Y8859912D01*
X11789573Y8851639D01*
X11783224Y8848371D01*
X11692378Y8833230D01*
X11646953Y8825659D01*
X11645031Y8825500D01*
X11642577Y8825500D01*
X11639628Y8825878D01*
X11508938Y8859912D01*
X11110475Y8963679D01*
X11103334Y8969079D01*
X11102103Y8977949D01*
X11107504Y8985091D01*
X11110476Y8986322D01*
X11640589Y9124373D01*
X11645454Y9124591D01*
X11783224Y9101630D01*
G37*
%TD.AperFunction*%
%TD*%
%TA.AperFunction,Conductor*%
%TO.N,/GPIO3\u005CLP_I2C_SCL\u005CI2C_SCL*%
G36*
X9596112Y5796338D02*
G01*
X9600020Y5788281D01*
X9600040Y5787621D01*
X9601004Y5402356D01*
X9600103Y5397825D01*
X9451160Y5040579D01*
X9444813Y5034261D01*
X9436557Y5034017D01*
X8827797Y5243286D01*
X8821088Y5249216D01*
X8819901Y5254350D01*
X8819901Y5742970D01*
X8823328Y5751243D01*
X8830910Y5754650D01*
X9587652Y5799272D01*
X9596112Y5796338D01*
G37*
%TD.AperFunction*%
%TD*%
%TA.AperFunction,Conductor*%
%TO.N,/GPIO26\u005CUSER_LED2*%
G36*
X5967788Y35898641D02*
G01*
X5974069Y35892409D01*
X6036440Y35745497D01*
X6191079Y35381251D01*
X6191297Y35372661D01*
X6104119Y35134266D01*
X6098060Y35127673D01*
X6089113Y35127296D01*
X6088858Y35127392D01*
X5457965Y35376093D01*
X5451525Y35382315D01*
X5451371Y35391269D01*
X5451436Y35391430D01*
X5597137Y35745499D01*
X5603454Y35751844D01*
X5603457Y35751846D01*
X5958835Y35898650D01*
X5967788Y35898641D01*
G37*
%TD.AperFunction*%
%TD*%
%TA.AperFunction,Conductor*%
%TO.N,+3.3V*%
G36*
X5389236Y4762573D02*
G01*
X5391884Y4758499D01*
X5680294Y4008437D01*
X5680128Y3999631D01*
X4931207Y2251166D01*
X4924799Y2244911D01*
X4915845Y2245018D01*
X4909590Y2251426D01*
X4909566Y2251485D01*
X4221137Y3998967D01*
X4221293Y4007918D01*
X4221696Y4008751D01*
X4623693Y4759821D01*
X4630618Y4765498D01*
X4634008Y4766000D01*
X5380963Y4766000D01*
X5389236Y4762573D01*
G37*
%TD.AperFunction*%
%TD*%
%TA.AperFunction,Conductor*%
%TO.N,/GPIO6\u005CSPI2_MISO*%
G36*
X16309080Y28253584D02*
G01*
X16664395Y28107367D01*
X16670742Y28101049D01*
X16670763Y28100999D01*
X16816979Y27745685D01*
X16816958Y27736731D01*
X16811001Y27730582D01*
X16199698Y27452671D01*
X16190749Y27452367D01*
X16186583Y27455049D01*
X16018445Y27623187D01*
X16015018Y27631460D01*
X16016066Y27636298D01*
X16293979Y28247606D01*
X16300522Y28253718D01*
X16309080Y28253584D01*
G37*
%TD.AperFunction*%
%TD*%
%TA.AperFunction,Conductor*%
%TO.N,/USB_DN*%
G36*
X2006031Y23690752D02*
G01*
X2279070Y23272092D01*
X2448100Y23012914D01*
X2450000Y23006523D01*
X2450000Y22774577D01*
X2446573Y22766304D01*
X2438300Y22762877D01*
X2436562Y22763007D01*
X2428346Y22764241D01*
X2425704Y22764638D01*
X2425702Y22764638D01*
X2389264Y22762920D01*
X2388161Y22762920D01*
X1191658Y22819386D01*
X1183556Y22823199D01*
X1180523Y22831625D01*
X1180648Y22832863D01*
X1248131Y23264449D01*
X1252795Y23272092D01*
X1253869Y23272789D01*
X1990419Y23694515D01*
X1999300Y23695651D01*
X2006031Y23690752D01*
G37*
%TD.AperFunction*%
%TD*%
%TA.AperFunction,Conductor*%
%TO.N,/GPIO11\u005CU0TXD*%
G36*
X18003743Y35117036D02*
G01*
X18733338Y34709857D01*
X18738892Y34702832D01*
X18737853Y34693938D01*
X18733650Y34689604D01*
X18003007Y34251802D01*
X17996499Y34250148D01*
X17561206Y34268527D01*
X17553085Y34272300D01*
X17550000Y34280217D01*
X17550000Y35021369D01*
X17553427Y35029642D01*
X17559450Y35032851D01*
X17995792Y35118301D01*
X18003743Y35117036D01*
G37*
%TD.AperFunction*%
%TD*%
%TA.AperFunction,Conductor*%
%TO.N,+5V_USB*%
G36*
X11646954Y14174341D02*
G01*
X11783224Y14151630D01*
X11790821Y14146890D01*
X11793000Y14140089D01*
X11793000Y13909912D01*
X11789573Y13901639D01*
X11783223Y13898371D01*
X11645457Y13875410D01*
X11640585Y13875629D01*
X11110476Y14013678D01*
X11103334Y14019079D01*
X11102103Y14027949D01*
X11107504Y14035091D01*
X11110476Y14036322D01*
X11508942Y14140089D01*
X11639628Y14174123D01*
X11642577Y14174500D01*
X11645031Y14174500D01*
X11646954Y14174341D01*
G37*
%TD.AperFunction*%
%TD*%
%TA.AperFunction,Conductor*%
%TO.N,/USB_D-*%
G36*
X8263107Y12854458D02*
G01*
X8444567Y12502524D01*
X8445868Y12497162D01*
X8445868Y12268068D01*
X8442441Y12259795D01*
X8434168Y12256368D01*
X8429382Y12257392D01*
X7952759Y12471072D01*
X7946611Y12477583D01*
X7946140Y12484359D01*
X8005709Y12744366D01*
X8010896Y12751663D01*
X8012256Y12752396D01*
X8247858Y12859744D01*
X8256806Y12860055D01*
X8263107Y12854458D01*
G37*
%TD.AperFunction*%
%TD*%
%TA.AperFunction,Conductor*%
%TO.N,/GPIO28\u005CBOOT*%
G36*
X12505237Y24498371D02*
G01*
X12992660Y24253685D01*
X12998516Y24246911D01*
X12999029Y24241846D01*
X12882228Y23260317D01*
X12877848Y23252507D01*
X12870610Y23250000D01*
X12129390Y23250000D01*
X12121117Y23253427D01*
X12117772Y23260317D01*
X12000970Y24241846D01*
X12003395Y24250467D01*
X12007336Y24253683D01*
X12494753Y24498367D01*
X12503682Y24499015D01*
X12505237Y24498371D01*
G37*
%TD.AperFunction*%
%TD*%
%TA.AperFunction,Conductor*%
%TO.N,/USB_D+*%
G36*
X12425445Y12824537D02*
G01*
X12426085Y12823946D01*
X12697546Y12553442D01*
X12700987Y12545175D01*
X12700987Y12545125D01*
X12700026Y12160740D01*
X12696578Y12152475D01*
X12689298Y12149109D01*
X12406480Y12125540D01*
X12405508Y12125500D01*
X12402786Y12125500D01*
X12396305Y12127459D01*
X12035272Y12367675D01*
X12030282Y12375111D01*
X12032012Y12383897D01*
X12032874Y12385035D01*
X12170297Y12545175D01*
X12408948Y12823278D01*
X12416935Y12827324D01*
X12425445Y12824537D01*
G37*
%TD.AperFunction*%
%TD*%
%TA.AperFunction,Conductor*%
%TO.N,Net-(USB-PGM1-CC1)*%
G36*
X8352729Y8258824D02*
G01*
X8516705Y8094848D01*
X8520132Y8086575D01*
X8518465Y8080555D01*
X8263172Y7655068D01*
X8255977Y7649737D01*
X8248699Y7650263D01*
X8012564Y7747131D01*
X8006210Y7753442D01*
X8005746Y7754769D01*
X7931921Y8016234D01*
X7932971Y8025125D01*
X7937337Y8029546D01*
X8338617Y8260690D01*
X8347496Y8261849D01*
X8352729Y8258824D01*
G37*
%TD.AperFunction*%
%TD*%
%TA.AperFunction,Conductor*%
%TO.N,+5V_USB*%
G36*
X11645920Y13914192D02*
G01*
X11856749Y13856005D01*
X11863812Y13850501D01*
X11864914Y13841614D01*
X11861909Y13836454D01*
X11699635Y13674180D01*
X11699030Y13673616D01*
X11647661Y13629045D01*
X11639166Y13626211D01*
X11637030Y13626563D01*
X11112237Y13763942D01*
X11105101Y13769353D01*
X11103881Y13778224D01*
X11109292Y13785360D01*
X11112445Y13786632D01*
X11640057Y13914286D01*
X11645920Y13914192D01*
G37*
%TD.AperFunction*%
%TD*%
%TA.AperFunction,Conductor*%
%TO.N,+5V_USB*%
G36*
X11646954Y9374341D02*
G01*
X11783224Y9351630D01*
X11790821Y9346890D01*
X11793000Y9340089D01*
X11793000Y9109912D01*
X11789573Y9101639D01*
X11783223Y9098371D01*
X11645457Y9075410D01*
X11640585Y9075629D01*
X11110476Y9213678D01*
X11103334Y9219079D01*
X11102103Y9227949D01*
X11107504Y9235091D01*
X11110476Y9236322D01*
X11508942Y9340089D01*
X11639628Y9374123D01*
X11642577Y9374500D01*
X11645031Y9374500D01*
X11646954Y9374341D01*
G37*
%TD.AperFunction*%
%TD*%
%TA.AperFunction,Conductor*%
%TO.N,+5V_USB*%
G36*
X14060112Y10339925D02*
G01*
X14330605Y10070781D01*
X14334053Y10062517D01*
X14333158Y10058000D01*
X14186079Y9703876D01*
X14179741Y9697550D01*
X14172954Y9696896D01*
X13763488Y9779727D01*
X13757535Y9782922D01*
X13589555Y9950902D01*
X13586128Y9959175D01*
X13589555Y9967448D01*
X13590390Y9968206D01*
X14044443Y10340677D01*
X14053011Y10343273D01*
X14060112Y10339925D01*
G37*
%TD.AperFunction*%
%TD*%
%TA.AperFunction,Conductor*%
%TO.N,/GPIO0\u005CSPI2_CS*%
G36*
X2440074Y32542522D02*
G01*
X2447731Y32537882D01*
X2450000Y32530958D01*
X2450000Y31789043D01*
X2446573Y31780770D01*
X2440073Y31777478D01*
X2004168Y31710640D01*
X1996381Y31712169D01*
X1661469Y31912848D01*
X1265747Y32149966D01*
X1260413Y32157156D01*
X1261726Y32166014D01*
X1265746Y32170035D01*
X1996382Y32607833D01*
X2004167Y32609361D01*
X2440074Y32542522D01*
G37*
%TD.AperFunction*%
%TD*%
%TA.AperFunction,Conductor*%
%TO.N,+5V_USB*%
G36*
X14526405Y10848274D02*
G01*
X14529397Y10843163D01*
X14702212Y10227586D01*
X14701148Y10218695D01*
X14695449Y10213625D01*
X14339963Y10065416D01*
X14331009Y10065395D01*
X14330959Y10065416D01*
X13977330Y10212851D01*
X13971012Y10219198D01*
X13971033Y10228152D01*
X13971286Y10228717D01*
X14269804Y10845101D01*
X14276494Y10851053D01*
X14280334Y10851701D01*
X14518132Y10851701D01*
X14526405Y10848274D01*
G37*
%TD.AperFunction*%
%TD*%
%TA.AperFunction,Conductor*%
%TO.N,/GPIO0\u005CSPI2_CS*%
G36*
X15976267Y32744219D02*
G01*
X16380191Y32560587D01*
X16587573Y32466307D01*
X16593686Y32459763D01*
X16593551Y32451204D01*
X16447335Y32095890D01*
X16441017Y32089543D01*
X16440967Y32089522D01*
X16085653Y31943306D01*
X16076699Y31943327D01*
X16070550Y31949284D01*
X16006795Y32089522D01*
X15792638Y32560589D01*
X15792335Y32569536D01*
X15795015Y32573700D01*
X15963156Y32741841D01*
X15971428Y32745267D01*
X15976267Y32744219D01*
G37*
%TD.AperFunction*%
%TD*%
%TA.AperFunction,Conductor*%
%TO.N,/ESP_EN*%
G36*
X3842476Y19162128D02*
G01*
X3844075Y19160798D01*
X4117707Y18888531D01*
X4117749Y18888489D01*
X4389973Y18614900D01*
X4393379Y18606619D01*
X4389931Y18598354D01*
X4388332Y18597024D01*
X3738946Y18148083D01*
X3730192Y18146197D01*
X3724020Y18149434D01*
X3378609Y18494845D01*
X3375182Y18503118D01*
X3377256Y18509768D01*
X3826200Y19159158D01*
X3833722Y19164014D01*
X3842476Y19162128D01*
G37*
%TD.AperFunction*%
%TD*%
%TA.AperFunction,Conductor*%
%TO.N,/ESP_EN*%
G36*
X4384403Y18777340D02*
G01*
X4477128Y18738680D01*
X4483446Y18732333D01*
X4483935Y18724883D01*
X4275525Y17938757D01*
X4270093Y17931638D01*
X4261218Y17930446D01*
X4255943Y17933482D01*
X3912962Y18276463D01*
X3910222Y18280787D01*
X3751206Y18724269D01*
X3751639Y18733213D01*
X3757728Y18739021D01*
X4113211Y18886665D01*
X4122163Y18886673D01*
X4384403Y18777340D01*
G37*
%TD.AperFunction*%
%TD*%
%TA.AperFunction,Conductor*%
%TO.N,/GPIO1\u005CSPI2_CLK*%
G36*
X15931495Y31652134D02*
G01*
X15989284Y31625862D01*
X15992200Y31623969D01*
X16072532Y31552802D01*
X16138993Y31517921D01*
X16212406Y31479389D01*
X16256570Y31468504D01*
X16365787Y31441585D01*
X16365788Y31441585D01*
X16392091Y31441585D01*
X16396933Y31440536D01*
X16542801Y31374222D01*
X16548914Y31367678D01*
X16548779Y31359119D01*
X16402563Y31003805D01*
X16396245Y30997458D01*
X16396195Y30997437D01*
X16040881Y30851221D01*
X16031927Y30851242D01*
X16025778Y30857199D01*
X15962023Y30997437D01*
X15747866Y31468504D01*
X15747563Y31477451D01*
X15750243Y31481615D01*
X15918384Y31649756D01*
X15926656Y31653182D01*
X15931495Y31652134D01*
G37*
%TD.AperFunction*%
%TD*%
%TA.AperFunction,Conductor*%
%TO.N,/USB_D+*%
G36*
X8444844Y11986719D02*
G01*
X8445868Y11981933D01*
X8445868Y11752839D01*
X8444567Y11747477D01*
X8263107Y11395544D01*
X8256270Y11389761D01*
X8247857Y11390259D01*
X8012262Y11497603D01*
X8006154Y11504152D01*
X8005710Y11505630D01*
X7946140Y11765642D01*
X7947633Y11774470D01*
X7952758Y11778929D01*
X8429382Y11992610D01*
X8438333Y11992867D01*
X8444844Y11986719D01*
G37*
%TD.AperFunction*%
%TD*%
%TA.AperFunction,Conductor*%
%TO.N,Net-(USB-PGM1-CC2)*%
G36*
X8257653Y16599708D02*
G01*
X8263171Y16594935D01*
X8485132Y16225000D01*
X8518465Y16169446D01*
X8519783Y16160588D01*
X8516705Y16155153D01*
X8352729Y15991177D01*
X8344456Y15987750D01*
X8338616Y15989312D01*
X8193120Y16073120D01*
X7937341Y16220453D01*
X7931884Y16227550D01*
X7931921Y16233766D01*
X8005745Y16495226D01*
X8011290Y16502255D01*
X8012547Y16502863D01*
X8248700Y16599739D01*
X8257653Y16599708D01*
G37*
%TD.AperFunction*%
%TD*%
%TA.AperFunction,Conductor*%
%TO.N,/GPIO26\u005CUSER_LED2*%
G36*
X18003618Y37687832D02*
G01*
X18734251Y37250036D01*
X18739586Y37242844D01*
X18738273Y37233986D01*
X18734251Y37229964D01*
X18003618Y36792169D01*
X17995831Y36790640D01*
X17559927Y36857478D01*
X17552269Y36862119D01*
X17550000Y36869043D01*
X17550000Y37610958D01*
X17553427Y37619231D01*
X17559924Y37622522D01*
X17995831Y37689361D01*
X18003618Y37687832D01*
G37*
%TD.AperFunction*%
%TD*%
%TA.AperFunction,Conductor*%
%TO.N,+5V_USB*%
G36*
X11640453Y13993986D02*
G01*
X11645256Y13992657D01*
X11705417Y13960988D01*
X11824817Y13898134D01*
X11830541Y13891249D01*
X11829719Y13882332D01*
X11827639Y13879509D01*
X11664034Y13715904D01*
X11655761Y13712477D01*
X11652744Y13712873D01*
X11055409Y13872315D01*
X11048299Y13877759D01*
X11046848Y13885304D01*
X11065751Y14015121D01*
X11070334Y14022813D01*
X11077975Y14025116D01*
X11640453Y13993986D01*
G37*
%TD.AperFunction*%
%TD*%
%TA.AperFunction,Conductor*%
%TO.N,/GPIO28\u005CBOOT*%
G36*
X18003618Y22447832D02*
G01*
X18734251Y22010036D01*
X18739586Y22002844D01*
X18738273Y21993986D01*
X18734251Y21989964D01*
X18003618Y21552169D01*
X17995831Y21550640D01*
X17559927Y21617478D01*
X17552269Y21622119D01*
X17550000Y21629043D01*
X17550000Y22370958D01*
X17553427Y22379231D01*
X17559924Y22382522D01*
X17995831Y22449361D01*
X18003618Y22447832D01*
G37*
%TD.AperFunction*%
%TD*%
%TA.AperFunction,Conductor*%
%TO.N,/USB_DP*%
G36*
X6570613Y11992611D02*
G01*
X7009071Y11796041D01*
X7047240Y11778929D01*
X7053388Y11772418D01*
X7053859Y11765640D01*
X6994291Y11505637D01*
X6989103Y11498338D01*
X6987737Y11497603D01*
X6752142Y11390259D01*
X6743193Y11389947D01*
X6736892Y11395544D01*
X6555433Y11747477D01*
X6554132Y11752839D01*
X6554132Y11981934D01*
X6557559Y11990207D01*
X6565832Y11993634D01*
X6570613Y11992611D01*
G37*
%TD.AperFunction*%
%TD*%
%TA.AperFunction,Conductor*%
%TO.N,/ESP_EN*%
G36*
X4119171Y18887919D02*
G01*
X4395731Y18772616D01*
X4476029Y18739138D01*
X4482347Y18732791D01*
X4482440Y18724119D01*
X4248893Y18120168D01*
X4242712Y18113688D01*
X4237980Y18112688D01*
X3749388Y18112688D01*
X3741115Y18116115D01*
X3737692Y18124071D01*
X3721028Y18739138D01*
X3717324Y18875839D01*
X3720526Y18884200D01*
X3728703Y18887850D01*
X3728989Y18887854D01*
X4114648Y18888819D01*
X4119171Y18887919D01*
G37*
%TD.AperFunction*%
%TD*%
%TA.AperFunction,Conductor*%
%TO.N,Net-(LED2-K)*%
G36*
X3168995Y16897447D02*
G01*
X3554313Y16756806D01*
X3560908Y16750751D01*
X3562000Y16745816D01*
X3562000Y16254185D01*
X3558573Y16245912D01*
X3554312Y16243194D01*
X3169545Y16102754D01*
X3165533Y16102045D01*
X3164787Y16102045D01*
X3156524Y16105462D01*
X3007429Y16254185D01*
X2769303Y16491718D01*
X2765866Y16499986D01*
X2769281Y16508262D01*
X3156725Y16894739D01*
X3165002Y16898155D01*
X3168995Y16897447D01*
G37*
%TD.AperFunction*%
%TD*%
%TA.AperFunction,Conductor*%
%TO.N,/GPIO5\u005CLP_UART_TXD\u005CU1TXD*%
G36*
X18003618Y23717832D02*
G01*
X18734251Y23280036D01*
X18739586Y23272844D01*
X18738273Y23263986D01*
X18734251Y23259964D01*
X18003618Y22822169D01*
X17995831Y22820640D01*
X17559927Y22887478D01*
X17552269Y22892119D01*
X17550000Y22899043D01*
X17550000Y23640958D01*
X17553427Y23649231D01*
X17559924Y23652522D01*
X17995831Y23719361D01*
X18003618Y23717832D01*
G37*
%TD.AperFunction*%
%TD*%
%TA.AperFunction,Conductor*%
%TO.N,/GPIO3\u005CLP_I2C_SCL\u005CI2C_SCL*%
G36*
X9852097Y5799163D02*
G01*
X10097883Y5700847D01*
X10101642Y5698423D01*
X10307246Y5500964D01*
X10309000Y5498826D01*
X10498875Y5201760D01*
X10500446Y5197963D01*
X10761197Y4007664D01*
X10760523Y4000553D01*
X10010755Y2250110D01*
X10004347Y2243855D01*
X9995393Y2243962D01*
X9989245Y2250110D01*
X9239751Y3999912D01*
X9239406Y4008219D01*
X9270861Y4102584D01*
X9272319Y4105505D01*
X9333996Y4194859D01*
X9390013Y4342564D01*
X9409054Y4499382D01*
X9407788Y4509806D01*
X9408302Y4514908D01*
X9492000Y4766000D01*
X9598915Y5789516D01*
X9603183Y5797388D01*
X9610552Y5800000D01*
X9847752Y5800000D01*
X9852097Y5799163D01*
G37*
%TD.AperFunction*%
%TD*%
%TA.AperFunction,Conductor*%
%TO.N,+5V_USB*%
G36*
X14060944Y10338797D02*
G01*
X14062669Y10337381D01*
X14334496Y10066909D01*
X14337064Y10063067D01*
X14483445Y9707353D01*
X14483424Y9698399D01*
X14477077Y9692081D01*
X14475602Y9691586D01*
X13797615Y9513222D01*
X13788742Y9514431D01*
X13786365Y9516264D01*
X13618320Y9684309D01*
X13614893Y9692582D01*
X13616882Y9699107D01*
X14044709Y10335616D01*
X14052166Y10340568D01*
X14060944Y10338797D01*
G37*
%TD.AperFunction*%
%TD*%
%TA.AperFunction,Conductor*%
%TO.N,Net-(LED1-K)*%
G36*
X3168828Y13891310D02*
G01*
X3187172Y13875059D01*
X3257109Y13838353D01*
X3327046Y13801646D01*
X3403737Y13782744D01*
X3480427Y13763842D01*
X3480428Y13763842D01*
X3532966Y13763842D01*
X3536977Y13763133D01*
X3544501Y13760388D01*
X3554311Y13756807D01*
X3560908Y13750751D01*
X3562000Y13745816D01*
X3562000Y13254185D01*
X3558573Y13245912D01*
X3554312Y13243194D01*
X3168999Y13102555D01*
X3160052Y13102938D01*
X3156724Y13105263D01*
X2769303Y13491718D01*
X2765866Y13499986D01*
X2769281Y13508262D01*
X3152813Y13890837D01*
X3161086Y13894251D01*
X3168828Y13891310D01*
G37*
%TD.AperFunction*%
%TD*%
%TA.AperFunction,Conductor*%
%TO.N,/GPIO26\u005CUSER_LED2*%
G36*
X3999209Y15581392D02*
G01*
X4005753Y15575279D01*
X4006802Y15570437D01*
X4006802Y15332654D01*
X4003375Y15324381D01*
X3999209Y15321699D01*
X3370439Y15085954D01*
X3361490Y15086258D01*
X3355533Y15092407D01*
X3207677Y15447046D01*
X3207657Y15455995D01*
X3355534Y15810686D01*
X3361880Y15817002D01*
X3370437Y15817137D01*
X3999209Y15581392D01*
G37*
%TD.AperFunction*%
%TD*%
%TA.AperFunction,Conductor*%
%TO.N,/USB_D+*%
G36*
X12406480Y11374460D02*
G01*
X12689298Y11350892D01*
X12697258Y11346790D01*
X12700026Y11339261D01*
X12700987Y10954876D01*
X12697581Y10946595D01*
X12697546Y10946559D01*
X12426085Y10676055D01*
X12417805Y10672643D01*
X12409538Y10676084D01*
X12408947Y10676724D01*
X12032874Y11114966D01*
X12030087Y11123476D01*
X12034134Y11131464D01*
X12035260Y11132318D01*
X12281027Y11295841D01*
X12396305Y11372541D01*
X12402786Y11374500D01*
X12405508Y11374500D01*
X12406480Y11374460D01*
G37*
%TD.AperFunction*%
%TD*%
%TA.AperFunction,Conductor*%
%TO.N,/ESP_EN*%
G36*
X3968343Y19246303D02*
G01*
X3969310Y19244463D01*
X4116801Y18890703D01*
X4117702Y18886180D01*
X4117018Y18498402D01*
X4113577Y18490135D01*
X4106473Y18486780D01*
X3614295Y18437944D01*
X3605724Y18440537D01*
X3604867Y18441314D01*
X3259821Y18786360D01*
X3256394Y18794633D01*
X3259821Y18802906D01*
X3261743Y18804459D01*
X3952171Y19249794D01*
X3960979Y19251398D01*
X3968343Y19246303D01*
G37*
%TD.AperFunction*%
%TD*%
%TA.AperFunction,Conductor*%
%TO.N,/GPIO6\u005CSPI2_MISO*%
G36*
X2440074Y30002522D02*
G01*
X2447731Y29997882D01*
X2450000Y29990958D01*
X2450000Y29249043D01*
X2446573Y29240770D01*
X2440073Y29237478D01*
X2004168Y29170640D01*
X1996381Y29172169D01*
X1661469Y29372848D01*
X1265747Y29609966D01*
X1260413Y29617156D01*
X1261726Y29626014D01*
X1265746Y29630035D01*
X1996382Y30067833D01*
X2004167Y30069361D01*
X2440074Y30002522D01*
G37*
%TD.AperFunction*%
%TD*%
%TA.AperFunction,Conductor*%
%TO.N,/GPIO27\u005CUSER_LED1*%
G36*
X4351819Y14544189D02*
G01*
X4358363Y14538076D01*
X4359412Y14533234D01*
X4359412Y14295451D01*
X4355985Y14287178D01*
X4351819Y14284496D01*
X3723049Y14048751D01*
X3714100Y14049055D01*
X3708143Y14055204D01*
X3560287Y14409843D01*
X3560267Y14418792D01*
X3708144Y14773483D01*
X3714490Y14779799D01*
X3723047Y14779934D01*
X4351819Y14544189D01*
G37*
%TD.AperFunction*%
%TD*%
%TA.AperFunction,Conductor*%
%TO.N,+5V_USB*%
G36*
X14263281Y11937235D02*
G01*
X14380012Y11820917D01*
X14383453Y11812651D01*
X14380041Y11804371D01*
X14371782Y11800930D01*
X14045198Y11800113D01*
X14036917Y11803519D01*
X14033469Y11811784D01*
X14036875Y11820065D01*
X14039465Y11822028D01*
X14249324Y11939162D01*
X14258218Y11940201D01*
X14263281Y11937235D01*
G37*
%TD.AperFunction*%
%TA.AperFunction,Conductor*%
G36*
X14125447Y12074523D02*
G01*
X14126179Y12073853D01*
X14240115Y11960320D01*
X14243557Y11952053D01*
X14240145Y11943774D01*
X14231878Y11940332D01*
X14022533Y11940332D01*
X14014260Y11943759D01*
X14010833Y11952032D01*
X14013575Y11959558D01*
X14108963Y12073092D01*
X14116909Y12077221D01*
X14125447Y12074523D01*
G37*
%TD.AperFunction*%
%TD*%
%TA.AperFunction,Conductor*%
%TO.N,/GPIO26\u005CUSER_LED2*%
G36*
X5015855Y16492243D02*
G01*
X5016663Y16491436D01*
X5252665Y16230890D01*
X5255679Y16222457D01*
X5254491Y16217870D01*
X5138215Y15981535D01*
X5131488Y15975624D01*
X5127717Y15975000D01*
X4888283Y15975000D01*
X4880010Y15978427D01*
X4877785Y15981535D01*
X4761508Y16217870D01*
X4760930Y16226806D01*
X4763335Y16230890D01*
X4999329Y16491427D01*
X5007422Y16495258D01*
X5015855Y16492243D01*
G37*
%TD.AperFunction*%
%TD*%
%TA.AperFunction,Conductor*%
%TO.N,/GPIO12\u005CU0RXD*%
G36*
X18003618Y33877832D02*
G01*
X18734251Y33440036D01*
X18739586Y33432844D01*
X18738273Y33423986D01*
X18734251Y33419964D01*
X18003618Y32982169D01*
X17995831Y32980640D01*
X17559927Y33047478D01*
X17552269Y33052119D01*
X17550000Y33059043D01*
X17550000Y33800958D01*
X17553427Y33809231D01*
X17559924Y33812522D01*
X17995831Y33879361D01*
X18003618Y33877832D01*
G37*
%TD.AperFunction*%
%TD*%
%TA.AperFunction,Conductor*%
%TO.N,/GPIO7\u005CSPI2_MOSI*%
G36*
X2006242Y28795520D02*
G01*
X2445122Y28480501D01*
X2449845Y28472894D01*
X2450000Y28470997D01*
X2450000Y28229004D01*
X2446573Y28220731D01*
X2445122Y28219499D01*
X2006243Y27904482D01*
X1997524Y27902442D01*
X1993407Y27903951D01*
X1668872Y28098412D01*
X1265747Y28339966D01*
X1260413Y28347156D01*
X1261726Y28356014D01*
X1265746Y28360035D01*
X1993408Y28796051D01*
X2002265Y28797363D01*
X2006242Y28795520D01*
G37*
%TD.AperFunction*%
%TD*%
%TA.AperFunction,Conductor*%
%TO.N,/GPIO2\u005CLP_I2C_SDA\u005CI2C_SDA*%
G36*
X9694987Y6895602D02*
G01*
X9699844Y6888079D01*
X9700034Y6886007D01*
X9701000Y6500000D01*
X9701000Y6499942D01*
X9700034Y6113994D01*
X9696586Y6105729D01*
X9688305Y6102323D01*
X9686233Y6102513D01*
X8909599Y6244249D01*
X8902076Y6249106D01*
X8900000Y6255759D01*
X8900000Y6744242D01*
X8903427Y6752515D01*
X8909598Y6755752D01*
X9686234Y6897488D01*
X9694987Y6895602D01*
G37*
%TD.AperFunction*%
%TD*%
%TA.AperFunction,Conductor*%
%TO.N,/GPIO4\u005CLP_UART_RXD\u005CU1RXD*%
G36*
X14681616Y23749755D02*
G01*
X14849754Y23581617D01*
X14853181Y23573344D01*
X14852132Y23568502D01*
X14574221Y22957199D01*
X14567677Y22951086D01*
X14559118Y22951221D01*
X14203804Y23097437D01*
X14197457Y23103755D01*
X14197436Y23103805D01*
X14051220Y23459119D01*
X14051241Y23468073D01*
X14057196Y23474221D01*
X14668503Y23752134D01*
X14677450Y23752437D01*
X14681616Y23749755D01*
G37*
%TD.AperFunction*%
%TD*%
%TA.AperFunction,Conductor*%
%TO.N,+5V_USB*%
G36*
X4256325Y10577110D02*
G01*
X5205951Y9411227D01*
X5208579Y9403838D01*
X5208579Y8406031D01*
X5205152Y8397758D01*
X5196879Y8394331D01*
X5194777Y8394521D01*
X3529680Y8698588D01*
X3522157Y8703446D01*
X3520333Y8707692D01*
X3250732Y9991750D01*
X3252385Y10000549D01*
X3256276Y10004252D01*
X4241352Y10579824D01*
X4250222Y10581038D01*
X4256325Y10577110D01*
G37*
%TD.AperFunction*%
%TD*%
%TA.AperFunction,Conductor*%
%TO.N,+5V_USB*%
G36*
X14254154Y10791933D02*
G01*
X14254933Y10791073D01*
X14611603Y10355564D01*
X14614193Y10346992D01*
X14610839Y10339892D01*
X14338902Y10066993D01*
X14330635Y10063552D01*
X14330585Y10063552D01*
X13948163Y10064508D01*
X13939898Y10067956D01*
X13936492Y10076237D01*
X13936534Y10077196D01*
X13996514Y10784648D01*
X14000627Y10792602D01*
X14008172Y10795360D01*
X14245881Y10795360D01*
X14254154Y10791933D01*
G37*
%TD.AperFunction*%
%TD*%
%TA.AperFunction,Conductor*%
%TO.N,/GPIO4\u005CLP_UART_RXD\u005CU1RXD*%
G36*
X18003618Y24987832D02*
G01*
X18734251Y24550036D01*
X18739586Y24542844D01*
X18738273Y24533986D01*
X18734251Y24529964D01*
X18003618Y24092169D01*
X17995831Y24090640D01*
X17559927Y24157478D01*
X17552269Y24162119D01*
X17550000Y24169043D01*
X17550000Y24910958D01*
X17553427Y24919231D01*
X17559924Y24922522D01*
X17995831Y24989361D01*
X18003618Y24987832D01*
G37*
%TD.AperFunction*%
%TD*%
%TA.AperFunction,Conductor*%
%TO.N,/USB_DP*%
G36*
X2446174Y22506389D02*
G01*
X2449987Y22498287D01*
X2450000Y22497735D01*
X2450000Y22263395D01*
X2448182Y22257132D01*
X2006108Y21559638D01*
X1998785Y21554484D01*
X1990212Y21555865D01*
X1950896Y21579423D01*
X1253698Y21997185D01*
X1248364Y22004376D01*
X1248155Y22005401D01*
X1180650Y22437123D01*
X1182758Y22445824D01*
X1190403Y22450488D01*
X1191648Y22450615D01*
X2437748Y22509422D01*
X2446174Y22506389D01*
G37*
%TD.AperFunction*%
%TD*%
%TA.AperFunction,Conductor*%
%TO.N,GND*%
G36*
X567496Y8163161D02*
G01*
X584933Y8153094D01*
X596013Y8149777D01*
X616099Y8141797D01*
X626434Y8136606D01*
X688066Y8122000D01*
X695035Y8120132D01*
X725581Y8110987D01*
X755692Y8101972D01*
X767233Y8101300D01*
X788616Y8098169D01*
X796591Y8096279D01*
X857286Y8061667D01*
X889632Y7999736D01*
X892000Y7975620D01*
X892000Y7500000D01*
X1976000Y7500000D01*
X2043039Y7480315D01*
X2088794Y7427511D01*
X2100000Y7376000D01*
X2100000Y5773000D01*
X2080315Y5705961D01*
X2027511Y5660206D01*
X1996448Y5653449D01*
X1992000Y5649000D01*
X1992000Y4467000D01*
X2040580Y4467000D01*
X2040581Y4467001D01*
X2101097Y4473507D01*
X2237961Y4524554D01*
X2237961Y4524555D01*
X2354904Y4612098D01*
X2354906Y4612099D01*
X2363648Y4623777D01*
X2419580Y4665650D01*
X2489272Y4670636D01*
X2515715Y4661667D01*
X2560059Y4640800D01*
X2717779Y4610713D01*
X2878027Y4620795D01*
X3030733Y4670412D01*
X3140385Y4740000D01*
X3207535Y4759301D01*
X3274461Y4739234D01*
X3306093Y4709614D01*
X3379093Y4612099D01*
X3496038Y4524555D01*
X3496038Y4524554D01*
X3632902Y4473507D01*
X3693418Y4467001D01*
X3693420Y4467000D01*
X3742000Y4467000D01*
X3742000Y5497120D01*
X3761685Y5564159D01*
X3765684Y5570008D01*
X3768209Y5573486D01*
X3768217Y5573494D01*
X3778094Y5591463D01*
X3788779Y5607728D01*
X3801350Y5623933D01*
X3819019Y5664766D01*
X3824145Y5675230D01*
X3845569Y5714197D01*
X3850670Y5734070D01*
X3856969Y5752466D01*
X3865117Y5771292D01*
X3872072Y5815213D01*
X3874442Y5826653D01*
X3876950Y5836421D01*
X3885500Y5869718D01*
X3885500Y5890226D01*
X3887027Y5909626D01*
X3890235Y5929879D01*
X3889709Y5935440D01*
X3886050Y5974152D01*
X3885500Y5985821D01*
X3885500Y6087704D01*
X3887883Y6111896D01*
X3900500Y6175324D01*
X3900500Y6219242D01*
X3920185Y6286281D01*
X3972989Y6332036D01*
X4042147Y6341980D01*
X4105703Y6312955D01*
X4139794Y6264885D01*
X4140794Y6262359D01*
X4149500Y6216716D01*
X4149500Y6175322D01*
X4164032Y6102265D01*
X4164035Y6102257D01*
X4221102Y6016850D01*
X4241980Y5950173D01*
X4242000Y5947960D01*
X4242000Y4776630D01*
X4230794Y4725118D01*
X4222518Y4706998D01*
X4218683Y4698175D01*
X4218398Y4697486D01*
X4215087Y4689055D01*
X4212064Y4680949D01*
X4194502Y4649116D01*
X4190422Y4643765D01*
X4188816Y4641360D01*
X4172523Y4613308D01*
X4172507Y4613279D01*
X4107806Y4483875D01*
X4091417Y4442601D01*
X4091409Y4442578D01*
X4090271Y4438794D01*
X4090270Y4438789D01*
X4086466Y4420638D01*
X4081045Y4402102D01*
X4054093Y4331036D01*
X4040201Y4304567D01*
X3986549Y4226838D01*
X3982858Y4221770D01*
X3980523Y4218729D01*
X3980520Y4218725D01*
X3954230Y4176724D01*
X3928309Y4124879D01*
X3923668Y4115089D01*
X3923263Y4114188D01*
X3919112Y4104400D01*
X3900548Y4004872D01*
X3900547Y4004863D01*
X3900646Y3996667D01*
X3900650Y3995944D01*
X3900654Y3995908D01*
X3904819Y3976207D01*
X3907500Y3950559D01*
X3907500Y505500D01*
X3887815Y438461D01*
X3835011Y392706D01*
X3783500Y381500D01*
X2678790Y381500D01*
X2611751Y401185D01*
X2565996Y453989D01*
X2556052Y523147D01*
X2585077Y586703D01*
X2631337Y620061D01*
X2690600Y644609D01*
X2690599Y644609D01*
X2690605Y644611D01*
X2894132Y769332D01*
X3075643Y924357D01*
X3230668Y1105868D01*
X3355389Y1309395D01*
X3446737Y1529927D01*
X3502461Y1762034D01*
X3521189Y2000000D01*
X3502461Y2237966D01*
X3446737Y2470073D01*
X3355389Y2690605D01*
X3230668Y2894132D01*
X3075643Y3075643D01*
X2894132Y3230668D01*
X2690605Y3355389D01*
X2690604Y3355390D01*
X2690600Y3355392D01*
X2470068Y3446739D01*
X2237962Y3502462D01*
X2237963Y3502462D01*
X2000000Y3521189D01*
X1762036Y3502462D01*
X1529931Y3446739D01*
X1309399Y3355392D01*
X1105867Y3230668D01*
X924357Y3075643D01*
X769332Y2894133D01*
X644608Y2690601D01*
X620061Y2631337D01*
X576220Y2576934D01*
X509926Y2554869D01*
X442226Y2572148D01*
X394616Y2623285D01*
X381500Y2678790D01*
X381500Y5000000D01*
X984000Y5000000D01*
X984000Y4926419D01*
X990506Y4865903D01*
X1041553Y4729039D01*
X1129096Y4612097D01*
X1246038Y4524555D01*
X1246038Y4524554D01*
X1382902Y4473507D01*
X1443418Y4467001D01*
X1443420Y4467000D01*
X1492000Y4467000D01*
X1492000Y5000000D01*
X984000Y5000000D01*
X381500Y5000000D01*
X381500Y6800000D01*
X892000Y6800000D01*
X892000Y6151419D01*
X898506Y6090903D01*
X949553Y5954039D01*
X1015958Y5865334D01*
X1040375Y5799870D01*
X1032873Y5747690D01*
X990506Y5634100D01*
X984000Y5573582D01*
X984000Y5500000D01*
X1492000Y5500000D01*
X1492000Y5649000D01*
X1478697Y5662303D01*
X1456961Y5668685D01*
X1411206Y5721489D01*
X1400000Y5773000D01*
X1400000Y6800000D01*
X892000Y6800000D01*
X381500Y6800000D01*
X381500Y8055773D01*
X401185Y8122812D01*
X453989Y8168567D01*
X523147Y8178511D01*
X567496Y8163161D01*
G37*
%TD.AperFunction*%
%TA.AperFunction,Conductor*%
G36*
X2967135Y27886928D02*
G01*
X2993842Y27866636D01*
X4672573Y26187905D01*
X4706058Y26126582D01*
X4701074Y26056890D01*
X4661060Y26002375D01*
X4654438Y25997221D01*
X4618384Y25958057D01*
X4614837Y25954361D01*
X4154520Y25494045D01*
X4118158Y25468844D01*
X3549808Y25210459D01*
X3549792Y25210450D01*
X3541969Y25204936D01*
X3528162Y25196497D01*
X3425477Y25142604D01*
X3425468Y25142598D01*
X3306506Y25037206D01*
X3306500Y25037199D01*
X3216214Y24906398D01*
X3159850Y24757782D01*
X3140693Y24600001D01*
X3140693Y24600000D01*
X3159850Y24442219D01*
X3216214Y24293603D01*
X3273111Y24211174D01*
X3306502Y24162799D01*
X3306504Y24162797D01*
X3306506Y24162795D01*
X3425469Y24057402D01*
X3425471Y24057401D01*
X3566207Y23983537D01*
X3620451Y23970167D01*
X3720528Y23945500D01*
X3720529Y23945500D01*
X3879472Y23945500D01*
X3930911Y23958179D01*
X4033793Y23983537D01*
X4174529Y24057401D01*
X4293498Y24162799D01*
X4383787Y24293605D01*
X4392310Y24316078D01*
X4393351Y24318824D01*
X4408602Y24347225D01*
X4410456Y24349805D01*
X4410457Y24349808D01*
X4581273Y24725543D01*
X4668840Y24918160D01*
X4694034Y24954514D01*
X5013704Y25274184D01*
X5075026Y25307666D01*
X5101384Y25310500D01*
X6736153Y25310500D01*
X6803192Y25290815D01*
X6848947Y25238011D01*
X6858891Y25168853D01*
X6846963Y25130849D01*
X6786175Y25009812D01*
X6745500Y24838190D01*
X6745500Y24838188D01*
X6745500Y24206059D01*
X6760840Y24074816D01*
X6760841Y24074813D01*
X6821162Y23909079D01*
X6918085Y23761715D01*
X7046373Y23640681D01*
X7046375Y23640680D01*
X7046377Y23640678D01*
X7199124Y23552490D01*
X7368091Y23501905D01*
X7544169Y23491649D01*
X7717866Y23522277D01*
X7879818Y23592136D01*
X7879856Y23592165D01*
X7879883Y23592175D01*
X7886077Y23595750D01*
X7886687Y23594693D01*
X7945382Y23616413D01*
X8013616Y23601387D01*
X8062895Y23551855D01*
X8077042Y23507360D01*
X8110089Y23229655D01*
X8111127Y23224584D01*
X8110528Y23224462D01*
X8114500Y23196808D01*
X8114500Y22402049D01*
X8112758Y22386273D01*
X8113026Y22386247D01*
X8112292Y22378482D01*
X8114439Y22310157D01*
X8114500Y22306262D01*
X8114500Y22278218D01*
X8115022Y22274082D01*
X8115937Y22262451D01*
X8117334Y22217997D01*
X8117335Y22217993D01*
X8123057Y22198295D01*
X8127000Y22179254D01*
X8129571Y22158912D01*
X8129574Y22158897D01*
X8145941Y22117556D01*
X8149722Y22106513D01*
X8162130Y22063809D01*
X8162131Y22063807D01*
X8168860Y22052428D01*
X8172570Y22046156D01*
X8181128Y22028686D01*
X8188679Y22009615D01*
X8198603Y21995956D01*
X8214226Y21967043D01*
X8216213Y21961805D01*
X8306502Y21830999D01*
X8306504Y21830997D01*
X8306506Y21830995D01*
X8425469Y21725602D01*
X8425471Y21725601D01*
X8566207Y21651737D01*
X8643368Y21632719D01*
X8720528Y21613700D01*
X8720529Y21613700D01*
X8879472Y21613700D01*
X8930911Y21626379D01*
X9033793Y21651737D01*
X9174529Y21725601D01*
X9293498Y21830999D01*
X9383787Y21961805D01*
X9440149Y22110418D01*
X9459307Y22268200D01*
X9454686Y22306262D01*
X9440149Y22425983D01*
X9393558Y22548832D01*
X9385500Y22592803D01*
X9385500Y23196431D01*
X9389790Y23223450D01*
X9388602Y23223711D01*
X9389910Y23229654D01*
X9390029Y23230653D01*
X9392798Y23253931D01*
X9420265Y23318172D01*
X9452182Y23345638D01*
X9500000Y23374299D01*
X9500000Y24128332D01*
X9503344Y24156933D01*
X9503830Y24158987D01*
X9504500Y24161812D01*
X9504500Y24185252D01*
X9505369Y24199906D01*
X9506101Y24206059D01*
X9506711Y24211182D01*
X9507208Y24267995D01*
X9506695Y24273060D01*
X9506693Y24273070D01*
X9506168Y24276416D01*
X9506605Y24276485D01*
X9504500Y24296431D01*
X9504500Y24528160D01*
X9696105Y24528160D01*
X9706454Y24416479D01*
X9756448Y24316078D01*
X9839334Y24240516D01*
X9943920Y24200000D01*
X10027802Y24200000D01*
X10110250Y24215412D01*
X10205610Y24274457D01*
X10273201Y24363962D01*
X10303895Y24471840D01*
X10293546Y24583521D01*
X10243552Y24683922D01*
X10160666Y24759484D01*
X10056080Y24800000D01*
X9972198Y24800000D01*
X9889750Y24784588D01*
X9794390Y24725543D01*
X9726799Y24636038D01*
X9696105Y24528160D01*
X9504500Y24528160D01*
X9504500Y24793934D01*
X9504500Y24793935D01*
X9504500Y24793941D01*
X9500838Y24825274D01*
X9500000Y24839667D01*
X9500000Y24876000D01*
X9519685Y24943039D01*
X9572489Y24988794D01*
X9624000Y25000000D01*
X10376000Y25000000D01*
X10443039Y24980315D01*
X10488794Y24927511D01*
X10500000Y24876000D01*
X10500000Y24871670D01*
X10496659Y24843078D01*
X10495500Y24838188D01*
X10495500Y24206061D01*
X10499162Y24174727D01*
X10500000Y24160334D01*
X10500000Y23374299D01*
X10562721Y23407823D01*
X10562723Y23407825D01*
X10716211Y23533787D01*
X10734760Y23556390D01*
X10792504Y23595726D01*
X10862349Y23597599D01*
X10892613Y23585117D01*
X10949124Y23552490D01*
X11118091Y23501905D01*
X11294169Y23491649D01*
X11467866Y23522277D01*
X11629818Y23592136D01*
X11629856Y23592165D01*
X11629883Y23592175D01*
X11636077Y23595750D01*
X11636687Y23594693D01*
X11695382Y23616413D01*
X11763616Y23601387D01*
X11812895Y23551855D01*
X11827042Y23507360D01*
X11860089Y23229655D01*
X11861127Y23224584D01*
X11860528Y23224462D01*
X11864500Y23196808D01*
X11864500Y22960008D01*
X11872419Y22897330D01*
X11879573Y22840701D01*
X11938681Y22691412D01*
X12033058Y22561513D01*
X12073540Y22528024D01*
X12112648Y22470124D01*
X12118500Y22432480D01*
X12118500Y22052428D01*
X12115861Y22026982D01*
X12113555Y22015983D01*
X12116051Y21995956D01*
X12117548Y21983952D01*
X12118500Y21968613D01*
X12118500Y21968389D01*
X12121979Y21947539D01*
X12122716Y21942475D01*
X12129302Y21889644D01*
X12131580Y21881991D01*
X12134183Y21874410D01*
X12159510Y21827611D01*
X12161843Y21823079D01*
X12184478Y21776779D01*
X12185224Y21775254D01*
X12189880Y21768733D01*
X12194778Y21762440D01*
X12233942Y21726387D01*
X12237640Y21722838D01*
X12693165Y21267312D01*
X12709293Y21247452D01*
X12715437Y21238047D01*
X12715439Y21238046D01*
X12715440Y21238044D01*
X12740918Y21218215D01*
X12752429Y21208048D01*
X12752593Y21207884D01*
X12769802Y21195598D01*
X12773905Y21192540D01*
X12815915Y21159842D01*
X12815922Y21159840D01*
X12822952Y21156035D01*
X12830127Y21152527D01*
X12830130Y21152525D01*
X12881158Y21137334D01*
X12885997Y21135783D01*
X12936339Y21118500D01*
X12936342Y21118500D01*
X12944219Y21117185D01*
X12952158Y21116196D01*
X12952159Y21116195D01*
X12952159Y21116196D01*
X12952160Y21116195D01*
X13005322Y21118394D01*
X13010447Y21118500D01*
X14547573Y21118500D01*
X14573018Y21115861D01*
X14576961Y21115035D01*
X14584017Y21113555D01*
X14616050Y21117548D01*
X14631388Y21118500D01*
X14631608Y21118500D01*
X14631611Y21118500D01*
X14631614Y21118501D01*
X14631619Y21118501D01*
X14638173Y21119596D01*
X14652487Y21121985D01*
X14657510Y21122717D01*
X14710360Y21129304D01*
X14710361Y21129305D01*
X14718013Y21131584D01*
X14725582Y21134182D01*
X14725586Y21134182D01*
X14772398Y21159517D01*
X14776950Y21161859D01*
X14824746Y21185224D01*
X14824747Y21185225D01*
X14831254Y21189872D01*
X14837555Y21194777D01*
X14837562Y21194780D01*
X14873615Y21233946D01*
X14877115Y21237595D01*
X15221705Y21582183D01*
X15283027Y21615666D01*
X15309385Y21618500D01*
X15428809Y21618500D01*
X15495848Y21598815D01*
X15513693Y21584892D01*
X15623490Y21481786D01*
X15623498Y21481780D01*
X15764193Y21404433D01*
X15764197Y21404431D01*
X15919718Y21364500D01*
X17491214Y21364500D01*
X17514526Y21361568D01*
X17514577Y21361900D01*
X17520592Y21360978D01*
X17520597Y21360976D01*
X17956501Y21294138D01*
X18020480Y21295475D01*
X18023069Y21295501D01*
X19494500Y21295501D01*
X19561539Y21275816D01*
X19607294Y21223012D01*
X19618500Y21171501D01*
X19618500Y2678790D01*
X19598815Y2611751D01*
X19546011Y2565996D01*
X19476853Y2556052D01*
X19413297Y2585077D01*
X19379939Y2631337D01*
X19355391Y2690601D01*
X19318437Y2750904D01*
X19230668Y2894132D01*
X19075643Y3075643D01*
X18894132Y3230668D01*
X18690605Y3355389D01*
X18690604Y3355390D01*
X18690600Y3355392D01*
X18470068Y3446739D01*
X18237962Y3502462D01*
X18237963Y3502462D01*
X18000000Y3521189D01*
X17762036Y3502462D01*
X17529931Y3446739D01*
X17309399Y3355392D01*
X17105867Y3230668D01*
X16924357Y3075643D01*
X16769332Y2894133D01*
X16644608Y2690601D01*
X16553261Y2470069D01*
X16497538Y2237964D01*
X16478811Y2000000D01*
X16497538Y1762037D01*
X16553261Y1529932D01*
X16644608Y1309400D01*
X16644610Y1309396D01*
X16644611Y1309395D01*
X16769332Y1105868D01*
X16924357Y924357D01*
X17105868Y769332D01*
X17309395Y644611D01*
X17309397Y644611D01*
X17309399Y644609D01*
X17368663Y620061D01*
X17423066Y576220D01*
X17445131Y509926D01*
X17427852Y442226D01*
X17376715Y394616D01*
X17321210Y381500D01*
X16216500Y381500D01*
X16149461Y401185D01*
X16103706Y453989D01*
X16092500Y505500D01*
X16092500Y4028677D01*
X16092499Y4028679D01*
X16077967Y4101736D01*
X16077966Y4101737D01*
X16077966Y4101740D01*
X16022601Y4184601D01*
X16021971Y4185022D01*
X16020911Y4186290D01*
X16013967Y4193234D01*
X16014588Y4193856D01*
X15977167Y4238633D01*
X15974391Y4245575D01*
X15970095Y4257334D01*
X15893502Y4467000D01*
X15770028Y4804996D01*
X15762500Y4847544D01*
X15762500Y5244405D01*
X15762500Y5244412D01*
X15746998Y5377042D01*
X15686034Y5544539D01*
X15658098Y5587014D01*
X15620400Y5644331D01*
X15600007Y5711158D01*
X15600000Y5712470D01*
X15600000Y6022400D01*
X16700000Y6022400D01*
X16700000Y5514400D01*
X17198580Y5514400D01*
X17198581Y5514401D01*
X17259097Y5520907D01*
X17395961Y5571954D01*
X17395961Y5571955D01*
X17512903Y5659497D01*
X17600445Y5776439D01*
X17600446Y5776439D01*
X17651493Y5913303D01*
X17657999Y5973819D01*
X17658000Y5973820D01*
X17658000Y6022400D01*
X16700000Y6022400D01*
X15600000Y6022400D01*
X14642000Y6022400D01*
X14642000Y5973807D01*
X14643361Y5961149D01*
X14630953Y5892390D01*
X14594119Y5848436D01*
X14473182Y5758403D01*
X14473178Y5758399D01*
X14358604Y5621854D01*
X14278606Y5462568D01*
X14270421Y5428032D01*
X14239407Y5297167D01*
X14237500Y5289121D01*
X14237500Y4831129D01*
X14234388Y4803525D01*
X14065859Y4065484D01*
X14065859Y4065480D01*
X14060620Y3987714D01*
X14060396Y3984394D01*
X14061045Y3977198D01*
X14061047Y3977187D01*
X14063726Y3966578D01*
X14067500Y3936220D01*
X14067500Y505500D01*
X14047815Y438461D01*
X13995011Y392706D01*
X13943500Y381500D01*
X13676500Y381500D01*
X13609461Y401185D01*
X13563706Y453989D01*
X13552500Y505500D01*
X13552500Y3938144D01*
X13556089Y3967762D01*
X13559155Y3980226D01*
X13559738Y3987720D01*
X13552498Y4071871D01*
X13539003Y4124879D01*
X13366333Y4803101D01*
X13362500Y4833694D01*
X13362500Y5244405D01*
X13362500Y5244412D01*
X13346998Y5377042D01*
X13316087Y5461970D01*
X13311656Y5531699D01*
X13345626Y5592754D01*
X13358298Y5603647D01*
X13432903Y5659497D01*
X13520445Y5776439D01*
X13520446Y5776439D01*
X13571493Y5913303D01*
X13577999Y5973819D01*
X13578000Y5973820D01*
X13578000Y6022400D01*
X11494000Y6022400D01*
X11426961Y6042085D01*
X11381206Y6094889D01*
X11370000Y6146400D01*
X11370000Y6580000D01*
X10455239Y6580000D01*
X10388200Y6599685D01*
X10342445Y6652489D01*
X10339297Y6660028D01*
X10283787Y6806395D01*
X10193498Y6937201D01*
X10193495Y6937204D01*
X10193493Y6937206D01*
X10074530Y7042599D01*
X9933791Y7116464D01*
X9779472Y7154500D01*
X9779471Y7154500D01*
X9620529Y7154500D01*
X9620528Y7154500D01*
X9542668Y7135310D01*
X9535256Y7133722D01*
X8860151Y7010515D01*
X8837889Y7008500D01*
X8426694Y7008500D01*
X8359655Y7028185D01*
X8313900Y7080989D01*
X8303956Y7150147D01*
X8317589Y7180000D01*
X11115014Y7180000D01*
X11134835Y7054852D01*
X11192359Y6941955D01*
X11281955Y6852359D01*
X11394852Y6794835D01*
X11488519Y6780000D01*
X12451481Y6780000D01*
X12545148Y6794835D01*
X12658045Y6852359D01*
X12747641Y6941955D01*
X12805165Y7054852D01*
X12824986Y7180000D01*
X15445014Y7180000D01*
X15464835Y7054852D01*
X15522359Y6941955D01*
X15611955Y6852359D01*
X15724852Y6794835D01*
X15818519Y6780000D01*
X16481481Y6780000D01*
X16575148Y6794835D01*
X16688045Y6852359D01*
X16777641Y6941955D01*
X16835165Y7054852D01*
X16854986Y7180000D01*
X16835165Y7305148D01*
X16777641Y7418045D01*
X16688045Y7507641D01*
X16575148Y7565165D01*
X16481481Y7580000D01*
X15818519Y7580000D01*
X15724852Y7565165D01*
X15611955Y7507641D01*
X15522359Y7418045D01*
X15464835Y7305148D01*
X15445014Y7180000D01*
X12824986Y7180000D01*
X12805165Y7305148D01*
X12747641Y7418045D01*
X12658045Y7507641D01*
X12545148Y7565165D01*
X12451481Y7580000D01*
X11488519Y7580000D01*
X11394852Y7565165D01*
X11281955Y7507641D01*
X11192359Y7418045D01*
X11134835Y7305148D01*
X11115014Y7180000D01*
X8317589Y7180000D01*
X8332981Y7213703D01*
X8357800Y7235600D01*
X8441484Y7291516D01*
X8497734Y7375699D01*
X8512500Y7449933D01*
X8512499Y7531893D01*
X8530170Y7595690D01*
X8566356Y7656000D01*
X8732004Y7932079D01*
X8750645Y7955953D01*
X8868425Y8073733D01*
X8888279Y8089855D01*
X8897582Y8095932D01*
X8917273Y8121233D01*
X8927449Y8132756D01*
X8927580Y8132886D01*
X8939822Y8150034D01*
X8942852Y8154099D01*
X8975375Y8195881D01*
X8975375Y8195884D01*
X8979168Y8202891D01*
X8982652Y8210019D01*
X8982651Y8210019D01*
X8982653Y8210020D01*
X8997746Y8260724D01*
X8999310Y8265603D01*
X9016500Y8315673D01*
X9017801Y8323468D01*
X9018791Y8331412D01*
X9016606Y8384248D01*
X9016500Y8389372D01*
X9016500Y9428444D01*
X9036185Y9495483D01*
X9052819Y9516125D01*
X9370875Y9834181D01*
X9432198Y9867666D01*
X9458556Y9870500D01*
X10114500Y9870500D01*
X10181539Y9850815D01*
X10227294Y9798011D01*
X10238500Y9746501D01*
X10238500Y9599936D01*
X10253566Y9524190D01*
X10253566Y9475811D01*
X10238500Y9400066D01*
X10238500Y9081125D01*
X10218815Y9014086D01*
X10188812Y8981859D01*
X10130096Y8937905D01*
X10042554Y8820962D01*
X10042553Y8820962D01*
X9991506Y8684098D01*
X9985000Y8623582D01*
X9985000Y8575000D01*
X10433098Y8575000D01*
X10457287Y8572618D01*
X10467933Y8570500D01*
X11094001Y8570501D01*
X11161039Y8550817D01*
X11206794Y8498013D01*
X11218000Y8446501D01*
X11218000Y8149000D01*
X11198315Y8081961D01*
X11145511Y8036206D01*
X11094000Y8025000D01*
X9985000Y8025000D01*
X9985000Y7976419D01*
X9991506Y7915903D01*
X10042553Y7779039D01*
X10130096Y7662097D01*
X10247038Y7574555D01*
X10247040Y7574553D01*
X10319000Y7547714D01*
X10319000Y7656000D01*
X10338685Y7723039D01*
X10391489Y7768794D01*
X10443000Y7780000D01*
X13402959Y7780000D01*
X13402958Y7780001D01*
X13378035Y7815001D01*
X14831169Y7815001D01*
X14831170Y7815000D01*
X15515000Y7815000D01*
X15515000Y8302872D01*
X16785000Y8302872D01*
X16785000Y7815000D01*
X17468830Y7815000D01*
X17468830Y7815001D01*
X17428064Y7880840D01*
X17428062Y7880842D01*
X17283482Y8039440D01*
X17283479Y8039442D01*
X17112223Y8168768D01*
X16920111Y8264429D01*
X16920105Y8264432D01*
X16785000Y8302872D01*
X15515000Y8302872D01*
X15514999Y8302872D01*
X15379894Y8264432D01*
X15379888Y8264429D01*
X15187776Y8168768D01*
X15016520Y8039442D01*
X15016517Y8039440D01*
X14871937Y7880842D01*
X14871935Y7880840D01*
X14831169Y7815001D01*
X13378035Y7815001D01*
X13311180Y7908886D01*
X13311177Y7908889D01*
X13158037Y8054907D01*
X13158036Y8054908D01*
X13036101Y8133271D01*
X12990346Y8186075D01*
X12980402Y8255234D01*
X12995759Y8299598D01*
X12998719Y8304728D01*
X12998728Y8304738D01*
X13059720Y8451985D01*
X13080313Y8608411D01*
X13108579Y8672306D01*
X13166904Y8710777D01*
X13236768Y8711609D01*
X13258904Y8703034D01*
X13260873Y8702045D01*
X13434316Y8660939D01*
X13758857Y8660939D01*
X13776827Y8659630D01*
X13779519Y8659236D01*
X13801111Y8656073D01*
X13851335Y8660468D01*
X13862142Y8660939D01*
X13867845Y8660939D01*
X13867851Y8660939D01*
X13899198Y8664604D01*
X13902719Y8664963D01*
X13978679Y8671608D01*
X13978687Y8671611D01*
X13985748Y8673068D01*
X13985756Y8673025D01*
X13993455Y8674732D01*
X13993446Y8674773D01*
X14000472Y8676439D01*
X14000475Y8676441D01*
X14000481Y8676441D01*
X14072196Y8702544D01*
X14075451Y8703675D01*
X14147879Y8727674D01*
X14147885Y8727678D01*
X14154427Y8730728D01*
X14154445Y8730689D01*
X14161541Y8734124D01*
X14161522Y8734163D01*
X14167974Y8737404D01*
X14167978Y8737405D01*
X14231714Y8779326D01*
X14234645Y8781194D01*
X14299588Y8821251D01*
X14299592Y8821256D01*
X14305252Y8825730D01*
X14305279Y8825696D01*
X14311393Y8830676D01*
X14311366Y8830709D01*
X14316896Y8835351D01*
X14316901Y8835354D01*
X14369240Y8890832D01*
X14371686Y8893351D01*
X14620573Y9142235D01*
X14620575Y9142239D01*
X14828965Y9350629D01*
X14842594Y9362406D01*
X14862283Y9377063D01*
X14894690Y9415687D01*
X14902002Y9423665D01*
X14906034Y9427696D01*
X14925631Y9452482D01*
X14927794Y9455139D01*
X14976857Y9513608D01*
X14976861Y9513617D01*
X14980825Y9519642D01*
X14980861Y9519618D01*
X14985096Y9526265D01*
X14985060Y9526287D01*
X14988850Y9532435D01*
X14988856Y9532441D01*
X15021080Y9601550D01*
X15022639Y9604768D01*
X15056855Y9672895D01*
X15056858Y9672908D01*
X15059325Y9679684D01*
X15059366Y9679669D01*
X15061954Y9687114D01*
X15061913Y9687127D01*
X15064185Y9693985D01*
X15075028Y9746501D01*
X15079606Y9768674D01*
X15080368Y9772114D01*
X15082734Y9782094D01*
X15092580Y9809141D01*
X15113510Y9850815D01*
X15121394Y9866512D01*
X15121396Y9866525D01*
X15123864Y9873301D01*
X15123905Y9873286D01*
X15126494Y9880734D01*
X15126453Y9880747D01*
X15128724Y9887600D01*
X15137193Y9928619D01*
X15144145Y9962293D01*
X15144914Y9965758D01*
X15162500Y10039955D01*
X15162500Y10039959D01*
X15163339Y10047129D01*
X15163380Y10047125D01*
X15164181Y10054971D01*
X15164140Y10054974D01*
X15164769Y10062165D01*
X15162552Y10138367D01*
X15162500Y10141973D01*
X15162500Y12635413D01*
X15163809Y12653384D01*
X15164779Y12660006D01*
X15167367Y12677672D01*
X15162971Y12727906D01*
X15162500Y12738714D01*
X15162500Y12744405D01*
X15162500Y12744412D01*
X15158836Y12775760D01*
X15158474Y12779310D01*
X15151831Y12855239D01*
X15150371Y12862312D01*
X15150412Y12862321D01*
X15148705Y12870024D01*
X15148663Y12870014D01*
X15146999Y12877032D01*
X15146998Y12877042D01*
X15120915Y12948705D01*
X15119739Y12952089D01*
X15117472Y12958930D01*
X15095765Y13024440D01*
X15095761Y13024446D01*
X15092711Y13030988D01*
X15092750Y13031007D01*
X15089315Y13038102D01*
X15089277Y13038082D01*
X15086035Y13044537D01*
X15086034Y13044539D01*
X15044130Y13108250D01*
X15042214Y13111259D01*
X15002190Y13176147D01*
X14997710Y13181813D01*
X14997742Y13181840D01*
X14992760Y13187955D01*
X14992729Y13187928D01*
X14988086Y13193461D01*
X14932623Y13245788D01*
X14930036Y13248301D01*
X14024638Y14153700D01*
X14012855Y14167335D01*
X13998203Y14187016D01*
X13998197Y14187023D01*
X13959571Y14219434D01*
X13951596Y14226742D01*
X13947561Y14230777D01*
X13922829Y14250333D01*
X13920036Y14252608D01*
X13861654Y14301596D01*
X13855620Y14305564D01*
X13855643Y14305600D01*
X13848993Y14309837D01*
X13848972Y14309801D01*
X13842818Y14313596D01*
X13773716Y14345819D01*
X13770501Y14347375D01*
X13702366Y14381594D01*
X13702365Y14381595D01*
X13702362Y14381596D01*
X13695581Y14384064D01*
X13695594Y14384103D01*
X13688140Y14386694D01*
X13688127Y14386654D01*
X13681271Y14388926D01*
X13606641Y14404336D01*
X13603122Y14405116D01*
X13528920Y14422701D01*
X13521748Y14423539D01*
X13521752Y14423581D01*
X13513906Y14424382D01*
X13513903Y14424340D01*
X13506713Y14424970D01*
X13430511Y14422752D01*
X13426905Y14422700D01*
X13269525Y14422700D01*
X13258168Y14421373D01*
X13200527Y14414636D01*
X13131656Y14426406D01*
X13080081Y14473542D01*
X13063196Y14521608D01*
X13059720Y14548015D01*
X12998728Y14695261D01*
X12998727Y14695262D01*
X12996686Y14698798D01*
X12995869Y14702163D01*
X12995618Y14702770D01*
X12995712Y14702810D01*
X12980210Y14766698D01*
X13003059Y14832726D01*
X13047252Y14871020D01*
X13071753Y14883651D01*
X13238088Y15014458D01*
X13376658Y15174376D01*
X13382792Y15185000D01*
X14831170Y15185000D01*
X14871935Y15119161D01*
X14871937Y15119159D01*
X15016517Y14960561D01*
X15016520Y14960559D01*
X15187776Y14831233D01*
X15379888Y14735572D01*
X15379887Y14735572D01*
X15514999Y14697131D01*
X15515000Y14697131D01*
X15515000Y15185000D01*
X16785000Y15185000D01*
X16785000Y14697131D01*
X16920112Y14735572D01*
X17112223Y14831233D01*
X17283479Y14960559D01*
X17283482Y14960561D01*
X17428062Y15119159D01*
X17428064Y15119161D01*
X17468830Y15185000D01*
X16785000Y15185000D01*
X15515000Y15185000D01*
X14831170Y15185000D01*
X13382792Y15185000D01*
X13402999Y15220000D01*
X10443000Y15220000D01*
X10375961Y15239685D01*
X10330206Y15292489D01*
X10319000Y15344000D01*
X10319000Y15452287D01*
X10247036Y15425446D01*
X10130096Y15337904D01*
X10042554Y15220962D01*
X10042553Y15220962D01*
X9991506Y15084098D01*
X9985000Y15023582D01*
X9985000Y14975000D01*
X11094000Y14975000D01*
X11161039Y14955315D01*
X11206794Y14902511D01*
X11218000Y14851000D01*
X11218000Y14553500D01*
X11198315Y14486461D01*
X11145511Y14440706D01*
X11094000Y14429500D01*
X10467934Y14429500D01*
X10458729Y14427669D01*
X10457289Y14427382D01*
X10433102Y14425000D01*
X9985000Y14425000D01*
X9985000Y14376419D01*
X9991506Y14315903D01*
X10042553Y14179039D01*
X10130095Y14062098D01*
X10188810Y14018145D01*
X10230681Y13962211D01*
X10238500Y13918878D01*
X10238500Y13790342D01*
X10238501Y13753501D01*
X10218817Y13686461D01*
X10166013Y13640706D01*
X10114501Y13629500D01*
X9258556Y13629500D01*
X9191517Y13649185D01*
X9170875Y13665819D01*
X9052819Y13783875D01*
X9019334Y13845198D01*
X9016500Y13871556D01*
X9016500Y15818785D01*
X9016626Y15820000D01*
X11115014Y15820000D01*
X11134835Y15694852D01*
X11192359Y15581955D01*
X11281955Y15492359D01*
X11394852Y15434835D01*
X11488519Y15420000D01*
X12451481Y15420000D01*
X12545148Y15434835D01*
X12658045Y15492359D01*
X12747641Y15581955D01*
X12805165Y15694852D01*
X12824986Y15820000D01*
X15445014Y15820000D01*
X15464835Y15694852D01*
X15522359Y15581955D01*
X15611955Y15492359D01*
X15724852Y15434835D01*
X15818519Y15420000D01*
X16481481Y15420000D01*
X16575148Y15434835D01*
X16688045Y15492359D01*
X16777641Y15581955D01*
X16835165Y15694852D01*
X16854986Y15820000D01*
X16835165Y15945148D01*
X16777641Y16058045D01*
X16688045Y16147641D01*
X16575148Y16205165D01*
X16481481Y16220000D01*
X15818519Y16220000D01*
X15724852Y16205165D01*
X15611955Y16147641D01*
X15522359Y16058045D01*
X15464835Y15945148D01*
X15445014Y15820000D01*
X12824986Y15820000D01*
X12805165Y15945148D01*
X12747641Y16058045D01*
X12658045Y16147641D01*
X12545148Y16205165D01*
X12451481Y16220000D01*
X11488519Y16220000D01*
X11394852Y16205165D01*
X11281955Y16147641D01*
X11192359Y16058045D01*
X11134835Y15945148D01*
X11115014Y15820000D01*
X9016626Y15820000D01*
X9019139Y15844230D01*
X9019600Y15846434D01*
X9021418Y15855100D01*
X9017452Y15886919D01*
X9016500Y15902256D01*
X9016500Y15902441D01*
X9016499Y15902451D01*
X9013037Y15923189D01*
X9012299Y15928247D01*
X9005752Y15980783D01*
X9005750Y15980786D01*
X9003486Y15988396D01*
X9000901Y15995925D01*
X8998317Y16000699D01*
X8996160Y16004685D01*
X8975720Y16042456D01*
X8973375Y16047013D01*
X8950127Y16094568D01*
X8945541Y16100991D01*
X8940620Y16107314D01*
X8940619Y16107316D01*
X8901676Y16143166D01*
X8898002Y16146692D01*
X8750649Y16294045D01*
X8732001Y16317929D01*
X8530170Y16654315D01*
X8512499Y16718112D01*
X8512499Y16800064D01*
X8512499Y16800066D01*
X8497734Y16874301D01*
X8463813Y16925067D01*
X8441484Y16958485D01*
X8412876Y16977600D01*
X10362000Y16977600D01*
X11420000Y16977600D01*
X11420000Y17485600D01*
X10821418Y17485600D01*
X10760902Y17479094D01*
X10624038Y17428047D01*
X10624038Y17428046D01*
X10507096Y17340504D01*
X10419554Y17223562D01*
X10419553Y17223562D01*
X10368506Y17086698D01*
X10362000Y17026182D01*
X10362000Y16977600D01*
X8412876Y16977600D01*
X8377584Y17001181D01*
X8357301Y17014734D01*
X8357299Y17014735D01*
X8357296Y17014736D01*
X8283071Y17029500D01*
X7748124Y17029500D01*
X7681085Y17049185D01*
X7648857Y17079189D01*
X7604903Y17137904D01*
X7487961Y17225446D01*
X7487961Y17225447D01*
X7351097Y17276494D01*
X7290581Y17283000D01*
X7242000Y17283000D01*
X7242000Y13874000D01*
X7222315Y13806961D01*
X7169511Y13761206D01*
X7118000Y13750000D01*
X6866000Y13750000D01*
X6798961Y13769685D01*
X6753206Y13822489D01*
X6742000Y13874000D01*
X6742000Y17283000D01*
X6693411Y17283000D01*
X6666752Y17280134D01*
X6597993Y17292541D01*
X6546857Y17340153D01*
X6529500Y17403424D01*
X6529500Y19521078D01*
X7419678Y19521078D01*
X7435213Y19343517D01*
X7435214Y19343514D01*
X7491280Y19174313D01*
X7584855Y19022608D01*
X7584856Y19022607D01*
X7584857Y19022606D01*
X7639966Y18967497D01*
X7651741Y18953871D01*
X7666402Y18934178D01*
X7705039Y18901758D01*
X7713002Y18894460D01*
X7717036Y18890426D01*
X7741764Y18870873D01*
X7744558Y18868597D01*
X7755884Y18859094D01*
X7802947Y18819604D01*
X7802953Y18819601D01*
X7808978Y18815638D01*
X7808954Y18815603D01*
X7815611Y18811362D01*
X7815633Y18811397D01*
X7821783Y18807604D01*
X7890876Y18775385D01*
X7894116Y18773816D01*
X7962234Y18739606D01*
X7962238Y18739605D01*
X7969022Y18737136D01*
X7969007Y18737096D01*
X7976456Y18734507D01*
X7976470Y18734547D01*
X7983320Y18732277D01*
X7983324Y18732276D01*
X7983327Y18732275D01*
X8057996Y18716859D01*
X8061511Y18716078D01*
X8075481Y18712767D01*
X8135677Y18698500D01*
X8135678Y18698500D01*
X8142851Y18697661D01*
X8142846Y18697621D01*
X8150694Y18696819D01*
X8150698Y18696860D01*
X8157888Y18696231D01*
X8157891Y18696232D01*
X8157892Y18696231D01*
X8234104Y18698449D01*
X8237710Y18698500D01*
X11471800Y18698500D01*
X11538839Y18678815D01*
X11559481Y18662181D01*
X11915159Y18306503D01*
X11926939Y18292872D01*
X11941600Y18273180D01*
X11941602Y18273177D01*
X11980226Y18240769D01*
X11988203Y18233459D01*
X12540350Y17681312D01*
X12573835Y17619989D01*
X12568851Y17550297D01*
X12540350Y17505950D01*
X12520000Y17485600D01*
X12520000Y16977600D01*
X13578000Y16977600D01*
X13601581Y17001181D01*
X13662904Y17034666D01*
X13689262Y17037500D01*
X14374209Y17037500D01*
X14381418Y17037291D01*
X14444637Y17033608D01*
X14501233Y17043588D01*
X14570672Y17035844D01*
X14610447Y17009153D01*
X14642000Y16977600D01*
X15600000Y16977600D01*
X15600000Y17485600D01*
X16700000Y17485600D01*
X16700000Y16977600D01*
X17658000Y16977600D01*
X17658000Y17026180D01*
X17657999Y17026182D01*
X17651493Y17086698D01*
X17600446Y17223562D01*
X17512903Y17340504D01*
X17395961Y17428046D01*
X17395961Y17428047D01*
X17259097Y17479094D01*
X17198581Y17485600D01*
X16700000Y17485600D01*
X15600000Y17485600D01*
X15268373Y17485600D01*
X15201334Y17505285D01*
X15155579Y17558089D01*
X15145635Y17627247D01*
X15149583Y17645167D01*
X15156028Y17666692D01*
X15156700Y17678239D01*
X15159834Y17699629D01*
X15159906Y17699933D01*
X15162500Y17710877D01*
X15162500Y17774210D01*
X15162710Y17781420D01*
X15164126Y17805733D01*
X15166392Y17844637D01*
X15164384Y17856027D01*
X15162500Y17877558D01*
X15162500Y18735419D01*
X15163809Y18753392D01*
X15167366Y18777673D01*
X15165225Y18802129D01*
X15164964Y18820133D01*
X15166392Y18844637D01*
X15157631Y18894315D01*
X15156223Y18905018D01*
X15151830Y18955241D01*
X15151827Y18955248D01*
X15150370Y18962310D01*
X15150412Y18962319D01*
X15148705Y18970021D01*
X15148664Y18970011D01*
X15146997Y18977045D01*
X15143044Y18987904D01*
X15137447Y19008793D01*
X15135440Y19020175D01*
X15135440Y19020176D01*
X15115467Y19066478D01*
X15111626Y19076570D01*
X15095764Y19124441D01*
X15092713Y19130983D01*
X15092751Y19131002D01*
X15089315Y19138099D01*
X15089278Y19138080D01*
X15086036Y19144534D01*
X15086035Y19144535D01*
X15086034Y19144539D01*
X15079675Y19154207D01*
X15069419Y19173229D01*
X15064840Y19183844D01*
X15064838Y19183848D01*
X15034733Y19224287D01*
X15028659Y19233235D01*
X15002188Y19276150D01*
X14997710Y19281813D01*
X14997742Y19281840D01*
X14992757Y19287960D01*
X14992725Y19287932D01*
X14988084Y19293464D01*
X14979677Y19301394D01*
X14965307Y19317541D01*
X14958398Y19326822D01*
X14919771Y19359234D01*
X14911796Y19366542D01*
X14284838Y19993500D01*
X14273055Y20007135D01*
X14258403Y20026816D01*
X14258397Y20026823D01*
X14219771Y20059234D01*
X14211796Y20066542D01*
X14207761Y20070577D01*
X14183029Y20090133D01*
X14180236Y20092408D01*
X14121854Y20141396D01*
X14115820Y20145364D01*
X14115843Y20145400D01*
X14109193Y20149637D01*
X14109172Y20149601D01*
X14103018Y20153396D01*
X14033916Y20185619D01*
X14030701Y20187175D01*
X13962566Y20221394D01*
X13962565Y20221395D01*
X13962562Y20221396D01*
X13955781Y20223864D01*
X13955794Y20223903D01*
X13948340Y20226494D01*
X13948327Y20226454D01*
X13941471Y20228726D01*
X13866841Y20244136D01*
X13863322Y20244916D01*
X13789120Y20262501D01*
X13781948Y20263339D01*
X13781952Y20263381D01*
X13774106Y20264182D01*
X13774103Y20264140D01*
X13766913Y20264770D01*
X13690711Y20262552D01*
X13687105Y20262500D01*
X11890564Y20262500D01*
X11874105Y20264182D01*
X11874102Y20264139D01*
X11866911Y20264769D01*
X11866909Y20264769D01*
X11866906Y20264769D01*
X11855338Y20264433D01*
X11833774Y20265690D01*
X11822331Y20267366D01*
X11822322Y20267367D01*
X11772106Y20262972D01*
X11761297Y20262500D01*
X11755585Y20262500D01*
X11749913Y20261837D01*
X11739136Y20261053D01*
X11688738Y20259586D01*
X11688731Y20259585D01*
X11677554Y20256590D01*
X11656288Y20252840D01*
X11644756Y20251831D01*
X11637684Y20250370D01*
X11637675Y20250409D01*
X11629970Y20248701D01*
X11629980Y20248662D01*
X11622955Y20246998D01*
X11578942Y20230978D01*
X11536532Y20223500D01*
X8460463Y20223500D01*
X8435388Y20226062D01*
X8253954Y20263525D01*
X8075782Y20258341D01*
X7903610Y20212208D01*
X7746713Y20127610D01*
X7613562Y20009115D01*
X7511320Y19863099D01*
X7445514Y19697454D01*
X7445513Y19697450D01*
X7419678Y19521078D01*
X6529500Y19521078D01*
X6529500Y21751334D01*
X6532139Y21776779D01*
X6532801Y21779943D01*
X6534419Y21787654D01*
X6530452Y21819478D01*
X6529500Y21834816D01*
X6529500Y21834995D01*
X6529500Y21834997D01*
X6526034Y21855765D01*
X6525299Y21860813D01*
X6523604Y21874414D01*
X6518752Y21913336D01*
X6518751Y21913338D01*
X6518751Y21913340D01*
X6516489Y21920936D01*
X6513900Y21928480D01*
X6513900Y21928481D01*
X6488699Y21975047D01*
X6486375Y21979564D01*
X6463125Y22027125D01*
X6458541Y22033545D01*
X6453620Y22039868D01*
X6453619Y22039870D01*
X6414676Y22075720D01*
X6411002Y22079246D01*
X5373825Y23116423D01*
X5357697Y23136284D01*
X5351624Y23145579D01*
X5351622Y23145582D01*
X5326309Y23165284D01*
X5314799Y23175449D01*
X5314668Y23175580D01*
X5297538Y23187811D01*
X5293433Y23190873D01*
X5251677Y23223372D01*
X5251676Y23223373D01*
X5251673Y23223375D01*
X5251668Y23223377D01*
X5244681Y23227159D01*
X5237533Y23230653D01*
X5186820Y23245751D01*
X5181939Y23247315D01*
X5131880Y23264501D01*
X5124070Y23265804D01*
X5116140Y23266793D01*
X5063292Y23264606D01*
X5058167Y23264500D01*
X2661003Y23264500D01*
X2593964Y23284185D01*
X2557139Y23320763D01*
X2406012Y23552490D01*
X2256205Y23782193D01*
X2245496Y23808469D01*
X2244408Y23808018D01*
X2239735Y23819300D01*
X2228503Y23836110D01*
X2207625Y23902787D01*
X2226109Y23970167D01*
X2228504Y23973893D01*
X2234948Y23983537D01*
X2239734Y23990699D01*
X2254500Y24064933D01*
X2254499Y25015066D01*
X2239734Y25089301D01*
X2228501Y25106112D01*
X2207624Y25172784D01*
X2226107Y25240164D01*
X2228466Y25243837D01*
X2239734Y25260699D01*
X2254500Y25334933D01*
X2254499Y26285066D01*
X2239734Y26359301D01*
X2228501Y26376112D01*
X2207624Y26442784D01*
X2226107Y26510164D01*
X2228466Y26513837D01*
X2239734Y26530699D01*
X2254500Y26604933D01*
X2254499Y27555066D01*
X2252263Y27566309D01*
X2258490Y27635901D01*
X2301354Y27691078D01*
X2367243Y27714322D01*
X2373880Y27714500D01*
X2439981Y27714500D01*
X2439983Y27714500D01*
X2439988Y27714501D01*
X2439992Y27714501D01*
X2455941Y27716516D01*
X2559299Y27729573D01*
X2708588Y27788681D01*
X2833279Y27879275D01*
X2899081Y27902753D01*
X2967135Y27886928D01*
G37*
%TD.AperFunction*%
%TA.AperFunction,Conductor*%
G36*
X7185039Y10480315D02*
G01*
X7230794Y10427511D01*
X7242000Y10376000D01*
X7242000Y7624000D01*
X7222315Y7556961D01*
X7169511Y7511206D01*
X7118000Y7500000D01*
X6866000Y7500000D01*
X6798961Y7519685D01*
X6753206Y7572489D01*
X6742000Y7624000D01*
X6742000Y10376000D01*
X6761685Y10443039D01*
X6814489Y10488794D01*
X6866000Y10500000D01*
X7118000Y10500000D01*
X7185039Y10480315D01*
G37*
%TD.AperFunction*%
%TA.AperFunction,Conductor*%
G36*
X4719929Y21985815D02*
G01*
X4740571Y21969181D01*
X5234181Y21475571D01*
X5267666Y21414248D01*
X5270500Y21387890D01*
X5270500Y18846862D01*
X5258000Y18804293D01*
X5258000Y17874000D01*
X5238315Y17806961D01*
X5185511Y17761206D01*
X5134000Y17750000D01*
X4882000Y17750000D01*
X4814961Y17769685D01*
X4769206Y17822489D01*
X4758000Y17874000D01*
X4758000Y18729551D01*
X4758904Y18744498D01*
X4762464Y18773813D01*
X4776307Y18887824D01*
X4770678Y18934180D01*
X4757149Y19045606D01*
X4700787Y19194219D01*
X4610498Y19325025D01*
X4580567Y19351542D01*
X4543442Y19410729D01*
X4544210Y19480594D01*
X4580567Y19537169D01*
X4609498Y19562799D01*
X4699787Y19693605D01*
X4756149Y19842218D01*
X4775307Y20000000D01*
X4774200Y20009113D01*
X4768115Y20059234D01*
X4756149Y20157782D01*
X4756146Y20157790D01*
X4755103Y20162024D01*
X4751500Y20191700D01*
X4751500Y20656599D01*
X4756991Y20686531D01*
X4755354Y20686934D01*
X4757146Y20694213D01*
X4757149Y20694218D01*
X4776307Y20852000D01*
X4757149Y21009782D01*
X4700787Y21158395D01*
X4610498Y21289201D01*
X4610495Y21289204D01*
X4610493Y21289206D01*
X4491530Y21394599D01*
X4350791Y21468464D01*
X4196472Y21506500D01*
X4196471Y21506500D01*
X4037529Y21506500D01*
X3975061Y21491103D01*
X3945386Y21487500D01*
X3735852Y21487500D01*
X3720069Y21489243D01*
X3720044Y21488975D01*
X3712282Y21489709D01*
X3712281Y21489709D01*
X3643938Y21487561D01*
X3640043Y21487500D01*
X3612017Y21487500D01*
X3612013Y21487500D01*
X3612001Y21487499D01*
X3607876Y21486978D01*
X3596247Y21486063D01*
X3551799Y21484666D01*
X3551794Y21484665D01*
X3532093Y21478942D01*
X3513054Y21475000D01*
X3492711Y21472429D01*
X3492703Y21472428D01*
X3492701Y21472427D01*
X3492699Y21472427D01*
X3492693Y21472425D01*
X3451359Y21456061D01*
X3440319Y21452281D01*
X3397609Y21439871D01*
X3385110Y21432479D01*
X3379948Y21429427D01*
X3362483Y21420871D01*
X3343415Y21413322D01*
X3343414Y21413321D01*
X3307433Y21387180D01*
X3297675Y21380770D01*
X3259398Y21358132D01*
X3244902Y21343636D01*
X3230112Y21331004D01*
X3213515Y21318946D01*
X3213512Y21318943D01*
X3185160Y21284672D01*
X3177300Y21276035D01*
X2996620Y21095354D01*
X2996608Y21095342D01*
X2992888Y21091623D01*
X2978111Y21079003D01*
X2961516Y21066945D01*
X2961512Y21066942D01*
X2933163Y21032675D01*
X2925303Y21024038D01*
X2392899Y20491634D01*
X2378109Y20479001D01*
X2361514Y20466944D01*
X2361512Y20466942D01*
X2333163Y20432675D01*
X2325303Y20424038D01*
X1101921Y19200656D01*
X1089531Y19190728D01*
X1089702Y19190521D01*
X1083695Y19185552D01*
X1036898Y19135719D01*
X1034188Y19132923D01*
X847921Y18946656D01*
X835531Y18936728D01*
X835702Y18936521D01*
X829695Y18931552D01*
X782898Y18881719D01*
X780190Y18878925D01*
X760366Y18859102D01*
X760365Y18859100D01*
X757797Y18855789D01*
X750222Y18846922D01*
X748077Y18844637D01*
X719782Y18814505D01*
X719781Y18814504D01*
X709900Y18796532D01*
X699225Y18780281D01*
X686652Y18764071D01*
X686650Y18764067D01*
X668987Y18723252D01*
X663850Y18712767D01*
X642430Y18673803D01*
X637329Y18653936D01*
X631030Y18635538D01*
X619787Y18609553D01*
X617044Y18610740D01*
X586963Y18563644D01*
X523488Y18534443D01*
X454302Y18544194D01*
X401371Y18589802D01*
X381500Y18656787D01*
X381500Y21171501D01*
X401185Y21238540D01*
X453989Y21284295D01*
X505495Y21295501D01*
X2025066Y21295501D01*
X2043683Y21299205D01*
X2049272Y21299840D01*
X2055560Y21301271D01*
X2055562Y21301271D01*
X2055563Y21301272D01*
X2064222Y21303242D01*
X2067554Y21303952D01*
X2099298Y21310265D01*
X2099299Y21310266D01*
X2099301Y21310266D01*
X2138203Y21336261D01*
X2146019Y21341074D01*
X2148131Y21342270D01*
X2148141Y21342274D01*
X2155464Y21347428D01*
X2155464Y21347429D01*
X2160451Y21350938D01*
X2160502Y21350866D01*
X2163666Y21353275D01*
X2183484Y21366516D01*
X2200625Y21392171D01*
X2213957Y21408821D01*
X2225289Y21420714D01*
X2225290Y21420716D01*
X2225289Y21420716D01*
X2225292Y21420718D01*
X2559411Y21947883D01*
X2611925Y21993968D01*
X2664145Y22005500D01*
X4652890Y22005500D01*
X4719929Y21985815D01*
G37*
%TD.AperFunction*%
%TA.AperFunction,Conductor*%
G36*
X16239365Y34155840D02*
G01*
X16293671Y34107729D01*
X16434407Y34033865D01*
X16511568Y34014847D01*
X16588728Y33995828D01*
X16588729Y33995828D01*
X16747671Y33995828D01*
X16808809Y34010898D01*
X16838483Y34014500D01*
X16871913Y34014500D01*
X16938952Y33994815D01*
X16984707Y33942011D01*
X16994651Y33872853D01*
X16973963Y33820060D01*
X16916214Y33736398D01*
X16859850Y33587782D01*
X16840693Y33430001D01*
X16840693Y33430000D01*
X16859850Y33272219D01*
X16916214Y33123603D01*
X16968054Y33048500D01*
X17006502Y32992799D01*
X17006504Y32992797D01*
X17006506Y32992795D01*
X17125469Y32887402D01*
X17125471Y32887401D01*
X17266207Y32813537D01*
X17343368Y32794519D01*
X17420528Y32775500D01*
X17420529Y32775500D01*
X17579471Y32775500D01*
X17586021Y32776296D01*
X17619773Y32775769D01*
X17641157Y32772490D01*
X17704439Y32742872D01*
X17741662Y32683743D01*
X17745464Y32641159D01*
X17745500Y32641159D01*
X17745500Y32640751D01*
X17745766Y32637771D01*
X17745500Y32635070D01*
X17745500Y31684937D01*
X17760266Y31610699D01*
X17760267Y31610696D01*
X17771497Y31593890D01*
X17792375Y31527213D01*
X17773890Y31459833D01*
X17771497Y31456110D01*
X17760267Y31439304D01*
X17760264Y31439297D01*
X17745500Y31365072D01*
X17745500Y30414937D01*
X17760266Y30340699D01*
X17760267Y30340696D01*
X17771497Y30323890D01*
X17792375Y30257213D01*
X17773890Y30189833D01*
X17771497Y30186110D01*
X17760267Y30169304D01*
X17760264Y30169297D01*
X17745500Y30095072D01*
X17745500Y29144937D01*
X17760266Y29070699D01*
X17760267Y29070696D01*
X17771497Y29053890D01*
X17792375Y28987213D01*
X17773890Y28919833D01*
X17771497Y28916110D01*
X17760267Y28899304D01*
X17760264Y28899297D01*
X17745500Y28825072D01*
X17745500Y27874937D01*
X17760266Y27800699D01*
X17760267Y27800696D01*
X17771497Y27783890D01*
X17792375Y27717213D01*
X17773890Y27649833D01*
X17771497Y27646110D01*
X17760267Y27629304D01*
X17760264Y27629297D01*
X17745500Y27555072D01*
X17745500Y27198565D01*
X17725815Y27131526D01*
X17673011Y27085771D01*
X17603853Y27075827D01*
X17540297Y27104852D01*
X17505558Y27154593D01*
X17504349Y27157782D01*
X17447987Y27306395D01*
X17357698Y27437201D01*
X17357695Y27437204D01*
X17357693Y27437206D01*
X17238729Y27542599D01*
X17232555Y27546861D01*
X17234005Y27548963D01*
X17192564Y27589063D01*
X17176592Y27657082D01*
X17198355Y27720710D01*
X17251987Y27798408D01*
X17308349Y27947021D01*
X17327507Y28104803D01*
X17308349Y28262585D01*
X17251987Y28411198D01*
X17161698Y28542004D01*
X17161695Y28542007D01*
X17161693Y28542009D01*
X17042730Y28647402D01*
X16901991Y28721267D01*
X16747672Y28759303D01*
X16747671Y28759303D01*
X16588729Y28759303D01*
X16588728Y28759303D01*
X16434408Y28721267D01*
X16293669Y28647402D01*
X16174706Y28542009D01*
X16174700Y28542002D01*
X16084415Y28411202D01*
X16084410Y28411193D01*
X16074843Y28385968D01*
X16059614Y28357604D01*
X16057748Y28355007D01*
X16057745Y28355002D01*
X15799358Y27786647D01*
X15774157Y27750285D01*
X15141693Y27117819D01*
X15080370Y27084334D01*
X15054012Y27081500D01*
X5659385Y27081500D01*
X5592346Y27101185D01*
X5571704Y27117819D01*
X3205352Y29484171D01*
X3171867Y29545494D01*
X3169857Y29571999D01*
X3169777Y29571993D01*
X3169382Y29578267D01*
X3169278Y29579642D01*
X3169285Y29579770D01*
X3169287Y29579779D01*
X3159205Y29740027D01*
X3109588Y29892733D01*
X3023553Y30028303D01*
X3023552Y30028304D01*
X2918529Y30126927D01*
X2883135Y30187168D01*
X2885927Y30256982D01*
X2926021Y30314203D01*
X2943683Y30325985D01*
X2948593Y30328684D01*
X3078485Y30423056D01*
X3078487Y30423058D01*
X3106898Y30457401D01*
X3180835Y30546776D01*
X3249200Y30692059D01*
X3279287Y30849779D01*
X3274516Y30925604D01*
X3289951Y30993745D01*
X3310586Y31021066D01*
X5071703Y32782181D01*
X5133026Y32815666D01*
X5159384Y32818500D01*
X13590616Y32818500D01*
X13657655Y32798815D01*
X13678297Y32782181D01*
X14604795Y31855683D01*
X14620922Y31835824D01*
X14627069Y31826415D01*
X14627071Y31826413D01*
X14627072Y31826412D01*
X14627073Y31826411D01*
X14652550Y31806582D01*
X14664069Y31796409D01*
X14664224Y31796254D01*
X14681458Y31783950D01*
X14685539Y31780906D01*
X14727548Y31748209D01*
X14727550Y31748209D01*
X14734572Y31744408D01*
X14741758Y31740896D01*
X14741763Y31740892D01*
X14765223Y31733908D01*
X14792749Y31725713D01*
X14797632Y31724149D01*
X14847972Y31706867D01*
X14855855Y31705552D01*
X14863790Y31704563D01*
X14863791Y31704562D01*
X14863791Y31704563D01*
X14863792Y31704562D01*
X14916955Y31706761D01*
X14922080Y31706867D01*
X15102249Y31706867D01*
X15169288Y31687182D01*
X15189930Y31670548D01*
X15505956Y31354522D01*
X15531157Y31318160D01*
X15747530Y30842218D01*
X15789545Y30749802D01*
X15789548Y30749798D01*
X15792107Y30746167D01*
X15806693Y30718705D01*
X15816212Y30693606D01*
X15816213Y30693605D01*
X15906502Y30562799D01*
X15906504Y30562797D01*
X15906506Y30562795D01*
X16025469Y30457402D01*
X16025471Y30457401D01*
X16166207Y30383537D01*
X16243368Y30364519D01*
X16320528Y30345500D01*
X16320529Y30345500D01*
X16479472Y30345500D01*
X16530911Y30358179D01*
X16633793Y30383537D01*
X16774529Y30457401D01*
X16893498Y30562799D01*
X16983787Y30693605D01*
X17040149Y30842218D01*
X17059307Y31000000D01*
X17040149Y31157782D01*
X16983787Y31306395D01*
X16893498Y31437201D01*
X16893494Y31437205D01*
X16888524Y31442815D01*
X16890681Y31444727D01*
X16860661Y31492609D01*
X16861442Y31562474D01*
X16897793Y31619025D01*
X16938270Y31654884D01*
X17028559Y31785690D01*
X17084921Y31934303D01*
X17104079Y32092085D01*
X17084921Y32249867D01*
X17028559Y32398480D01*
X16938270Y32529286D01*
X16938267Y32529289D01*
X16938265Y32529291D01*
X16819303Y32634683D01*
X16819297Y32634687D01*
X16757394Y32667176D01*
X16716078Y32688861D01*
X16701355Y32697952D01*
X16694971Y32702539D01*
X16694965Y32702542D01*
X16119458Y32964180D01*
X16098729Y32976141D01*
X16096566Y32977685D01*
X16086778Y32984674D01*
X16082686Y32987725D01*
X16079920Y32989878D01*
X16039108Y33046590D01*
X16035436Y33116363D01*
X16054034Y33158168D01*
X16066707Y33176526D01*
X16123069Y33325139D01*
X16142227Y33482921D01*
X16123069Y33640703D01*
X16066707Y33789316D01*
X16066705Y33789319D01*
X15976318Y33920267D01*
X15954435Y33986621D01*
X15971900Y34054273D01*
X15996141Y34083522D01*
X16059144Y34139338D01*
X16059149Y34139346D01*
X16064117Y34144952D01*
X16066589Y34142762D01*
X16109272Y34177413D01*
X16178714Y34185133D01*
X16239365Y34155840D01*
G37*
%TD.AperFunction*%
%TA.AperFunction,Conductor*%
G36*
X9388249Y39598815D02*
G01*
X9434004Y39546011D01*
X9443948Y39476853D01*
X9414923Y39413297D01*
X9368663Y39379939D01*
X9309399Y39355392D01*
X9105867Y39230668D01*
X8924357Y39075643D01*
X8769332Y38894133D01*
X8644608Y38690601D01*
X8553261Y38470069D01*
X8497538Y38237964D01*
X8478811Y38000000D01*
X8497538Y37762037D01*
X8553261Y37529932D01*
X8644608Y37309400D01*
X8644610Y37309396D01*
X8644611Y37309395D01*
X8769332Y37105868D01*
X8924357Y36924357D01*
X9105868Y36769332D01*
X9309395Y36644611D01*
X9309397Y36644611D01*
X9309399Y36644609D01*
X9385071Y36613265D01*
X9529927Y36553263D01*
X9762034Y36497539D01*
X10000000Y36478811D01*
X10237966Y36497539D01*
X10470073Y36553263D01*
X10690605Y36644611D01*
X10894132Y36769332D01*
X11075643Y36924357D01*
X11230668Y37105868D01*
X11355389Y37309395D01*
X11446737Y37529927D01*
X11502461Y37762034D01*
X11521189Y38000000D01*
X11502461Y38237966D01*
X11446737Y38470073D01*
X11355389Y38690605D01*
X11230668Y38894132D01*
X11075643Y39075643D01*
X10894132Y39230668D01*
X10690605Y39355389D01*
X10690604Y39355390D01*
X10690600Y39355392D01*
X10631337Y39379939D01*
X10576934Y39423780D01*
X10554869Y39490074D01*
X10572148Y39557774D01*
X10623285Y39605384D01*
X10678790Y39618500D01*
X17659405Y39618500D01*
X17726444Y39598815D01*
X17772199Y39546011D01*
X17782143Y39476853D01*
X17753118Y39413297D01*
X17733716Y39395233D01*
X17637096Y39322904D01*
X17549554Y39205962D01*
X17549553Y39205962D01*
X17498506Y39069098D01*
X17492000Y39008582D01*
X17492000Y38960000D01*
X19076000Y38960000D01*
X19143039Y38940315D01*
X19188794Y38887511D01*
X19200000Y38836000D01*
X19200000Y38184000D01*
X19180315Y38116961D01*
X19127511Y38071206D01*
X19076000Y38060000D01*
X17492000Y38060000D01*
X17492000Y38011420D01*
X17492178Y38008104D01*
X17492000Y38008095D01*
X17492000Y38008089D01*
X17491899Y38008089D01*
X17491011Y38008042D01*
X17479439Y37943973D01*
X17431818Y37892845D01*
X17368566Y37875500D01*
X16950007Y37875500D01*
X16830701Y37860427D01*
X16830699Y37860427D01*
X16681413Y37801320D01*
X16681404Y37801315D01*
X16551514Y37706945D01*
X16551512Y37706943D01*
X16449165Y37583225D01*
X16380799Y37437941D01*
X16350712Y37280217D01*
X16355482Y37204398D01*
X16340045Y37136255D01*
X16319408Y37108933D01*
X14878296Y35667819D01*
X14816973Y35634334D01*
X14790615Y35631500D01*
X6448824Y35631500D01*
X6381785Y35651185D01*
X6336030Y35703989D01*
X6334684Y35707042D01*
X6258641Y35886158D01*
X6212934Y35993818D01*
X6208743Y36000004D01*
X6195464Y36025578D01*
X6183777Y36056394D01*
X6183777Y36056395D01*
X6093488Y36187201D01*
X6093485Y36187204D01*
X6093483Y36187206D01*
X5974520Y36292599D01*
X5833781Y36366464D01*
X5679462Y36404500D01*
X5679461Y36404500D01*
X5520519Y36404500D01*
X5520518Y36404500D01*
X5366198Y36366464D01*
X5225459Y36292599D01*
X5106496Y36187206D01*
X5106490Y36187199D01*
X5016204Y36056397D01*
X5016202Y36056394D01*
X4981887Y35965916D01*
X4939708Y35910214D01*
X4874110Y35886158D01*
X4805920Y35901386D01*
X4763896Y35939449D01*
X4743499Y35969000D01*
X4743493Y35969006D01*
X4624533Y36074396D01*
X4624531Y36074398D01*
X4624529Y36074399D01*
X4602522Y36085950D01*
X4572470Y36108063D01*
X4389075Y36291458D01*
X4355590Y36352781D01*
X4360574Y36422473D01*
X4402446Y36478406D01*
X4434342Y36495660D01*
X4594539Y36553966D01*
X4743462Y36651915D01*
X4865783Y36781567D01*
X4954906Y36935933D01*
X5006028Y37106692D01*
X5016392Y37284637D01*
X4985440Y37460176D01*
X4914840Y37623845D01*
X4808398Y37766822D01*
X4671853Y37881396D01*
X4512567Y37961394D01*
X4469205Y37971671D01*
X4339123Y38002500D01*
X2616862Y38002500D01*
X2549823Y38022185D01*
X2529181Y38038819D01*
X2508000Y38060000D01*
X924000Y38060000D01*
X856961Y38079685D01*
X811206Y38132489D01*
X800000Y38184000D01*
X800000Y38836000D01*
X819685Y38903039D01*
X872489Y38948794D01*
X924000Y38960000D01*
X2508000Y38960000D01*
X2508000Y39008580D01*
X2507999Y39008582D01*
X2501493Y39069098D01*
X2450446Y39205962D01*
X2362903Y39322904D01*
X2266284Y39395233D01*
X2224413Y39451167D01*
X2219429Y39520859D01*
X2252914Y39582182D01*
X2314238Y39615666D01*
X2340595Y39618500D01*
X9321210Y39618500D01*
X9388249Y39598815D01*
G37*
%TD.AperFunction*%
%TD*%
M02*
